<svg width="24" height="24" viewBox="0 0 24 24" fill="none" xmlns="http://www.w3.org/2000/svg">
<path d="M19.6312 21.4045H4.36865V2.65447C4.36968 2.64799 4.37224 2.64185 4.37612 2.63656C4.37999 2.63127 4.38508 2.62698 4.39094 2.62405C4.39681 2.62112 4.40329 2.61963 4.40985 2.6197C4.41641 2.61977 4.42285 2.62141 4.42865 2.62447L5.9699 4.06822C5.97697 4.0734 5.98551 4.07619 5.99428 4.07619C6.00304 4.07619 6.01158 4.0734 6.01865 4.06822L7.25615 2.62447C7.26234 2.61893 7.27035 2.61587 7.27865 2.61587C7.28695 2.61587 7.29496 2.61893 7.30115 2.62447L8.69615 4.08322C8.70322 4.0884 8.71176 4.09119 8.72053 4.09119C8.72929 4.09119 8.73783 4.0884 8.7449 4.08322L9.97865 2.62447C9.9818 2.62118 9.98559 2.61856 9.98978 2.61677C9.99396 2.61498 9.99847 2.61406 10.003 2.61406C10.0076 2.61406 10.0121 2.61498 10.0163 2.61677C10.0205 2.61856 10.0243 2.62118 10.0274 2.62447L11.0999 4.07572C11.1069 4.08259 11.1163 4.08644 11.1262 4.08644C11.136 4.08644 11.1454 4.08259 11.1524 4.07572L12.3749 2.62447C12.3781 2.62118 12.3818 2.61856 12.386 2.61677C12.3902 2.61498 12.3947 2.61406 12.3993 2.61406C12.4038 2.61406 12.4083 2.61498 12.4125 2.61677C12.4167 2.61856 12.4205 2.62118 12.4237 2.62447L13.4324 4.06822C13.4394 4.07509 13.4488 4.07894 13.4587 4.07894C13.4685 4.07894 13.4779 4.07509 13.4849 4.06822L14.5724 2.62447C14.5794 2.6176 14.5888 2.61375 14.5987 2.61375C14.6085 2.61375 14.6179 2.6176 14.6249 2.62447L15.6937 4.06822C15.7007 4.07509 15.7101 4.07894 15.7199 4.07894C15.7297 4.07894 15.7391 4.07509 15.7462 4.06822L16.7624 2.62447C16.7655 2.61983 16.7697 2.61602 16.7746 2.61339C16.7795 2.61075 16.785 2.60938 16.7905 2.60938C16.7961 2.60938 16.8016 2.61075 16.8065 2.61339C16.8114 2.61602 16.8156 2.61983 16.8187 2.62447L17.6624 4.06447C17.6656 4.06776 17.6693 4.07038 17.6735 4.07216C17.6777 4.07395 17.6822 4.07488 17.6868 4.07488C17.6913 4.07488 17.6958 4.07395 17.7 4.07216C17.7042 4.07038 17.708 4.06776 17.7112 4.06447L19.5749 2.62447C19.5807 2.62112 19.5873 2.61938 19.594 2.61943C19.6007 2.61949 19.6072 2.62133 19.613 2.62478C19.6187 2.62822 19.6234 2.63314 19.6266 2.63902C19.6298 2.6449 19.6314 2.65153 19.6312 2.65822V21.4045Z" stroke="white" stroke-linecap="round"/>
<path d="M7.28247 16.1406H17.2575" stroke="white" stroke-linecap="round"/>
<path d="M7.28247 18.4844H17.2575" stroke="white" stroke-linecap="round"/>
<path d="M14.2012 8.15241C14.0355 7.76694 13.7586 7.43969 13.4059 7.21254C13.0531 6.9854 12.6406 6.86871 12.2212 6.87741C10.4362 6.87741 10.3687 8.15241 10.3687 8.15241C10.3687 8.15241 10.0987 9.72741 12.2849 9.89616C14.5574 10.0724 14.2012 11.6399 14.2012 11.6399C14.2012 11.6399 13.9687 13.0049 12.2849 13.0912C10.6012 13.1774 10.0762 11.4074 10.0762 11.4074" stroke="white"/>
<path d="M12.2212 5.74219V14.4009" stroke="white"/>
</svg>
