<svg width="24" height="24" viewBox="0 0 24 24" fill="none" xmlns="http://www.w3.org/2000/svg">
<g clip-path="url(#clip0_4663_6425)">
<path d="M21.4133 6.66602H2.58668C2.25427 6.66602 1.93548 6.79806 1.70044 7.03311C1.46539 7.26815 1.33334 7.58694 1.33334 7.91935V20.0793C1.33334 20.4118 1.46539 20.7305 1.70044 20.9656C1.93548 21.2006 2.25427 21.3327 2.58668 21.3327H21.4133C21.7457 21.3327 22.0645 21.2006 22.2996 20.9656C22.5346 20.7305 22.6667 20.4118 22.6667 20.0793V7.91935C22.6667 7.58694 22.5346 7.26815 22.2996 7.03311C22.0645 6.79806 21.7457 6.66602 21.4133 6.66602ZM21.3333 19.9993H2.66668V7.99935H21.3333V19.9993Z" fill="white"/>
<path d="M5.70667 12.9668C6.10223 12.9668 6.48891 12.8495 6.81781 12.6297C7.1467 12.41 7.40305 12.0976 7.55442 11.7322C7.7058 11.3667 7.74541 10.9646 7.66824 10.5766C7.59106 10.1887 7.40058 9.83229 7.12088 9.55258C6.84117 9.27288 6.48481 9.0824 6.09685 9.00523C5.70888 8.92806 5.30675 8.96766 4.9413 9.11904C4.57585 9.27041 4.26349 9.52676 4.04373 9.85566C3.82396 10.1846 3.70667 10.5712 3.70667 10.9668C3.70667 11.4972 3.91738 12.0059 4.29245 12.381C4.66752 12.7561 5.17623 12.9668 5.70667 12.9668ZM5.70667 9.90013C5.91869 9.89483 6.12748 9.95285 6.30636 10.0668C6.48525 10.1807 6.62611 10.3454 6.71094 10.5398C6.79578 10.7342 6.82075 10.9494 6.78265 11.1581C6.74455 11.3667 6.64512 11.5592 6.49706 11.7111C6.34901 11.863 6.15904 11.9672 5.95143 12.0106C5.74382 12.054 5.528 12.0345 5.33154 11.9546C5.13507 11.8747 4.96688 11.738 4.84845 11.5621C4.73002 11.3861 4.66673 11.1789 4.66667 10.9668C4.66658 10.6885 4.77529 10.4211 4.9696 10.2218C5.16391 10.0225 5.42841 9.90709 5.70667 9.90013Z" fill="white"/>
<path d="M5.26666 18.6666L9.26665 14.6666L11.3867 16.7866L9.50666 18.6666H10.84L15.8133 13.6932L20 17.8466V16.5132L16.1333 12.6666C16.0447 12.5786 15.9249 12.5293 15.8 12.5293C15.6751 12.5293 15.5553 12.5786 15.4667 12.6666L12.0267 16.1066L9.57999 13.6666C9.49133 13.5786 9.37152 13.5293 9.24666 13.5293C9.12179 13.5293 9.00198 13.5786 8.91332 13.6666L3.94666 18.6666H5.26666Z" fill="white"/>
<path d="M20.0933 2.00065C20.0933 1.82384 20.0231 1.65427 19.8981 1.52925C19.773 1.40422 19.6035 1.33398 19.4267 1.33398H4.75999C4.58318 1.33398 4.41361 1.40422 4.28859 1.52925C4.16356 1.65427 4.09332 1.82384 4.09332 2.00065V2.66732H20.0933V2.00065Z" fill="white"/>
<path d="M21.4133 4.66667C21.4133 4.48986 21.3431 4.32029 21.2181 4.19526C21.0931 4.07024 20.9235 4 20.7467 4H3.41334C3.23653 4 3.06696 4.07024 2.94194 4.19526C2.81691 4.32029 2.74667 4.48986 2.74667 4.66667V5.33333H21.4133V4.66667Z" fill="white"/>
</g>
<defs>
<clipPath id="clip0_4663_6425">
<rect width="24" height="24" fill="white"/>
</clipPath>
</defs>
</svg>
