<svg width="46" height="28" viewBox="0 0 46 28" fill="none" xmlns="http://www.w3.org/2000/svg">
<rect width="45.5" height="28" fill="white"/>
<path d="M2.33333 0H43.1667C44.4554 0 45.5 1.0029 45.5 2.24V25.76C45.5 26.9972 44.4554 28 43.1667 28H2.33333C1.04469 28 0 26.9972 0 25.76V2.24C0 1.0029 1.04469 0 2.33333 0Z" fill="#016FD0"/>
<path d="M8.84509 21.5253V14.4492H16.3987L17.2091 15.4971L18.0463 14.4492H45.4638V21.0373C45.4638 21.0373 44.7468 21.5182 43.9176 21.5253H28.7359L27.8222 20.4099V21.5253H24.828V19.6212C24.828 19.6212 24.419 19.887 23.5348 19.887H22.5156V21.5253H17.9822L17.173 20.4549L16.3513 21.5253H8.84509Z" fill="white"/>
<path d="M0 9.18891L1.70493 5.25H4.65344L5.621 7.45642V5.25H9.28626L9.86226 6.84473L10.4207 5.25H26.8739V6.05172C26.8739 6.05172 27.7388 5.25 29.1603 5.25L34.4987 5.26849L35.4496 7.44603V5.25H38.5169L39.3611 6.50082V5.25H42.4565V12.3261H39.3611L38.5521 11.0712V12.3261H34.0456L33.5924 11.2106H32.3809L31.935 12.3261H28.8789C27.6558 12.3261 26.8739 11.5407 26.8739 11.5407V12.3261H22.2659L21.3514 11.2106V12.3261H4.21663L3.76375 11.2106H2.55611L2.10643 12.3261H0L0 9.18891Z" fill="white"/>
<path fill-rule="evenodd" clip-rule="evenodd" d="M0 11.2651L2.30979 5.95801H4.0609L6.36848 11.2651H4.83156L4.40759 10.2024H1.92998L1.50379 11.2651H0ZM3.91957 9.05016L3.16437 7.19312L2.40695 9.05016H3.91957Z" fill="#016FD0"/>
<path d="M6.54541 11.2651V5.95801L8.68535 5.96585L9.93001 9.38751L11.1449 5.95801H13.2677V11.2651H11.9232V7.3546L10.4981 11.2651H9.31899L7.88987 7.3546V11.2651H6.54541Z" fill="#016FD0"/>
<path d="M14.1522 11.2651V5.95801H18.5747V7.14512H15.5217V8.0529H18.5034V9.17018H15.5217V10.1129H18.5747V11.2651H14.1522Z" fill="#016FD0"/>
<path fill-rule="evenodd" clip-rule="evenodd" d="M19.2823 11.2651V5.95801H22.2537C23.2383 5.95801 24.1204 6.56296 24.1204 7.67975C24.1204 8.63445 23.3767 9.24938 22.6556 9.30984L24.4125 11.2651H22.7808L21.1798 9.37967H20.6176V11.2651H19.2823ZM22.1439 7.14511H20.6176V8.26239H22.1637C22.4313 8.26239 22.7764 8.05633 22.7764 7.70375C22.7764 7.4297 22.51 7.14511 22.1439 7.14511Z" fill="#016FD0"/>
<path d="M26.0046 11.2651H24.5894V5.95801H26.0046V11.2651Z" fill="#016FD0"/>
<path d="M29.2574 11.2651H28.9673C27.5642 11.2651 26.7122 10.1504 26.7122 8.63336C26.7122 7.07883 27.5546 5.95801 29.3266 5.95801H30.781V7.21494H29.2734C28.5541 7.21494 28.0454 7.78096 28.0454 8.64646C28.0454 9.67423 28.6271 10.1059 29.4651 10.1059H29.8114L29.2574 11.2651Z" fill="#016FD0"/>
<path fill-rule="evenodd" clip-rule="evenodd" d="M29.8965 11.2651L32.2063 5.95801H33.9574L36.265 11.2651H34.728L34.3041 10.2024H31.8265L31.4003 11.2651H29.8965ZM33.8161 9.05016L33.0608 7.19312L32.3034 9.05016H33.8161Z" fill="#016FD0"/>
<path d="M36.4418 11.2651V5.95801H38.1165L40.2548 9.29238V5.95801H41.572V11.2651H39.9515L37.759 7.84341V11.2651H36.4418Z" fill="#016FD0"/>
<path d="M9.72961 20.6401V15.333H14.1522V16.5201H11.0992V17.4279H14.0808V18.5452H11.0992V19.4879H14.1522V20.6401H9.72961Z" fill="#016FD0"/>
<path d="M31.1348 20.6401V15.333H35.5573V16.5201H32.5043V17.4279H35.4717V18.5452H32.5043V19.4879H35.5573V20.6401H31.1348Z" fill="#016FD0"/>
<path d="M14.3792 20.6401L16.4818 18.0193L14.3291 15.333H15.9964L17.2785 16.9936L18.5649 15.333H20.1669L18.0425 17.9865L20.149 20.6401H18.4819L17.2371 19.0056L16.0225 20.6401H14.3792Z" fill="#016FD0"/>
<path fill-rule="evenodd" clip-rule="evenodd" d="M20.3438 20.6401V15.333H23.3457C24.5774 15.333 25.297 16.108 25.297 17.118C25.297 18.3372 24.3795 18.9642 23.1691 18.9642H21.7385V20.6401H20.3438ZM23.2451 16.5332H21.7385V17.7552H23.2406C23.6375 17.7552 23.9156 17.4984 23.9156 17.1442C23.9156 16.7672 23.6361 16.5332 23.2451 16.5332Z" fill="#016FD0"/>
<path fill-rule="evenodd" clip-rule="evenodd" d="M25.8277 20.6401V15.333H28.7991C29.7836 15.333 30.6658 15.938 30.6658 17.0547C30.6658 18.0094 29.922 18.6244 29.201 18.6848L30.9579 20.6401H29.3261L27.7252 18.7547H27.1629V20.6401H25.8277ZM28.6893 16.5201H27.1629V17.6374H28.709C28.9766 17.6374 29.3217 17.4313 29.3217 17.0788C29.3217 16.8047 29.0554 16.5201 28.6893 16.5201Z" fill="#016FD0"/>
<path d="M36.0814 20.6401V19.4879H38.7646C39.1616 19.4879 39.3335 19.2756 39.3335 19.0427C39.3335 18.8196 39.1622 18.5941 38.7646 18.5941H37.5521C36.4981 18.5941 35.9111 17.9586 35.9111 17.0046C35.9111 16.1536 36.4487 15.333 38.0148 15.333H40.6257L40.0612 16.5271H37.8032C37.3715 16.5271 37.2386 16.7512 37.2386 16.9653C37.2386 17.1853 37.4028 17.4279 37.7326 17.4279H39.0028C40.1777 17.4279 40.6875 18.0874 40.6875 18.9511C40.6875 19.8796 40.1194 20.6401 38.9388 20.6401H36.0814Z" fill="#016FD0"/>
<path d="M41.0346 20.6401V19.4879H43.7178C44.1149 19.4879 44.2868 19.2756 44.2868 19.0427C44.2868 18.8196 44.1154 18.5941 43.7178 18.5941H42.5053C41.4514 18.5941 40.8644 17.9586 40.8644 17.0046C40.8644 16.1536 41.4019 15.333 42.9681 15.333H45.579L45.0145 16.5271H42.7564C42.3248 16.5271 42.1919 16.7512 42.1919 16.9653C42.1919 17.1853 42.3561 17.4279 42.6858 17.4279H43.956C45.1309 17.4279 45.6407 18.0874 45.6407 18.9511C45.6407 19.8796 45.0726 20.6401 43.892 20.6401H41.0346Z" fill="#016FD0"/>
</svg>
