<svg width="24" height="22" viewBox="0 0 24 22" fill="none" xmlns="http://www.w3.org/2000/svg">
<path d="M23.2 10.4226C23.0957 10.4219 22.9922 10.4417 22.8956 10.4809C22.7989 10.5202 22.7109 10.5781 22.6366 10.6513C22.5623 10.7246 22.5032 10.8117 22.4626 10.9078C22.422 11.0039 22.4007 11.1071 22.4 11.2114V18.8034C22.4 19.3546 21.7552 19.821 20.9928 19.821H3.0072C2.2448 19.821 1.6 19.3546 1.6 18.8034V10.9802C1.59927 10.8759 1.57799 10.7727 1.53739 10.6766C1.49679 10.5805 1.43766 10.4934 1.36337 10.4201C1.28908 10.3469 1.2011 10.289 1.10443 10.2497C1.00777 10.2105 0.904323 10.1907 0.8 10.1914C0.695677 10.1907 0.592231 10.2105 0.495567 10.2497C0.398903 10.289 0.310916 10.3469 0.236628 10.4201C0.162341 10.4934 0.103209 10.5805 0.0626079 10.6766C0.022007 10.7727 0.000732816 10.8759 0 10.9802L0 18.8034C0.0593444 19.5445 0.408209 20.2324 0.97105 20.7181C1.53389 21.2039 2.26541 21.4483 3.0072 21.3986H20.9928C21.7346 21.4483 22.4661 21.2039 23.0289 20.7181C23.5918 20.2324 23.9407 19.5445 24 18.8034V11.2114C23.9993 11.1071 23.978 11.0039 23.9374 10.9078C23.8968 10.8117 23.8377 10.7246 23.7634 10.6513C23.6891 10.5781 23.6011 10.5202 23.5044 10.4809C23.4078 10.4417 23.3043 10.4219 23.2 10.4226Z" fill="black"/>
<path d="M8.09521 15.898C8.21509 16.0862 8.38066 16.2411 8.57649 16.3481C8.77232 16.4551 8.99205 16.5108 9.21521 16.51C9.3011 16.5099 9.3868 16.5019 9.47121 16.486C9.72997 16.4402 9.96869 16.3168 10.1557 16.1322C10.3427 15.9476 10.4692 15.7105 10.5184 15.4524C10.7213 14.2882 11.1609 13.1779 11.8099 12.1904C12.459 11.2028 13.3038 10.3589 14.292 9.7108L16.3392 12.0012C16.5172 12.2005 16.751 12.3417 17.0102 12.4063C17.2694 12.4709 17.5421 12.456 17.7928 12.3636C18.0483 12.2709 18.2687 12.1011 18.4235 11.8777C18.5783 11.6542 18.6598 11.3882 18.6568 11.1164L18.3672 3.2052C18.3736 2.88493 18.2609 2.57367 18.0511 2.33163C17.8413 2.08958 17.5491 1.93394 17.2312 1.8948L9.23121 0.606801C8.96633 0.575499 8.69817 0.624979 8.4619 0.748753C8.22563 0.872527 8.03228 1.06482 7.90721 1.3004C7.78162 1.53364 7.73149 1.8001 7.76373 2.06303C7.79597 2.32596 7.90899 2.57241 8.08721 2.7684L10.016 4.9284C6.55201 7.998 5.79361 12.2788 8.09521 15.898ZM11.4 4.0884L9.80001 2.2964L16.7768 3.4164L17.032 10.3844L15.3432 8.5004C15.1396 8.27271 14.8643 8.12149 14.5629 8.07187C14.2615 8.02225 13.9522 8.0772 13.6864 8.2276C12.5457 8.90659 11.5525 9.80712 10.7653 10.8761C9.97818 11.945 9.41304 13.1608 9.10321 14.4516C7.65441 11.5956 8.46321 8.3228 11.2632 5.9476C11.3973 5.83393 11.5075 5.6948 11.5874 5.53825C11.6673 5.3817 11.7154 5.21086 11.7288 5.0356C11.7406 4.86372 11.7175 4.69123 11.661 4.52847C11.6045 4.36571 11.5157 4.21603 11.4 4.0884Z" fill="black"/>
</svg>
