<svg width="46" height="28" viewBox="0 0 46 28" fill="none" xmlns="http://www.w3.org/2000/svg">
<rect x="16.5753" y="2.99512" width="12.3131" height="22.0104" fill="#FF5A00"/>
<path d="M17.3949 14C17.3949 9.52816 19.5078 5.55922 22.75 2.99482C20.3639 1.12816 17.3539 0 14.0708 0C6.29313 0 0 6.26149 0 14C0 21.7385 6.29313 28 14.0708 28C17.3539 28 20.3639 26.8718 22.75 25.0052C19.5033 22.477 17.3949 18.4718 17.3949 14Z" fill="#EB001B"/>
<path d="M45.5 14C45.5 21.7385 39.2069 28 31.4292 28C28.1461 28 25.1361 26.8718 22.75 25.0052C26.0332 22.4362 28.1051 18.4718 28.1051 14C28.1051 9.52816 25.9922 5.55922 22.75 2.99482C25.1316 1.12816 28.1415 0 31.4247 0C39.2069 0 45.5 6.30227 45.5 14Z" fill="#F79E1B"/>
</svg>
