<svg width="24" height="26" viewBox="0 0 24 26" fill="none" xmlns="http://www.w3.org/2000/svg">
<path d="M2.19391 12.6016H12.3157C11.9047 13.486 10.3656 16.209 6.19608 18.4611C6.19608 18.4802 1.52575 20.8402 0.098246 16.7291C0.134988 16.7291 -0.746823 13.7822 2.15581 12.6029L2.19391 12.6016Z" fill="url(#paint0_linear_1247_5840)"/>
<path d="M2.19391 12.6017H12.3157C11.9047 11.7172 10.3656 8.9942 6.19608 6.74209C6.19608 6.72299 1.52575 4.36305 0.098246 8.47417C0.134988 8.47417 -0.746823 11.421 2.15581 12.6003L2.19391 12.6017Z" fill="url(#paint1_linear_1247_5840)"/>
<path d="M16.9248 3.70434L12.4763 12.7169C11.8707 11.9648 10.1262 9.40695 9.95605 4.71165C9.93972 4.70346 9.89345 -0.484575 14.176 0.0368222C14.1596 0.0695801 17.1684 0.570503 16.9411 3.66749L16.9248 3.70434Z" fill="url(#paint2_linear_1247_5840)"/>
<path d="M16.9249 3.70364L12.4764 12.7162C13.4439 12.7353 16.5411 12.5524 20.3759 9.82118C20.3923 9.82937 24.5441 6.69963 21.5163 3.63676C21.5 3.66952 19.2669 1.59895 16.9426 3.66952L16.9249 3.70364Z" fill="url(#paint3_linear_1247_5840)"/>
<path d="M18.9062 20.5665L12.4219 12.7715C12.0082 13.6559 10.91 16.5837 11.8571 21.238C11.8435 21.2503 13.0288 26.3592 17.0895 24.825C17.0664 24.7964 19.8873 23.5871 18.9307 20.5979L18.9062 20.5665Z" fill="url(#paint4_linear_1247_5840)"/>
<path d="M18.9062 20.5659L12.4219 12.7709C13.3636 12.5211 16.4322 11.9629 20.8277 13.7304C20.8413 13.7182 25.6409 15.8037 23.4078 19.5368C23.3846 19.5081 21.6931 22.0755 18.9307 20.596L18.9062 20.5659Z" fill="url(#paint5_linear_1247_5840)"/>
<defs>
<linearGradient id="paint0_linear_1247_5840" x1="7.81016" y1="17.5363" x2="4.22915" y2="11.3524" gradientUnits="userSpaceOnUse">
<stop offset="0.0011606" stop-color="#A179FC"/>
<stop offset="0.2096" stop-color="#9F7DFC"/>
<stop offset="0.4197" stop-color="#9889FD"/>
<stop offset="0.6306" stop-color="#8C9DFD"/>
<stop offset="0.8409" stop-color="#7BB9FE"/>
<stop offset="1" stop-color="#6CD4FF"/>
</linearGradient>
<linearGradient id="paint1_linear_1247_5840" x1="6.15821" y1="12.6019" x2="6.15821" y2="6.05195" gradientUnits="userSpaceOnUse">
<stop offset="0.0011606" stop-color="#A179FC"/>
<stop offset="0.2096" stop-color="#9F7DFC"/>
<stop offset="0.4197" stop-color="#9889FD"/>
<stop offset="0.6306" stop-color="#8C9DFD"/>
<stop offset="0.8409" stop-color="#7BB9FE"/>
<stop offset="1" stop-color="#6CD4FF"/>
</linearGradient>
<linearGradient id="paint2_linear_1247_5840" x1="9.9539" y1="6.35937" x2="16.9533" y2="6.35937" gradientUnits="userSpaceOnUse">
<stop offset="0.0011606" stop-color="#FF600A"/>
<stop offset="1" stop-color="#FDB805"/>
</linearGradient>
<linearGradient id="paint3_linear_1247_5840" x1="12.4763" y1="7.73323" x2="22.6213" y2="7.73323" gradientUnits="userSpaceOnUse">
<stop offset="0.0011606" stop-color="#FF600A"/>
<stop offset="1" stop-color="#FDB805"/>
</linearGradient>
<linearGradient id="paint4_linear_1247_5840" x1="11.4828" y1="18.9416" x2="19.1284" y2="18.9416" gradientUnits="userSpaceOnUse">
<stop offset="0.0011606" stop-color="#269E3C"/>
<stop offset="0.1223" stop-color="#2FA23B"/>
<stop offset="0.3235" stop-color="#49AD37"/>
<stop offset="0.5798" stop-color="#72BE31"/>
<stop offset="0.8783" stop-color="#ABD529"/>
<stop offset="1" stop-color="#C4E025"/>
</linearGradient>
<linearGradient id="paint5_linear_1247_5840" x1="12.4221" y1="16.7703" x2="24.0008" y2="16.7703" gradientUnits="userSpaceOnUse">
<stop offset="0.0011606" stop-color="#269E3C"/>
<stop offset="0.1223" stop-color="#2FA23B"/>
<stop offset="0.3235" stop-color="#49AD37"/>
<stop offset="0.5798" stop-color="#72BE31"/>
<stop offset="0.8783" stop-color="#ABD529"/>
<stop offset="1" stop-color="#C4E025"/>
</linearGradient>
</defs>
</svg>
