<svg width="46" height="28" viewBox="0 0 46 28" fill="none" xmlns="http://www.w3.org/2000/svg">
<rect width="45.5" height="28" fill="white"/>
<path d="M8.99104 0H20.4503C22.0499 0 23.0448 1.27119 22.6716 2.83595L17.3365 25.1684C16.96 26.7277 15.3585 28 13.7577 28H2.29962C0.702255 28 -0.294879 26.7277 0.0782783 25.1684L5.4156 2.83595C5.78876 1.27119 7.38948 0 8.99104 0Z" fill="#E21836"/>
<path d="M19.3303 0H32.2737C33.8445 0 33.1362 1.27119 32.7667 2.83595L27.5273 25.1684C27.1597 26.7277 27.2744 28 25.7002 28H12.7569C11.1827 28 10.2086 26.7277 10.5784 25.1684L15.8174 2.83595C16.1894 1.27119 17.7584 0 19.3303 0Z" fill="#00447C"/>
<path d="M31.7402 0H43.1999C44.8018 0 45.7967 1.27119 45.4205 2.83595L40.086 25.1684C39.7095 26.7277 38.1067 28 36.5051 28H25.0507C23.448 28 22.4539 26.7277 22.8293 25.1684L28.1646 2.83595C28.5377 1.27119 30.1374 0 31.7402 0Z" fill="#007B84"/>
<path fill-rule="evenodd" clip-rule="evenodd" d="M27.868 14.0529C27.9079 13.8422 28.1449 12.5933 28.147 12.5933C28.147 12.5933 28.3488 11.6769 28.3611 11.6436C28.3611 11.6436 28.4247 11.5482 28.4882 11.5105H28.5816C29.4632 11.5105 30.4588 11.5105 31.2391 10.8894C31.77 10.4634 32.133 9.8344 32.295 9.06993C32.337 8.8825 32.3679 8.65958 32.3679 8.43665C32.3679 8.14387 32.3136 7.85421 32.1567 7.62788C31.7588 7.02556 30.9664 7.01448 30.0517 7.00994L29.6008 7.01448C28.4299 7.0301 27.9604 7.02556 27.7675 7C27.7512 7.09229 27.7205 7.25643 27.7205 7.25643C27.7205 7.25643 27.3011 9.35959 27.3011 9.363L26.2501 14.0453C27.2724 14.0319 27.6916 14.0319 27.868 14.0529ZM11.6639 7.04112C10.5565 7.05333 10.2295 7.04112 10.125 7.01443C10.0849 7.22088 9.33763 10.9504 9.33553 10.9535C9.17464 11.708 9.05758 12.2459 8.65995 12.5932C8.43423 12.7951 8.17071 12.8925 7.8652 12.8925C7.37413 12.8925 7.08804 12.6287 7.04001 12.1283L7.03083 11.9565C7.03083 11.9565 7.18043 10.9458 7.18043 10.9402C7.18043 10.9402 7.96468 7.54149 8.10509 7.09224C8.11244 7.06668 8.11454 7.05333 8.11638 7.04112C6.58988 7.0556 6.31928 7.04112 6.30065 7.01443C6.29041 7.05106 6.25262 7.26177 6.25262 7.26177L5.45184 11.0924L5.38307 11.4172L5.25 12.4799C5.25 12.7951 5.30722 13.0524 5.42113 13.2699C5.78595 13.9597 6.82663 14.0631 7.41534 14.0631C8.17386 14.0631 8.8854 13.8887 9.36624 13.5704C10.1999 13.0374 10.4188 12.2046 10.6133 11.464L10.614 11.4615L10.7043 11.0813C10.7043 11.0813 11.5122 7.55143 11.6494 7.09224L11.6511 7.08387C11.6552 7.06362 11.6576 7.05192 11.6639 7.04112ZM14.4126 9.8887C14.2178 9.8887 13.8619 9.93982 13.5422 10.1094C13.453 10.159 13.3674 10.2145 13.28 10.2712L13.2799 10.2713L13.2799 10.2713C13.2537 10.2882 13.2274 10.3053 13.2008 10.3223L13.3052 9.91426L13.248 9.84553C12.6144 9.98434 12.4405 10.0108 11.9092 10.0915L11.7921 10.1094L11.7396 10.1471C11.6669 10.7994 11.6024 11.2899 11.3328 12.572C11.2302 13.0446 11.1236 13.5217 11.0168 13.9931L11.0457 14.053C11.6874 14.0163 11.8822 14.0163 12.4399 14.0263L12.485 13.9732C12.5041 13.8674 12.5187 13.7835 12.533 13.7017C12.5716 13.4799 12.6073 13.2742 12.722 12.693C12.7377 12.613 12.7569 12.5127 12.7783 12.4015L12.7783 12.4013L12.7783 12.4013L12.7783 12.4012L12.7783 12.4012C12.8576 11.9881 12.9657 11.4246 13.0254 11.1922C13.1648 11.1223 13.3023 11.0536 13.4336 11.0536C13.739 11.0536 13.7097 11.3353 13.6969 11.4579L13.696 11.4662C13.6827 11.6636 13.5688 12.3082 13.452 12.8617L13.374 13.2189C13.3458 13.3557 13.3162 13.4905 13.2867 13.6251L13.2867 13.6252L13.2867 13.6252L13.2867 13.6253L13.2867 13.6253L13.2867 13.6253L13.2867 13.6254C13.2593 13.7502 13.2319 13.8749 13.2058 14.0007L13.2294 14.053C13.8619 14.0163 14.0548 14.0163 14.595 14.0263L14.6585 13.9732C14.7561 13.3598 14.7848 13.1956 14.958 12.3025L15.0451 11.8922C15.2144 11.0891 15.2994 10.6819 15.1714 10.3502C15.0359 9.97844 14.711 9.8887 14.4126 9.8887ZM17.3718 10.7527L17.4832 10.7295L17.4955 10.7605L17.5047 10.794C17.4774 10.9173 17.4495 11.0406 17.4215 11.1643C17.3865 11.3188 17.3513 11.4739 17.3171 11.6303C17.2894 11.7621 17.2608 11.8925 17.2323 12.0223L17.2323 12.0224L17.2323 12.0225C17.1997 12.1711 17.1673 12.3187 17.1368 12.4666C17.0876 12.7062 17.0503 12.8849 17.0214 13.0233L17.0214 13.0234C16.9791 13.226 16.9548 13.3425 16.9378 13.4373C16.9203 13.5274 16.9108 13.593 16.8956 13.6984C16.8856 13.7672 16.8732 13.8528 16.8546 13.9732L16.8239 14.001L16.7953 14.0263C16.6898 14.0256 16.5964 14.0244 16.5114 14.0232L16.5113 14.0232C16.3327 14.0208 16.1912 14.0189 16.053 14.0243C15.8664 14.0261 15.6845 14.0355 15.4228 14.049L15.4226 14.049L15.4226 14.049L15.3465 14.0529L15.3302 14.0243L15.3108 13.993C15.3835 13.6967 15.4271 13.5697 15.4644 13.4615L15.4644 13.4614L15.4644 13.4614L15.4644 13.4614L15.4644 13.4614L15.4798 13.4163C15.5218 13.2953 15.5599 13.1755 15.6336 12.8316C15.7289 12.3823 15.7874 12.0696 15.8255 11.7945C15.8585 11.5985 15.88 11.4241 15.9026 11.2413L15.9027 11.2408C15.9107 11.1755 15.9189 11.1091 15.9278 11.0402L15.9515 11.02L15.9772 10.9948C16.3021 10.9459 16.5081 10.9127 16.7194 10.8761C16.908 10.8494 17.0976 10.8099 17.3717 10.7528L17.3717 10.7528L17.3717 10.7528L17.3717 10.7527L17.3718 10.7527L17.3718 10.7527ZM17.4904 9.59583C17.1849 9.40074 16.6486 9.46264 16.2878 9.73214C15.9279 9.99624 15.887 10.3711 16.1914 10.5687C16.4917 10.7584 17.03 10.7019 17.3877 10.4302C17.7468 10.1604 17.7917 9.78894 17.4904 9.59583ZM21.0666 13.3828C20.5897 13.9298 19.9561 14.1141 19.338 14.1141C19.096 14.1141 18.7207 14.0809 18.4603 13.9599C17.6165 13.5904 17.7509 12.5976 17.8677 12.0461C17.9834 11.5049 18.1753 10.9403 18.5905 10.5243C19.1687 9.94754 19.9089 9.91431 20.2196 9.91431C20.7364 9.91431 21.2346 10.0395 21.5165 10.43C21.702 10.6862 21.8498 11.1067 21.66 12.0075C21.6018 12.2793 21.4335 12.9393 21.0666 13.3828ZM19.2897 12.0873C19.4322 11.4052 19.6005 10.8327 20.0299 10.8327C20.3663 10.8327 20.3907 11.2587 20.2411 11.9431C20.2144 12.095 20.0915 12.6598 19.9254 12.9004C19.8094 13.0778 19.6721 13.1855 19.5204 13.1855C19.4753 13.1855 19.2068 13.1855 19.2026 12.7541C19.2005 12.5411 19.2406 12.3236 19.2897 12.0873ZM23.2534 13.9733L23.2052 14.0264C22.6485 14.0164 22.4566 14.0164 21.8138 14.0531L21.7852 13.9931C21.8918 13.5217 21.9983 13.0447 22.101 12.5721C22.3705 11.2897 22.4322 10.7995 22.508 10.1472L22.5561 10.1094L22.6881 10.0893L22.6882 10.0893C23.2074 10.0104 23.3868 9.98308 24.0141 9.84534L24.0663 9.91434L23.9689 10.3224C24.0807 10.248 24.1946 10.1739 24.3083 10.1094C24.6261 9.93962 24.9839 9.88878 25.1789 9.88878C25.4731 9.88878 25.8001 9.97852 25.9395 10.3503C26.0655 10.6819 25.9794 11.0889 25.8093 11.892L25.7243 12.3026C25.5458 13.1954 25.5201 13.3596 25.4248 13.9733L25.3592 14.0264C24.8159 14.0164 24.6303 14.0164 23.9957 14.0531L23.9721 14.0008C24.0021 13.8562 24.0343 13.7132 24.0666 13.5698L24.0666 13.5696L24.0666 13.5696L24.0667 13.5694L24.0667 13.5692L24.0667 13.569L24.0668 13.5689L24.0668 13.5688L24.0668 13.5687L24.0668 13.5685L24.0669 13.5684L24.0669 13.5683L24.0669 13.5682L24.067 13.568L24.067 13.5679L24.067 13.5678L24.067 13.5677C24.0931 13.4521 24.1192 13.3362 24.1443 13.2187L24.218 12.8615C24.3369 12.308 24.4508 11.6637 24.4621 11.466L24.4629 11.4586C24.4758 11.3365 24.5059 11.0534 24.2017 11.0534C24.0679 11.0534 23.9343 11.1205 23.7964 11.1898L23.7915 11.1923C23.7367 11.4113 23.6361 11.9244 23.5569 12.3286L23.5569 12.3288L23.5568 12.3289C23.5294 12.469 23.5045 12.596 23.4849 12.6931C23.3673 13.3096 23.3341 13.5036 23.2932 13.7427L23.2932 13.7427L23.2932 13.7428L23.2931 13.7429L23.2931 13.7432L23.2931 13.7433L23.293 13.7436L23.293 13.7439L23.2926 13.7463L23.2925 13.7466C23.2809 13.8147 23.2685 13.8867 23.2534 13.9733ZM29.089 8.22594C29.0911 8.21799 28.6451 10.3169 28.6451 10.3169L28.6268 10.4222H28.8688C29.2428 10.4222 29.6058 10.4089 29.9021 10.2482C30.2619 10.0585 30.542 9.66572 30.6372 9.19857C30.7417 8.68741 30.5921 8.2958 30.2291 8.14387C30.2076 8.1416 29.2879 8.05612 29.2879 8.05612L29.1097 8.03624L29.1034 8.11831L29.089 8.22594ZM31.4216 12.1262C31.3037 12.6697 31.1683 13.6625 32.0079 14.0164C32.2757 14.1396 32.5155 14.1763 32.7594 14.1629C33.0169 14.1479 33.2554 14.0081 33.4764 13.8071L33.4166 14.0553L33.4546 14.1084C34.0586 14.0808 34.246 14.0808 34.9003 14.0862L34.9596 14.0374L34.9707 13.967C35.0624 13.3832 35.1548 12.7946 35.3935 11.6769C35.5145 11.1201 35.6352 10.5686 35.7594 10.014L35.7399 9.95291C35.0643 10.0884 34.8838 10.1173 34.2339 10.217L34.1846 10.2605L34.1745 10.3448L34.1649 10.4254C34.0638 10.2488 33.9174 10.098 33.6914 10.004C33.4024 9.88106 32.7237 10.0395 32.1402 10.6143C31.7303 11.0246 31.5334 11.5869 31.4216 12.1262ZM33.5817 10.9227C33.1512 10.9227 32.9851 11.4895 32.8405 12.1594C32.7904 12.398 32.7502 12.6152 32.7523 12.8262C32.7615 13.2499 33.0271 13.2499 33.0701 13.2499C33.2218 13.2499 33.4854 13.1446 33.5961 12.9747C33.6552 12.8898 33.709 12.7623 33.7552 12.6271L33.7898 12.4771L33.7898 12.4771L33.7898 12.477L33.7899 12.4769L33.7899 12.4769L33.7899 12.4768L33.7899 12.4768L33.7899 12.4767L33.7899 12.4767L33.7899 12.4766L33.7899 12.4766L33.79 12.4765L33.79 12.4765C33.8241 12.3291 33.8582 12.1816 33.8903 12.0331C33.92 11.8953 33.9449 11.7735 33.968 11.6579C33.9972 11.1945 33.8539 10.9227 33.5817 10.9227ZM40.25 9.94748L40.1978 9.88302C39.5293 10.0296 39.4083 10.0528 38.7941 10.1426L38.749 10.1914C38.7481 10.1948 38.7472 10.1989 38.7463 10.2034C38.7451 10.2095 38.7437 10.2163 38.7419 10.2227L38.7398 10.2116C38.4907 10.8333 38.3813 11.0433 38.2731 11.2509C38.1827 11.4244 38.0932 11.5962 37.9238 12.0052C37.9227 11.9843 37.9222 11.9674 37.9216 11.95C37.9211 11.9335 37.9206 11.9165 37.9196 11.8953L37.8264 9.94748L37.7679 9.88302C37.5769 9.92299 37.4367 9.95379 37.3208 9.97926C37.0117 10.0472 36.8747 10.0773 36.4044 10.1426L36.354 10.1914C36.3494 10.2065 36.3478 10.2225 36.346 10.2395V10.2396L36.3445 10.2546L36.3427 10.2681L36.3469 10.278C36.4106 10.6305 36.412 10.6431 36.4495 10.9784C36.4596 11.0684 36.4722 11.1816 36.4894 11.3307C36.5087 11.5076 36.5313 11.6849 36.5538 11.8617L36.5538 11.8619L36.5539 11.862L36.5539 11.8621L36.5539 11.8621L36.5539 11.8623L36.5539 11.8625C36.5755 12.0315 36.5969 12.2 36.6154 12.367L36.6442 12.6238L36.6442 12.6239C36.6917 13.045 36.7274 13.3612 36.7928 14.0942C36.6104 14.4199 36.4861 14.6611 36.3726 14.8814C36.2143 15.1884 36.077 15.4549 35.8322 15.8534L35.8351 15.8602L35.539 16.3668C35.5052 16.4202 35.4744 16.4569 35.4314 16.4725C35.3842 16.4978 35.3227 16.5023 35.2374 16.5023H35.0734L34.8296 17.3798L35.666 17.3954C36.1571 17.3931 36.4658 17.1447 36.6319 16.8107L37.1579 15.8355H37.1495L37.2049 15.7668C37.5587 14.9427 40.25 9.94748 40.25 9.94748ZM31.0667 21.4721H31.4216L31.1468 22.4424H30.7961L30.7132 22.742H29.4633L29.5484 22.4424H27.0119L27.2652 21.5439H27.5234L28.8544 16.7719L29.1198 15.8101H30.3932L30.2599 16.2949C30.2599 16.2949 30.5993 16.0308 30.9213 15.941C31.1874 15.8643 32.5019 15.8286 32.942 15.8186V15.8158H34.3034L34.3168 16.3636C34.3076 16.4567 34.3814 16.5002 34.5404 16.5002H34.8171L34.5641 17.4052H33.8289C33.1932 17.4541 32.9512 17.159 32.9675 16.8262L32.9541 16.2878L32.8158 16.7719H32.3801L31.0667 21.4721ZM30.3809 17.727C30.177 17.788 29.7974 17.9732 29.7974 17.9732L30.135 16.7719H31.1468L30.9027 17.6472C30.9027 17.6472 30.5901 17.667 30.3809 17.727ZM29.8733 19.5373C30.0825 19.4862 30.4003 19.4431 30.4003 19.4431L30.6465 18.5678H29.6295L29.2809 19.8179C29.2809 19.8179 29.6673 19.6049 29.8733 19.5373ZM29.8334 21.4832H28.8184L29.1127 20.4282H30.1245L29.8334 21.4832ZM33.7406 18.5678H32.2776L32.5267 17.6594H36.5981L36.3448 18.5678H34.9792L34.7658 19.3045H36.1356L35.908 20.1098H34.4285L34.165 20.4492H34.7658L34.9125 21.4641C34.9168 21.4905 34.92 21.5145 34.9229 21.5364L34.9229 21.5364C34.9311 21.5983 34.9371 21.643 34.9598 21.6749C34.9905 21.7104 35.1708 21.7294 35.2755 21.7294H35.4579L35.1802 22.7165H34.7178C34.6551 22.7165 34.5645 22.7123 34.4424 22.7066L34.4423 22.7066L34.3928 22.7043C34.2906 22.6946 34.2106 22.6436 34.1375 22.5971C34.1123 22.581 34.0879 22.5655 34.0637 22.5524C33.9784 22.5092 33.8524 22.3981 33.8217 22.2085L33.6771 21.1958L33.0036 22.1931C32.7902 22.5092 32.5012 22.75 32.012 22.75H31.0708L31.3181 21.868H31.6779C31.7824 21.868 31.8726 21.8237 31.9414 21.7859C32.0099 21.7549 32.0716 21.716 32.1404 21.6061L33.1225 20.1098H31.8254L32.048 19.3045H33.5304L33.7406 18.5678ZM19.9212 21.6883L20.2627 20.4592H21.6661L21.9225 19.5451H20.5178L20.7323 18.7886H22.105L22.3593 17.9034H18.9247L18.6756 18.7886H19.4559L19.2478 19.5451H18.4654L18.206 20.4748H18.9861L18.531 22.1009C18.4793 22.2821 18.5351 22.369 18.5882 22.4515C18.5981 22.467 18.608 22.4824 18.6171 22.4982C18.6756 22.5956 18.7349 22.6601 18.8682 22.6967C19.0058 22.7299 19.1 22.7498 19.2281 22.7498H20.8102L21.0921 21.7371L20.3908 21.8414C20.2554 21.8414 19.8803 21.8237 19.9212 21.6883ZM19.7266 16.5L20.0822 15.8046H21.4806L21.2347 16.3103H22.6433L22.388 17.2367H20.4636L20.2554 17.4318C20.2024 17.4872 20.1699 17.4967 20.1284 17.5088C20.0993 17.5173 20.0658 17.5271 20.0176 17.555C19.909 17.6138 19.6814 17.7314 19.3851 17.7314H18.7688L19.0169 16.8417H19.2024C19.3583 16.8417 19.4659 16.8263 19.5203 16.7897C19.582 16.7462 19.6505 16.652 19.7266 16.5ZM22.9232 21.7061C22.8904 21.655 22.9141 21.565 22.9642 21.3776L23.4902 19.4939H25.3613C25.634 19.4897 25.8308 19.4863 25.9589 19.4763C26.0964 19.4607 26.246 19.4076 26.409 19.3122C26.5773 19.2122 26.6634 19.1069 26.7361 18.9859C26.8172 18.8652 26.9474 18.6011 27.0592 18.1939L27.7203 15.8102L25.7786 15.8224C25.7786 15.8224 25.1807 15.9178 24.9174 16.0231C24.6518 16.1407 24.2723 16.469 24.2723 16.469L24.4476 15.8156H23.2482L21.5689 21.8413C21.5093 22.0753 21.4694 22.2451 21.4603 22.3471C21.4575 22.4442 21.5596 22.5404 21.6421 22.6181C21.653 22.6284 21.6635 22.6383 21.6734 22.6478C21.7522 22.7122 21.8605 22.7179 21.9723 22.7237L21.9723 22.7238L21.9723 22.7238C22.0031 22.7254 22.0342 22.727 22.065 22.7299C22.2148 22.7421 22.428 22.7498 22.7222 22.7498H23.644L23.9269 21.7161L23.1017 21.8004C23.0135 21.8004 22.9497 21.7493 22.9232 21.7061ZM25.7949 18.2217H23.8295L23.7085 18.65H25.4104C25.545 18.6327 25.6081 18.6412 25.6402 18.6455C25.6558 18.6475 25.6642 18.6487 25.6699 18.6454L25.7949 18.2217ZM24.2232 16.8007H26.2051L26.0626 17.311C26.0626 17.311 25.1285 17.3011 24.9789 17.3309C24.3206 17.4541 23.9361 17.8347 23.9361 17.8347L24.2232 16.8007ZM25.636 20.1952C25.6719 20.1662 25.6977 20.1276 25.7139 20.0643L25.8307 19.6604H26.7465L26.6347 20.2329C26.5874 20.4127 26.5465 20.5456 26.4213 20.6612C26.29 20.7819 26.1362 20.9085 25.7764 20.9085L25.11 20.9384L25.105 21.585C25.0991 21.7307 25.1269 21.7485 25.1519 21.7645C25.1582 21.7685 25.1642 21.7724 25.1696 21.7781C25.1995 21.8104 25.2264 21.8229 25.2544 21.8358L25.2567 21.8369L25.468 21.8235L26.1034 21.7857L25.8399 22.73H25.11C24.5995 22.73 24.2202 22.7166 24.0971 22.6113C23.974 22.5269 23.9578 22.4216 23.9596 22.2395L24.0069 19.717H25.1717L25.1551 20.2329H25.4352C25.5315 20.2329 25.5961 20.223 25.636 20.1952Z" fill="#FEFEFE"/>
</svg>
