<svg width="57" height="58" viewBox="0 0 57 58" fill="none" xmlns="http://www.w3.org/2000/svg">
<path d="M48.0501 37.3526C48.0501 42.9407 45.7676 47.9779 42.1078 51.5983C38.5267 55.1794 33.5682 57.3439 28.0982 57.3439C22.6675 57.3439 17.709 55.1401 14.0885 51.5983C10.4287 47.9779 8.14624 42.9407 8.14624 37.3526C8.14624 26.2944 17.0793 17.3613 28.0982 17.3613C39.117 17.3613 48.0501 26.3338 48.0501 37.3526Z" fill="#F1F3F9" stroke="#D6DCE8" stroke-miterlimit="10"/>
<path d="M50.1171 29.7699C51.0082 29.7699 51.7306 29.0475 51.7306 28.1564C51.7306 27.2653 51.0082 26.543 50.1171 26.543C49.226 26.543 48.5037 27.2653 48.5037 28.1564C48.5037 29.0475 49.226 29.7699 50.1171 29.7699Z" fill="#EAEEF9"/>
<path d="M48.6799 17.9518C49.2884 17.9518 49.7818 17.4585 49.7818 16.8499C49.7818 16.2414 49.2884 15.748 48.6799 15.748C48.0713 15.748 47.578 16.2414 47.578 16.8499C47.578 17.4585 48.0713 17.9518 48.6799 17.9518Z" fill="#EAEEF9"/>
<path d="M8.77583 24.2096C9.38438 24.2096 9.87771 23.7163 9.87771 23.1077C9.87771 22.4992 9.38438 22.0059 8.77583 22.0059C8.16728 22.0059 7.67395 22.4992 7.67395 23.1077C7.67395 23.7163 8.16728 24.2096 8.77583 24.2096Z" fill="#EAEEF9"/>
<path d="M2.04635 45.4599C3.17652 45.4599 4.0927 44.5437 4.0927 43.4135C4.0927 42.2834 3.17652 41.3672 2.04635 41.3672C0.916182 41.3672 0 42.2834 0 43.4135C0 44.5437 0.916182 45.4599 2.04635 45.4599Z" fill="#EAEEF9"/>
<path d="M43.2264 25.5819L41.5853 37.5031L39.5338 52.2333C39.0552 52.5073 38.5081 52.7129 37.9611 52.7129H14.3011C13.2753 52.7129 12.3864 52.3703 11.6342 51.8222C11.429 51.6852 11.2239 51.4797 11.0188 51.2741C10.1982 50.452 9.65112 49.2187 9.65112 47.917V22.4304C9.65112 21.2657 10.6085 20.375 11.7026 20.375H18.8826C19.3613 20.375 19.84 20.5805 20.2503 20.9916L22.5752 23.5266C22.9171 23.8691 23.3958 24.0747 23.8745 24.0747H41.8588C42.6794 24.0747 43.2948 24.7598 43.2264 25.5819Z" fill="#D6DCE8" stroke="#AAB2C5" stroke-miterlimit="10"/>
<path d="M13.1393 50.1093L15.054 27.9798C15.1223 27.1576 15.8062 26.541 16.6267 26.541H43.8426C44.5948 26.541 45.1418 27.1576 45.0734 27.9113L43.1588 46.7522L13.1393 50.1093Z" fill="white" stroke="#D6DCE8" stroke-miterlimit="10" stroke-linejoin="round"/>
<path d="M24.0118 47.7111L14.0281 50.0406L20.1824 33.118C20.4559 32.3644 21.1398 31.8848 21.9603 31.8848H46.099C46.988 31.8848 47.6034 32.8439 47.1931 33.6661L40.6285 47.0945L24.0118 47.7111Z" fill="white" stroke="#D6DCE8" stroke-miterlimit="10" stroke-linejoin="round"/>
<path d="M49.5181 39.1476L40.355 51.4799C40.1499 51.7539 39.8079 52.028 39.5344 52.2335C39.0557 52.5076 38.5087 52.7131 37.9616 52.7131H14.3016C13.2759 52.7131 12.387 52.3706 11.6348 51.8225L21.2082 40.6549H36.2521C36.9359 40.6549 37.6197 40.4494 38.1668 39.9698L40.7653 37.9829C41.0388 37.7774 41.3123 37.6404 41.5859 37.5033C41.9278 37.3663 42.3381 37.2978 42.68 37.2978H48.5608C49.5181 37.2293 50.0652 38.394 49.5181 39.1476Z" fill="#D6DCE8" stroke="#AAB2C5" stroke-miterlimit="10"/>
<path d="M44.4224 22.8473L33.6881 15.8944C33.0709 15.4907 32.8909 14.6699 33.2925 14.0459L39.9584 3.78271C40.363 3.16569 41.1845 2.98516 41.8087 3.386L52.5431 10.3389C53.1603 10.7427 53.3403 11.5634 52.9386 12.1874L46.2756 22.4576C45.8711 23.0746 45.0396 23.251 44.4224 22.8473Z" fill="#F1F3F9" stroke="#D6DCE8" stroke-miterlimit="10"/>
<path d="M44.8257 20.9244L35.3881 14.8108C35.1214 14.641 35.0494 14.2848 35.2196 14.0182L40.7319 5.53221C40.9021 5.26559 41.2586 5.19342 41.5253 5.3632L50.9629 11.4768C51.2296 11.6466 51.3016 12.0028 51.1315 12.2694L45.6191 20.7554C45.4489 21.022 45.0924 21.0942 44.8257 20.9244Z" fill="white"/>
<path d="M42.3823 14.7786L38.9375 12.5458L41.9221 11.7092L42.3823 14.7786Z" fill="#B0B7C4"/>
<path d="M45.2323 16.6235L40.2695 13.4122L44.5669 12.2103L45.2323 16.6235Z" fill="#CED6E2"/>
<path d="M41.6691 10.369C41.8312 10.7649 42.284 10.9543 42.6803 10.7919C43.0766 10.6296 43.2665 10.1771 43.1043 9.78125C42.9422 9.38538 42.4895 9.19603 42.0932 9.35835C41.6968 9.52066 41.507 9.97316 41.6691 10.369Z" fill="#B0B7C4"/>
<path d="M26.3643 10.6486C26.0666 9.5817 25.6499 8.32681 25.0297 7.39541C24.6898 6.88272 24.1717 6.5145 23.5604 6.37628C22.8896 6.22936 22.287 6.3726 21.6333 6.53276C20.4704 6.77673 19.316 7.13159 18.1871 7.56329C17.177 7.9271 15.9886 8.26481 15.1825 8.9874C14.0115 10.0586 14.2839 11.3898 14.7006 12.8153C14.9983 13.8822 15.415 15.1371 16.0352 16.0685C16.5365 16.8119 17.4112 17.2324 18.2856 17.1411C19.4401 17.0421 21.7489 16.3323 22.8608 15.9347C23.82 15.5878 24.898 15.2583 25.7042 14.621C27.0535 13.5759 26.832 12.2277 26.3643 10.6486ZM18.6046 10.5239C18.4771 10.1397 18.6383 9.94404 19.0374 10.039C20.1072 10.2809 21.211 10.5399 22.2808 10.7818C22.6799 10.8768 22.7564 11.1073 22.5019 11.4477C21.7892 12.2814 21.085 13.1408 20.3723 13.9745C20.0839 14.2978 19.8716 14.2545 19.7271 13.9044C19.6761 13.7508 18.7237 10.8824 18.6046 10.5239Z" fill="#D6DCE8" stroke="#AAB2C5" stroke-miterlimit="10"/>
<path d="M35.0351 50.5883L35.0352 50.5884L35.0369 50.5807C35.5456 48.2551 34.8189 45.7898 33.1153 44.0862L33.1088 44.0796L33.102 44.0733C32.1033 43.146 30.912 42.4556 29.529 42.1642C25.6771 41.3292 21.9443 43.8383 21.1479 47.6754C20.3506 51.517 22.8138 55.2871 26.6564 56.0866C28.2984 56.4506 29.9309 56.1564 31.2999 55.4719L31.2999 55.4719L31.3047 55.4694C32.6394 54.784 33.7292 53.7333 34.4201 52.3877L34.4244 52.3793L34.4284 52.3708C34.681 51.8295 34.8937 51.1896 35.0351 50.5883Z" fill="white" stroke="#AAB2C5"/>
<path d="M30.2009 47.551H29.6839V47.034C29.6839 46.2172 29.0383 45.4609 28.1108 45.4609C27.294 45.4609 26.5378 46.1065 26.5378 47.034V47.551H26.0208C25.204 47.551 24.4478 48.1966 24.4478 49.124C24.4478 49.5321 24.5947 49.938 24.9008 50.2441C25.2068 50.5502 25.6127 50.6971 26.0208 50.6971H26.5378V51.214C26.5378 52.0308 27.1834 52.7871 28.1108 52.7871C28.9277 52.7871 29.6839 52.1415 29.6839 51.214V50.6971H30.2009C31.0177 50.6971 31.7739 50.0515 31.7739 49.124C31.7739 48.1966 31.0177 47.551 30.2009 47.551Z" fill="white" stroke="#AAB2C5" stroke-width="2"/>
</svg>
