<svg width="46" height="28" viewBox="0 0 46 28" fill="none" xmlns="http://www.w3.org/2000/svg">
<path d="M2.33333 0H43.1667C44.4554 0 45.5 1.0029 45.5 2.24V25.76C45.5 26.9972 44.4554 28 43.1667 28H2.33333C1.04469 28 0 26.9972 0 25.76V2.24C0 1.0029 1.04469 0 2.33333 0Z" fill="#0E4595"/>
<path fill-rule="evenodd" clip-rule="evenodd" d="M30.2014 8.80223C29.6094 8.58013 28.6817 8.3418 27.5233 8.3418C24.5707 8.3418 22.4909 9.8286 22.4732 11.9596C22.4565 13.5348 23.958 14.4136 25.0914 14.938C26.2545 15.4753 26.6455 15.818 26.64 16.2978C26.6326 17.0326 25.7112 17.3683 24.8523 17.3683C23.6564 17.3683 23.021 17.2022 22.0396 16.7929L21.6546 16.6187L21.2352 19.0728C21.9331 19.3788 23.2238 19.6439 24.5637 19.6576C27.7048 19.6576 29.7437 18.1878 29.767 15.9122C29.7782 14.6651 28.9821 13.7161 27.2582 12.9337C26.2138 12.4266 25.5741 12.0881 25.5809 11.5747C25.5809 11.119 26.1223 10.6317 27.2921 10.6317C28.2692 10.6166 28.9771 10.8297 29.5286 11.0517L29.7964 11.1783L30.2014 8.80223ZM16.4192 19.5285L18.2874 8.56591H21.2756L19.406 19.5285H16.4192ZM35.5817 8.56574H37.8907V8.5654L40.3092 19.5212H37.5365C37.5365 19.5212 37.2624 18.2623 37.173 17.8785C36.9422 17.8785 35.9785 17.8772 35.0721 17.876L35.0708 17.876L35.0688 17.876C34.2651 17.8749 33.5072 17.8738 33.3461 17.8738C33.2301 18.1704 32.7171 19.5212 32.7171 19.5212H29.5794L34.017 9.47484C34.3311 8.76101 34.8664 8.56574 35.5817 8.56574ZM34.2273 15.6447C34.4744 15.0131 35.4179 12.5802 35.4179 12.5802C35.4094 12.5942 35.4649 12.4502 35.5416 12.2512L35.5416 12.2511L35.5417 12.2508C35.6257 12.0329 35.7352 11.749 35.814 11.5339L36.0159 12.4791C36.0159 12.4791 36.5882 15.096 36.7077 15.6447H34.2273ZM10.9571 16.0417L13.8825 8.56574V8.56563H17.0477L12.3435 19.5075L9.18193 19.5111L6.50703 9.92385C8.40392 10.8738 10.1007 12.7712 10.6453 14.5225L10.9571 16.0417Z" fill="white"/>
<path d="M8.22752 8.56565H3.40922L3.37109 8.79374C7.11961 9.70117 9.59997 11.8941 10.6298 14.5287L9.58205 9.49094C9.40117 8.79682 8.87661 8.58968 8.22763 8.56543" fill="#F2AE14"/>
</svg>
