<svg width="24" height="24" viewBox="0 0 24 24" fill="none" xmlns="http://www.w3.org/2000/svg">
<rect width="24" height="24" fill="white"/>
<circle cx="12" cy="12" r="12" fill="#005B9C"/>
<path fill-rule="evenodd" clip-rule="evenodd" d="M14.2962 7.5L11.6056 14.7217L11.2875 13.1665L11.2878 13.1671L10.3379 8.44569C10.3379 8.44569 10.2234 7.5 8.99929 7.5H4.5519L4.5 7.67751C4.5 7.67751 5.8604 7.95164 7.45159 8.87822L9.90333 18H12.8436L17.3333 7.5H14.2962Z" fill="white"/>
<path fill-rule="evenodd" clip-rule="evenodd" d="M11.5 13.3333L10.5205 8.47343C10.5205 8.47343 10.4024 7.5 9.13996 7.5H4.55352L4.5 7.68272C4.5 7.68272 6.70456 8.12476 8.81942 9.77962C10.8407 11.3616 11.5 13.3333 11.5 13.3333Z" fill="#EE9F3F"/>
</svg>
