<svg width="24" height="24" viewBox="0 0 24 24" fill="none" xmlns="http://www.w3.org/2000/svg">
<path d="M12 0C9.62663 0 7.30655 0.703787 5.33316 2.02236C3.35977 3.34094 1.8217 5.21508 0.913451 7.4078C0.00519921 9.60051 -0.232441 12.0133 0.230582 14.3411C0.693605 16.6689 1.83649 18.807 3.51472 20.4853C5.19295 22.1635 7.33115 23.3064 9.65892 23.7694C11.9867 24.2324 14.3995 23.9948 16.5922 23.0865C18.7849 22.1783 20.6591 20.6402 21.9776 18.6668C23.2962 16.6934 24 14.3734 24 12C23.9964 8.8185 22.731 5.76834 20.4813 3.51868C18.2317 1.26902 15.1815 0.00359025 12 0ZM12 22.5882C9.90585 22.5882 7.85872 21.9672 6.1175 20.8038C4.37627 19.6403 3.01915 17.9867 2.21775 16.0519C1.41635 14.1172 1.20667 11.9883 1.61522 9.93434C2.02377 7.88042 3.0322 5.99378 4.51299 4.51299C5.99378 3.03219 7.88042 2.02376 9.93434 1.61521C11.9883 1.20666 14.1172 1.41635 16.0519 2.21775C17.9867 3.01914 19.6403 4.37626 20.8038 6.11749C21.9672 7.85872 22.5882 9.90584 22.5882 12C22.5851 14.8072 21.4685 17.4985 19.4835 19.4835C17.4985 21.4685 14.8072 22.585 12 22.5882ZM16.4706 14.3529C16.4697 15.1639 16.1471 15.9414 15.5737 16.5149C15.0002 17.0883 14.2227 17.4109 13.4118 17.4118H12.7059V18.5882C12.7059 18.7754 12.6315 18.955 12.4991 19.0874C12.3668 19.2197 12.1872 19.2941 12 19.2941C11.8128 19.2941 11.6332 19.2197 11.5009 19.0874C11.3685 18.955 11.2941 18.7754 11.2941 18.5882V17.4118H9.17647C8.98926 17.4118 8.80972 17.3374 8.67734 17.205C8.54496 17.0726 8.47059 16.8931 8.47059 16.7059C8.47059 16.5187 8.54496 16.3391 8.67734 16.2067C8.80972 16.0744 8.98926 16 9.17647 16H13.4118C13.8486 16 14.2675 15.8265 14.5764 15.5176C14.8853 15.2087 15.0588 14.7898 15.0588 14.3529C15.0588 13.9161 14.8853 13.4972 14.5764 13.1883C14.2675 12.8794 13.8486 12.7059 13.4118 12.7059H10.5882C9.77699 12.7059 8.99896 12.3836 8.42532 11.81C7.85168 11.2363 7.52942 10.4583 7.52942 9.64706C7.52942 8.83581 7.85168 8.05778 8.42532 7.48414C8.99896 6.9105 9.77699 6.58823 10.5882 6.58823H11.2941V5.41176C11.2941 5.22455 11.3685 5.04501 11.5009 4.91263C11.6332 4.78025 11.8128 4.70588 12 4.70588C12.1872 4.70588 12.3668 4.78025 12.4991 4.91263C12.6315 5.04501 12.7059 5.22455 12.7059 5.41176V6.58823H14.8235C15.0107 6.58823 15.1903 6.6626 15.3227 6.79498C15.455 6.92736 15.5294 7.1069 15.5294 7.29412C15.5294 7.48133 15.455 7.66087 15.3227 7.79325C15.1903 7.92563 15.0107 8 14.8235 8H10.5882C10.1514 8 9.73248 8.17353 9.42359 8.48241C9.11471 8.79129 8.94118 9.21023 8.94118 9.64706C8.94118 10.0839 9.11471 10.5028 9.42359 10.8117C9.73248 11.1206 10.1514 11.2941 10.5882 11.2941H13.4118C14.2227 11.295 15.0002 11.6176 15.5737 12.191C16.1471 12.7645 16.4697 13.542 16.4706 14.3529Z" fill="black"/>
</svg>
