<svg width="24" height="24" viewBox="0 0 24 24" fill="none" xmlns="http://www.w3.org/2000/svg">
<path fill-rule="evenodd" clip-rule="evenodd" d="M3.49993 8.00081C3.50013 7.05272 3.7454 6.12079 4.21195 5.29544C4.67849 4.47009 5.35047 3.77936 6.16267 3.29027C6.97486 2.80119 7.89969 2.53036 8.84741 2.50407C9.79514 2.47778 10.7336 2.69692 11.5716 3.14023C12.4097 3.58353 13.1189 4.23595 13.6305 5.03416C14.1421 5.83238 14.4386 6.74928 14.4914 7.6959C14.5442 8.64252 14.3513 9.5867 13.9316 10.4368C13.5119 11.2869 12.8795 12.0141 12.0959 12.5478C13.7834 13.1667 15.2471 14.2765 16.2986 15.7343C17.35 17.1921 17.9412 18.9312 17.9959 20.7278C17.9989 20.8263 17.9824 20.9244 17.9474 21.0165C17.9125 21.1087 17.8597 21.193 17.7922 21.2647C17.6557 21.4096 17.4673 21.4943 17.2684 21.5003C17.0695 21.5063 16.8764 21.433 16.7315 21.2965C16.5866 21.1601 16.5019 20.9717 16.4959 20.7728C16.4364 18.8243 15.6205 16.9755 14.2211 15.6182C12.8217 14.261 10.9489 13.5019 8.99943 13.5019C7.04997 13.5019 5.17712 14.261 3.77776 15.6182C2.37839 16.9755 1.56248 18.8243 1.50293 20.7728C1.49292 20.9686 1.40661 21.1528 1.26249 21.2857C1.11837 21.4187 0.927906 21.4899 0.731901 21.4842C0.535896 21.4784 0.34994 21.3961 0.213869 21.255C0.0777983 21.1138 0.00243635 20.9249 0.00392798 20.7288C0.0584793 18.932 0.649535 17.1927 1.70101 15.7347C2.75249 14.2767 4.21627 13.1668 5.90393 12.5478C5.16263 12.0436 4.556 11.3656 4.13697 10.573C3.71793 9.78042 3.49922 8.89734 3.49993 8.00081ZM8.99993 4.00081C7.93906 4.00081 6.92165 4.42223 6.1715 5.17238C5.42136 5.92253 4.99993 6.93994 4.99993 8.00081C4.99993 9.06167 5.42136 10.0791 6.1715 10.8292C6.92165 11.5794 7.93906 12.0008 8.99993 12.0008C10.0608 12.0008 11.0782 11.5794 11.8284 10.8292C12.5785 10.0791 12.9999 9.06167 12.9999 8.00081C12.9999 6.93994 12.5785 5.92253 11.8284 5.17238C11.0782 4.42223 10.0608 4.00081 8.99993 4.00081Z" fill="black"/>
<path d="M17.2901 8.00062C17.1421 8.00062 16.9981 8.01062 16.8561 8.03062C16.7569 8.04838 16.6552 8.04598 16.557 8.02357C16.4588 8.00117 16.3662 7.95921 16.2845 7.90021C16.2029 7.84121 16.134 7.76637 16.0819 7.68016C16.0298 7.59395 15.9957 7.49814 15.9814 7.39843C15.9672 7.29873 15.9732 7.19717 15.999 7.09983C16.0249 7.00249 16.0701 6.91135 16.1319 6.83185C16.1938 6.75235 16.271 6.68613 16.359 6.63712C16.447 6.58812 16.5439 6.55734 16.6441 6.54662C17.6386 6.40283 18.6528 6.59382 19.5269 7.08955C20.4011 7.58527 21.0856 8.35759 21.4727 9.28495C21.8598 10.2123 21.9276 11.2421 21.6653 12.2122C21.4031 13.1823 20.8257 14.0376 20.0241 14.6436C21.2025 15.1713 22.203 16.0286 22.9049 17.1123C23.6069 18.1959 23.9803 19.4595 23.9801 20.7506C23.9801 20.9495 23.9011 21.1403 23.7604 21.281C23.6197 21.4216 23.429 21.5006 23.2301 21.5006C23.0312 21.5006 22.8404 21.4216 22.6997 21.281C22.5591 21.1403 22.4801 20.9495 22.4801 20.7506C22.48 19.6348 22.1204 18.5486 21.4547 17.6531C20.789 16.7576 19.8526 16.1003 18.7841 15.7786L18.2501 15.6186V13.9426L18.6601 13.7336C19.2678 13.4258 19.7541 12.9221 20.0404 12.3039C20.3267 11.6857 20.3962 10.989 20.2379 10.3264C20.0796 9.66376 19.7025 9.07384 19.1677 8.65185C18.6328 8.22986 17.9713 8.00044 17.2901 8.00062Z" fill="black"/>
</svg>
