<svg width="21" height="21" viewBox="0 0 21 21" fill="none" xmlns="http://www.w3.org/2000/svg">
<path d="M19.6 10.8H12.1C11.4 10.8 10.8 11.4 10.8 12.1V19.6C10.8 20.3 11.4 20.9 12.1 20.9H19.6C20.3 20.9 20.9 20.3 20.9 19.6V12.1C20.9 11.3 20.3 10.8 19.6 10.8ZM15.2 11.8H16.3V14.3C16 14.2 15.5 14.2 15.2 14.3V11.8ZM19.9 19.6C19.9 19.8 19.8 19.9 19.6 19.9H12.1C11.9 19.9 11.8 19.8 11.8 19.6V12.1C11.8 11.9 11.9 11.8 12.1 11.8H14.2V14.5C14.2 14.8 14.3 15.1 14.6 15.3C14.8 15.5 15.2 15.5 15.5 15.3C15.7 15.2 16 15.2 16.1 15.3C16.2 15.4 16.4 15.4 16.5 15.4C16.6001 15.4 16.8 15.4 16.9001 15.3C17.2001 15.1 17.3001 14.9 17.3001 14.5V11.8H19.6001C19.8 11.8 19.9001 11.9 19.9001 12.1L19.9 19.6ZM8.90002 10.8H1.30001C0.6 10.8 0 11.4 0 12.1V19.6C0 20.3 0.6 20.9 1.30001 20.9H8.80001C9.50002 20.9 10.1 20.3 10.1 19.6V12.1C10.2 11.3 9.60002 10.8 8.90002 10.8ZM4.40002 11.8H5.50001V14.3C5.20001 14.2 4.70002 14.2 4.40002 14.3V11.8ZM9.20002 19.6C9.20002 19.8 9.10001 19.9 8.90002 19.9H1.30001C1.10002 19.9 1.00001 19.8 1.00001 19.6V12.1C1.00001 11.9 1.10002 11.8 1.30001 11.8H3.40001V14.5C3.40001 14.8 3.50002 15.1 3.80002 15.3C4.00001 15.5 4.40002 15.5 4.70002 15.3C4.90001 15.2 5.20001 15.2 5.30002 15.3C5.40002 15.4 5.60002 15.4 5.70002 15.4C5.80003 15.4 6.00002 15.4 6.10003 15.3C6.40003 15.1 6.50004 14.9 6.50004 14.5V11.8H8.80003C9.00002 11.8 9.10003 11.9 9.10003 12.1V19.6H9.20002ZM6.70003 10.2H14.2C14.9 10.2 15.5 9.60002 15.5 8.90002V1.30001C15.5 0.6 14.9 0 14.2 0H6.70003C6.00002 0 5.40002 0.6 5.40002 1.30001V8.80001C5.40002 9.6 6.00002 10.2 6.70003 10.2V10.2ZM6.40003 1.30003C6.40003 1.10004 6.50004 1.00003 6.70003 1.00003H14.2C14.4 1.00003 14.5 1.10004 14.5 1.30003V8.80003C14.5 9.00002 14.4 9.10003 14.2 9.10003H6.70003C6.50004 9.10003 6.40003 9.00002 6.40003 8.80003V1.30003Z" fill="black"/>
</svg>
