<svg width="18" height="20" viewBox="0 0 18 20" fill="none" xmlns="http://www.w3.org/2000/svg">
<path fill-rule="evenodd" clip-rule="evenodd" d="M3.49993 6.00081C3.50013 5.05272 3.7454 4.12079 4.21195 3.29544C4.67849 2.47009 5.35047 1.77936 6.16267 1.29027C6.97486 0.801187 7.89969 0.530359 8.84741 0.504069C9.79514 0.477778 10.7336 0.69692 11.5716 1.14023C12.4097 1.58353 13.1189 2.23595 13.6305 3.03416C14.1421 3.83238 14.4386 4.74928 14.4914 5.6959C14.5442 6.64252 14.3513 7.5867 13.9316 8.43682C13.5119 9.28693 12.8795 10.0141 12.0959 10.5478C13.7834 11.1667 15.2471 12.2765 16.2986 13.7343C17.35 15.1921 17.9412 16.9312 17.9959 18.7278C17.9989 18.8263 17.9824 18.9244 17.9474 19.0165C17.9125 19.1087 17.8597 19.193 17.7922 19.2647C17.6557 19.4096 17.4673 19.4943 17.2684 19.5003C17.0695 19.5063 16.8764 19.433 16.7315 19.2965C16.5866 19.1601 16.5019 18.9717 16.4959 18.7728C16.4364 16.8243 15.6205 14.9755 14.2211 13.6182C12.8217 12.261 10.9489 11.5019 8.99943 11.5019C7.04997 11.5019 5.17712 12.261 3.77776 13.6182C2.37839 14.9755 1.56248 16.8243 1.50293 18.7728C1.49292 18.9686 1.40661 19.1528 1.26249 19.2857C1.11837 19.4187 0.927906 19.4899 0.731901 19.4842C0.535896 19.4784 0.34994 19.3961 0.213869 19.255C0.0777983 19.1138 0.00243635 18.9249 0.00392798 18.7288C0.0584793 16.932 0.649535 15.1927 1.70101 13.7347C2.75249 12.2767 4.21627 11.1668 5.90393 10.5478C5.16263 10.0436 4.556 9.36558 4.13697 8.573C3.71793 7.78042 3.49922 6.89734 3.49993 6.00081ZM8.99993 2.00081C7.93906 2.00081 6.92165 2.42223 6.1715 3.17238C5.42136 3.92253 4.99993 4.93994 4.99993 6.00081C4.99993 7.06167 5.42136 8.07909 6.1715 8.82923C6.92165 9.57938 7.93906 10.0008 8.99993 10.0008C10.0608 10.0008 11.0782 9.57938 11.8284 8.82923C12.5785 8.07909 12.9999 7.06167 12.9999 6.00081C12.9999 4.93994 12.5785 3.92253 11.8284 3.17238C11.0782 2.42223 10.0608 2.00081 8.99993 2.00081Z" fill="black"/>
</svg>
