<svg width="26" height="26" viewBox="0 0 26 26" fill="none" xmlns="http://www.w3.org/2000/svg">
<path d="M21.8 1H4.2C3.35131 1 2.53737 1.33714 1.93726 1.93726C1.33714 2.53737 1 3.35131 1 4.2V21.8C1 22.6487 1.33714 23.4626 1.93726 24.0627C2.53737 24.6629 3.35131 25 4.2 25H21.8C22.6487 25 23.4626 24.6629 24.0627 24.0627C24.6629 23.4626 25 22.6487 25 21.8V4.2C25 3.35131 24.6629 2.53737 24.0627 1.93726C23.4626 1.33714 22.6487 1 21.8 1Z" stroke="white" stroke-width="1.5" stroke-miterlimit="10"/>
<path d="M13 25V1M13 10.3333H25" stroke="white" stroke-width="1.5" stroke-miterlimit="10" stroke-linecap="round"/>
</svg>
