<svg width="18" height="25" viewBox="0 0 18 25" fill="none" xmlns="http://www.w3.org/2000/svg">
<path d="M10.3549 12.5L17.6981 6.0242C17.8345 5.90388 17.9307 5.74531 17.9741 5.5695C18.0175 5.3937 18.006 5.20896 17.9411 5.03977C17.8763 4.87059 17.7611 4.72496 17.6109 4.62218C17.4608 4.51941 17.2826 4.46434 17.1002 4.46429H14.4002V0H12.6001V6.25H14.7332L9.00009 11.3054L3.26703 6.25H5.40005V0H3.60003V4.46429H0.9C0.717533 4.46431 0.539381 4.51935 0.389168 4.62211C0.238954 4.72487 0.123774 4.8705 0.0588982 5.03969C-0.00597726 5.20888 -0.0174832 5.39364 0.0259066 5.56946C0.0692964 5.74528 0.165532 5.90387 0.301853 6.0242L7.64513 12.5L0.301763 18.9758C0.165436 19.0961 0.0691985 19.2547 0.0258113 19.4306C-0.0175758 19.6064 -0.00606276 19.7912 0.0588239 19.9604C0.123711 20.1295 0.238905 20.2752 0.389133 20.3779C0.539361 20.4807 0.717525 20.5357 0.9 20.5357H3.60003V25H5.40005V18.75H3.26703L9.00009 13.6946L14.7332 18.75H12.6001V25H14.4002V20.5357H17.1002C17.2826 20.5357 17.4608 20.4806 17.611 20.3779C17.7612 20.2751 17.8763 20.1295 17.9412 19.9603C18.0061 19.7911 18.0176 19.6063 17.9742 19.4305C17.9308 19.2547 17.8346 19.0961 17.6982 18.9758L10.3549 12.5Z" fill="white"/>
</svg>
