<svg width="22" height="21" viewBox="0 0 22 21" fill="none" xmlns="http://www.w3.org/2000/svg">
<path d="M20.3499 12.7683L21.5771 6.0183C21.6164 5.80213 21.6077 5.57998 21.5517 5.36754C21.4957 5.1551 21.3937 4.95756 21.2529 4.78889C21.1121 4.62021 20.936 4.48452 20.737 4.3914C20.538 4.29828 20.321 4.25001 20.1013 4.25H4.37595L3.91809 1.7317C3.8554 1.38601 3.67329 1.07331 3.40356 0.848197C3.13382 0.623081 2.79359 0.499845 2.44226 0.5H0.75C0.551088 0.5 0.360322 0.579018 0.21967 0.71967C0.0790176 0.860322 0 1.05109 0 1.25C0 1.44891 0.0790176 1.63968 0.21967 1.78033C0.360322 1.92098 0.551088 2 0.75 2H2.44226L4.94559 15.7683C4.96797 15.8901 5.00535 16.0086 5.05687 16.1213C4.6824 16.4376 4.40403 16.8526 4.25332 17.3191C4.10262 17.7856 4.08559 18.285 4.20416 18.7607C4.32274 19.2364 4.57219 19.6693 4.92424 20.0105C5.27628 20.3517 5.71685 20.5874 6.19602 20.691C6.67519 20.7946 7.1738 20.7619 7.63534 20.5967C8.09688 20.4314 8.50291 20.1401 8.8074 19.7559C9.11189 19.3717 9.30269 18.9099 9.35815 18.4228C9.41362 17.9357 9.33154 17.4428 9.12122 17H15.6288C15.3851 17.5139 15.3149 18.093 15.4287 18.6502C15.5426 19.2074 15.8344 19.7126 16.2602 20.0896C16.6859 20.4667 17.2227 20.6953 17.7895 20.7409C18.3564 20.7866 18.9228 20.6469 19.4035 20.3428C19.8841 20.0388 20.253 19.5869 20.4546 19.0551C20.6562 18.5233 20.6796 17.9404 20.5213 17.3941C20.363 16.8479 20.0315 16.3678 19.5768 16.0262C19.1221 15.6846 18.5687 15.4999 18 15.5H6.42142L6.14868 14H18.8741C19.2254 14.0002 19.5656 13.8769 19.8353 13.6518C20.1051 13.4267 20.2872 13.114 20.3499 12.7683ZM7.875 18.125C7.875 18.3475 7.80902 18.565 7.6854 18.75C7.56179 18.935 7.38609 19.0792 7.18052 19.1644C6.97495 19.2495 6.74875 19.2718 6.53052 19.2284C6.31229 19.185 6.11184 19.0778 5.9545 18.9205C5.79717 18.7632 5.69002 18.5627 5.64662 18.3445C5.60321 18.1262 5.62549 17.9 5.71064 17.6945C5.79578 17.4889 5.93998 17.3132 6.12498 17.1896C6.30999 17.066 6.5275 17 6.75 17C7.04827 17.0003 7.33422 17.119 7.54513 17.3299C7.75603 17.5408 7.87467 17.8267 7.875 18.125ZM19.125 18.125C19.125 18.3475 19.059 18.565 18.9354 18.75C18.8118 18.935 18.6361 19.0792 18.4305 19.1644C18.2249 19.2495 17.9988 19.2718 17.7805 19.2284C17.5623 19.185 17.3618 19.0778 17.2045 18.9205C17.0472 18.7632 16.94 18.5627 16.8966 18.3445C16.8532 18.1262 16.8755 17.9 16.9606 17.6945C17.0458 17.4889 17.19 17.3132 17.375 17.1896C17.56 17.066 17.7775 17 18 17C18.2983 17.0003 18.5842 17.119 18.7951 17.3299C19.006 17.5408 19.1247 17.8267 19.125 18.125ZM4.64868 5.75H20.1013L18.8741 12.5H5.87595L4.64868 5.75Z" fill="white"/>
</svg>
