<svg width="23" height="24" viewBox="0 0 23 24" fill="none" xmlns="http://www.w3.org/2000/svg">
<path d="M11.4931 24C5.14512 23.9976 0 18.6756 0 12.1109C0 5.54486 5.14745 0.221967 11.4972 0.221967H12.2679V11.341H23V12.1316C23 12.1391 23 12.1479 23 12.1567C23 15.4307 21.7147 18.3942 19.6375 20.5372L19.0955 21.0966L19.0679 21.068C17.0567 22.8892 14.4054 24 11.5032 24H11.4925H11.493H11.4931ZM10.7347 1.83798C5.57132 2.26307 1.53698 6.70063 1.53698 12.1126C1.53698 17.804 5.99872 22.4178 11.5025 22.4178C13.9815 22.4178 16.249 21.4819 17.9927 19.9331L17.9794 19.9445L10.7347 12.4624L10.7347 1.83798ZM13.3533 12.9264L19.0771 18.8337C20.3996 17.2388 21.2638 15.2016 21.4389 12.9631L21.4413 12.9264H13.3533ZM18.8195 8.86774H15.4057V7.28233H18.8195C19.2034 7.28233 19.5146 6.96054 19.5146 6.5636C19.5146 6.16666 19.2034 5.84487 18.8196 5.84487H17.7924C16.5708 5.82877 15.5865 4.80097 15.5865 3.53544C15.5865 2.25989 16.5864 1.22585 17.82 1.22585C17.8297 1.22585 17.8394 1.22589 17.849 1.22601H17.8476H21.2624V2.81139H17.8169C17.8108 2.81121 17.8036 2.81109 17.7964 2.81109C17.4126 2.81109 17.1014 3.13287 17.1014 3.52982V3.53015C17.1025 3.92985 17.4136 4.2541 17.799 4.25944H18.8216C20.0522 4.25944 21.0498 5.29105 21.0498 6.56358C21.0498 7.83611 20.0522 8.86771 18.8216 8.86771L18.8195 8.86774ZM19.0956 2.01873H17.5624V0H19.0955L19.0956 2.01873ZM19.0956 10.0938H17.5624V8.07502H19.0955L19.0956 10.0938Z" fill="black"/>
</svg>
