<svg width="24" height="32" viewBox="0 0 24 32" fill="none" xmlns="http://www.w3.org/2000/svg">
<path d="M24 9.71428V30.9718C24 31.2242 23.7943 31.4286 23.5403 31.4286H0.45974C0.205714 31.4286 0 31.2242 0 30.9718V0.456721C0 0.204363 0.205714 0 0.45974 0H13.7143L24 9.71428Z" fill="#D6ADFF"/>
<path d="M24 9.71429H13.9345C13.8125 9.71429 13.7143 9.61944 13.7143 9.50164V0L24 9.71429Z" fill="#33065F"/>
<path d="M5.42858 27.4266C3.37723 27.4266 1.71429 25.7637 1.71429 23.7123C1.71429 21.661 3.37723 19.998 5.42858 19.998C7.4799 19.998 9.14286 21.661 9.14286 23.7123C9.14286 25.7637 7.4799 27.4266 5.42858 27.4266ZM5.42858 26.6838C7.06966 26.6838 8.4 25.3534 8.4 23.7123C8.4 22.0713 7.06966 20.7409 5.42858 20.7409C3.7875 20.7409 2.45714 22.0713 2.45714 23.7123C2.45714 25.3534 3.7875 26.6838 5.42858 26.6838ZM4.12857 24.4552H6.17143C6.27398 24.4552 6.35715 24.3721 6.35715 24.2695C6.35715 24.1669 6.27398 24.0838 6.17143 24.0838H4.68572C4.17288 24.0838 3.75714 23.668 3.75714 23.1552C3.75714 22.6424 4.17288 22.2266 4.68572 22.2266H5.05715V21.4838H5.8V22.2266H6.72858V22.9695H4.68572C4.58315 22.9695 4.5 23.0526 4.5 23.1552C4.5 23.2578 4.58315 23.3409 4.68572 23.3409H6.17143C6.68426 23.3409 7.1 23.7566 7.1 24.2695C7.1 24.7823 6.68426 25.198 6.17143 25.198H5.8V25.9409H5.05715V25.198H4.12857V24.4552Z" fill="#33065F"/>
<path fill-rule="evenodd" clip-rule="evenodd" d="M12 20.1434C12 19.9067 12.1919 19.7148 12.4286 19.7148H19.5714C19.8081 19.7148 20 19.9067 20 20.1434C20 20.3801 19.8081 20.572 19.5714 20.572H12.4286C12.1919 20.572 12 20.3801 12 20.1434ZM12 22.4291C12 22.1924 12.1919 22.0006 12.4286 22.0006H19.5714C19.8081 22.0006 20 22.1924 20 22.4291C20 22.6658 19.8081 22.8577 19.5714 22.8577H12.4286C12.1919 22.8577 12 22.6658 12 22.4291ZM12 24.7148C12 24.4782 12.1919 24.2863 12.4286 24.2863H19.5714C19.8081 24.2863 20 24.4782 20 24.7148C20 24.9515 19.8081 25.1434 19.5714 25.1434H12.4286C12.1919 25.1434 12 24.9515 12 24.7148ZM12 27.0006C12 26.7639 12.1919 26.572 12.4286 26.572H17.2857C17.5224 26.572 17.7143 26.7639 17.7143 27.0006C17.7143 27.2373 17.5224 27.4291 17.2857 27.4291H12.4286C12.1919 27.4291 12 27.2373 12 27.0006Z" fill="#33065F"/>
</svg>
