<svg width="24" height="31" viewBox="0 0 24 31" fill="none" xmlns="http://www.w3.org/2000/svg">
<path d="M23.6727 9.58182V30.5495C23.6727 30.7984 23.4698 31 23.2193 31H0.453471C0.202909 31 0 30.7984 0 30.5495V0.450493C0 0.201576 0.202909 0 0.453471 0H13.5273L23.6727 9.58182Z" fill="#98CAE6"/>
<path d="M23.6727 9.58182H13.7445C13.6242 9.58182 13.5273 9.48826 13.5273 9.37208V0L23.6727 9.58182Z" fill="#0A378E"/>
<path d="M3.2119 21.8514C3.82545 21.3209 4.62524 21 5.5 21C7.43298 21 9 22.567 9 24.5C9 25.2476 8.76557 25.9405 8.36622 26.5092L7.25 24.5H8.3C8.3 22.9536 7.0464 21.7 5.5 21.7C4.74744 21.7 4.06422 21.9969 3.56108 22.4799L3.2119 21.8514ZM7.78809 27.1486C7.17454 27.6791 6.37475 28 5.5 28C3.567 28 2 26.433 2 24.5C2 23.7524 2.23443 23.0595 2.63378 22.4908L3.75 24.5H2.7C2.7 26.0464 3.9536 27.3 5.5 27.3C6.25257 27.3 6.93577 27.0031 7.43893 26.5201L7.78809 27.1486Z" fill="#0A378E"/>
</svg>
