<svg width="24" height="32" viewBox="0 0 24 32" fill="none" xmlns="http://www.w3.org/2000/svg">
<path d="M24 9.71429V30.9719C24 31.2242 23.7943 31.4286 23.5403 31.4286H0.45974C0.205714 31.4286 0 31.2242 0 30.9719V0.456721C0 0.204363 0.205714 0 0.45974 0H13.7143L24 9.71429Z" fill="#98DE6B"/>
<path d="M24 9.71429H13.9345C13.8125 9.71429 13.7143 9.61944 13.7143 9.50164V0L24 9.71429Z" fill="#154406"/>
<path fill-rule="evenodd" clip-rule="evenodd" d="M2.28574 19.5711C2.28574 19.3345 2.47761 19.1426 2.71431 19.1426H13.2857C13.5224 19.1426 13.7143 19.3345 13.7143 19.5711C13.7143 19.8078 13.5224 19.9997 13.2857 19.9997H2.71431C2.47761 19.9997 2.28574 19.8078 2.28574 19.5711Z" fill="#154406"/>
<path fill-rule="evenodd" clip-rule="evenodd" d="M14.8572 19.5711C14.8572 19.3345 15.0491 19.1426 15.2857 19.1426H16.7143C16.951 19.1426 17.1429 19.3345 17.1429 19.5711C17.1429 19.8078 16.951 19.9997 16.7143 19.9997H15.2857C15.0491 19.9997 14.8572 19.8078 14.8572 19.5711Z" fill="#154406"/>
<path fill-rule="evenodd" clip-rule="evenodd" d="M2.28574 21.8563C2.28574 21.6196 2.47761 21.4277 2.71431 21.4277H13.2857C13.5224 21.4277 13.7143 21.6196 13.7143 21.8563C13.7143 22.093 13.5224 22.2849 13.2857 22.2849H2.71431C2.47761 22.2849 2.28574 22.093 2.28574 21.8563Z" fill="#154406"/>
<path fill-rule="evenodd" clip-rule="evenodd" d="M14.8572 21.8563C14.8572 21.6196 15.0491 21.4277 15.2857 21.4277H16.7143C16.951 21.4277 17.1429 21.6196 17.1429 21.8563C17.1429 22.093 16.951 22.2849 16.7143 22.2849H15.2857C15.0491 22.2849 14.8572 22.093 14.8572 21.8563Z" fill="#154406"/>
<path fill-rule="evenodd" clip-rule="evenodd" d="M2.28574 24.1434C2.28574 23.9067 2.47761 23.7148 2.71431 23.7148H13.2857C13.5224 23.7148 13.7143 23.9067 13.7143 24.1434C13.7143 24.3801 13.5224 24.572 13.2857 24.572H2.71431C2.47761 24.572 2.28574 24.3801 2.28574 24.1434Z" fill="#154406"/>
<path fill-rule="evenodd" clip-rule="evenodd" d="M14.8572 24.1434C14.8572 23.9067 15.0491 23.7148 15.2857 23.7148H16.7143C16.951 23.7148 17.1429 23.9067 17.1429 24.1434C17.1429 24.3801 16.951 24.572 16.7143 24.572H15.2857C15.0491 24.572 14.8572 24.3801 14.8572 24.1434Z" fill="#154406"/>
<path fill-rule="evenodd" clip-rule="evenodd" d="M2.28574 26.4286C2.28574 26.1919 2.47761 26 2.71431 26H13.2857C13.5224 26 13.7143 26.1919 13.7143 26.4286C13.7143 26.6653 13.5224 26.8571 13.2857 26.8571H2.71431C2.47761 26.8571 2.28574 26.6653 2.28574 26.4286Z" fill="#154406"/>
<path fill-rule="evenodd" clip-rule="evenodd" d="M14.8572 26.4286C14.8572 26.1919 15.0491 26 15.2857 26H16.7143C16.951 26 17.1429 26.1919 17.1429 26.4286C17.1429 26.6653 16.951 26.8571 16.7143 26.8571H15.2857C15.0491 26.8571 14.8572 26.6653 14.8572 26.4286Z" fill="#154406"/>
</svg>
