<svg width="24" height="32" viewBox="0 0 24 32" fill="none" xmlns="http://www.w3.org/2000/svg">
<path d="M24 9.71429V30.9719C24 31.2242 23.7943 31.4286 23.5403 31.4286H0.45974C0.205714 31.4286 0 31.2242 0 30.9719V0.456721C0 0.204363 0.205714 0 0.45974 0H13.7143L24 9.71429Z" fill="#98DE6B"/>
<path d="M24 9.71429H13.9345C13.8125 9.71429 13.7143 9.61944 13.7143 9.50164V0L24 9.71429Z" fill="#154406"/>
<path d="M5.71429 20.5706C7.60784 20.5706 9.14286 22.1056 9.14286 23.9992C9.14286 25.8927 7.60784 27.4277 5.71429 27.4277C3.82076 27.4277 2.28572 25.8927 2.28572 23.9992C2.28572 22.1056 3.82076 20.5706 5.71429 20.5706ZM5.71429 21.2563C4.19944 21.2563 2.97143 22.4843 2.97143 23.9992C2.97143 25.514 4.19944 26.742 5.71429 26.742C7.22913 26.742 8.45715 25.514 8.45715 23.9992C8.45715 22.4843 7.22913 21.2563 5.71429 21.2563ZM6.05715 25.7134L5.37143 25.7134L5.37143 25.0277L6.05715 25.0277L6.05715 25.7134ZM6.05715 24.342L5.37143 24.342L5.37143 22.2849L6.05715 22.2849L6.05715 24.342Z" fill="#154406"/>
<path fill-rule="evenodd" clip-rule="evenodd" d="M13.7143 20.1434C13.7143 19.9067 13.9062 19.7148 14.1429 19.7148H21.2857C21.5224 19.7148 21.7143 19.9067 21.7143 20.1434C21.7143 20.3801 21.5224 20.572 21.2857 20.572H14.1429C13.9062 20.572 13.7143 20.3801 13.7143 20.1434Z" fill="#154406"/>
<path fill-rule="evenodd" clip-rule="evenodd" d="M13.7143 22.4286C13.7143 22.1919 13.9062 22 14.1429 22H21.2857C21.5224 22 21.7143 22.1919 21.7143 22.4286C21.7143 22.6653 21.5224 22.8571 21.2857 22.8571H14.1429C13.9062 22.8571 13.7143 22.6653 13.7143 22.4286Z" fill="#154406"/>
<path fill-rule="evenodd" clip-rule="evenodd" d="M13.7143 24.7137C13.7143 24.477 13.9062 24.2852 14.1429 24.2852H21.2857C21.5224 24.2852 21.7143 24.477 21.7143 24.7137C21.7143 24.9504 21.5224 25.1423 21.2857 25.1423H14.1429C13.9062 25.1423 13.7143 24.9504 13.7143 24.7137Z" fill="#154406"/>
<path fill-rule="evenodd" clip-rule="evenodd" d="M13.7143 27.0008C13.7143 26.7641 13.9062 26.5723 14.1429 26.5723H19C19.2367 26.5723 19.4286 26.7641 19.4286 27.0008C19.4286 27.2375 19.2367 27.4294 19 27.4294H14.1429C13.9062 27.4294 13.7143 27.2375 13.7143 27.0008Z" fill="#154406"/>
</svg>
