<svg width="24" height="24" viewBox="0 0 24 24" fill="none" xmlns="http://www.w3.org/2000/svg">
<path d="M22.8002 5.59985H17.7918C18.3074 4.82972 18.5059 3.89034 18.346 2.97744C18.1862 2.06455 17.6802 1.24855 16.9336 0.699468C16.187 0.15039 15.2573 -0.0894179 14.3382 0.0300125C13.4191 0.149443 12.5816 0.618899 12.0001 1.34056C11.4186 0.618899 10.5811 0.149443 9.662 0.0300125C8.74294 -0.0894179 7.81324 0.15039 7.06661 0.699468C6.31999 1.24855 5.81402 2.06455 5.65415 2.97744C5.49427 3.89034 5.69281 4.82972 6.2084 5.59985H1.20001C0.881861 5.60022 0.576849 5.72677 0.351884 5.95173C0.126919 6.1767 0.000370525 6.48171 0 6.79986V22.8778C0 23.4966 0.538354 24 1.20001 24H22.8002C23.4618 24 24.0002 23.4966 24.0002 22.8778V6.79986C23.9998 6.48171 23.8733 6.1767 23.6483 5.95173C23.4233 5.72677 23.1183 5.60022 22.8002 5.59985ZM14.8001 1.59982C15.3306 1.59982 15.8393 1.81053 16.2143 2.18561C16.5894 2.56068 16.8001 3.0694 16.8001 3.59983C16.8001 4.13027 16.5894 4.63898 16.2143 5.01406C15.8393 5.38913 15.3306 5.59985 14.8001 5.59985H12.8001V3.59983C12.8007 3.06958 13.0116 2.56121 13.3866 2.18627C13.7615 1.81132 14.2699 1.60041 14.8001 1.59982ZM7.20006 3.59983C7.20006 3.0694 7.41077 2.56068 7.78585 2.18561C8.16093 1.81053 8.66964 1.59982 9.20008 1.59982C9.73051 1.59982 10.2392 1.81053 10.6143 2.18561C10.9894 2.56068 11.2001 3.0694 11.2001 3.59983V5.59985H9.20008C8.66982 5.59925 8.16145 5.38835 7.78651 5.0134C7.41156 4.63845 7.20065 4.13009 7.20006 3.59983ZM1.60001 22.4V11.9999H8.80007V22.4H1.60001ZM10.4001 22.4V11.9999H13.6001V22.4H10.4001ZM22.4002 22.4H15.2001V11.9999H22.4002V22.4ZM1.60001 10.3999V7.19986H22.4002V10.3999H1.60001Z" fill="#070707"/>
</svg>
