<svg width="25" height="26" viewBox="0 0 25 26" fill="none" xmlns="http://www.w3.org/2000/svg">
<path d="M20.1964 4.39747L20.7158 5.95567C20.8757 6.44621 21.1958 6.86877 21.6248 7.15549L22.9388 8.03848C23.38 8.33456 23.7063 8.77299 23.8632 9.2806C24.0201 9.78821 23.9982 10.3343 23.8011 10.8277L23.2817 12.0898C23.0556 12.6478 23.0556 13.2718 23.2817 13.8298L23.8011 15.0608C23.9977 15.5442 24.0258 16.0799 23.8806 16.5812C23.7355 17.0826 23.4257 17.5204 23.0012 17.824L21.8377 18.6758C21.4094 18.9803 21.0978 19.4219 20.9547 19.9276L20.534 21.4027C20.3875 21.9206 20.0653 22.3713 19.6227 22.6774C19.1801 22.9835 18.6446 23.126 18.1084 23.0804L16.8463 22.9765C16.2489 22.9268 15.656 23.1133 15.1946 23.4959L13.9792 24.4776C13.5648 24.8155 13.0465 25 12.5118 25C11.9772 25 11.4589 24.8155 11.0445 24.4776L10.0057 23.6257C9.58932 23.2865 9.06775 23.1028 8.53063 23.1063H6.68156C6.1569 23.1077 5.64738 22.9305 5.23677 22.6039C4.82616 22.2773 4.53888 21.8207 4.42216 21.3092L4.08974 19.8964C3.96963 19.3139 3.62909 18.8003 3.13924 18.4629L2.01733 17.6786C1.59021 17.39 1.27182 16.9669 1.11277 16.4766C0.953726 15.9863 0.963146 15.4568 1.13954 14.9725L1.65894 13.5493C1.8511 13.0316 1.8511 12.4621 1.65894 11.9444L1.19148 10.6978C1.00987 10.2053 1.0009 9.66578 1.16604 9.16753C1.33118 8.66929 1.66063 8.2419 2.10043 7.95537L3.33142 7.16069C3.80736 6.85286 4.15458 6.3819 4.30789 5.83621L4.67147 4.52732C4.81715 4.00616 5.1403 3.55226 5.58509 3.24404C6.02987 2.93582 6.56834 2.79265 7.10747 2.83926L8.27093 2.93795C8.86956 2.98509 9.46323 2.79898 9.92782 2.41855L11.0341 1.52517C11.4497 1.18554 11.9699 1 12.5067 1C13.0434 1 13.5636 1.18554 13.9792 1.52517L14.9452 2.33544C15.4101 2.71913 16.0067 2.90557 16.6073 2.85484L17.8279 2.76655C18.3485 2.73275 18.8654 2.87529 19.2951 3.17118C19.7248 3.46706 20.0423 3.89904 20.1964 4.39747Z" stroke="black" stroke-width="1.5"/>
<path d="M9.60048 10.846C10.6819 10.846 11.5586 9.96929 11.5586 8.88783C11.5586 7.80638 10.6819 6.92969 9.60048 6.92969C8.51903 6.92969 7.64233 7.80638 7.64233 8.88783C7.64233 9.96929 8.51903 10.846 9.60048 10.846Z" stroke="black" stroke-width="1.5"/>
<path d="M15.5736 19.0725C16.6551 19.0725 17.5318 18.1958 17.5318 17.1144C17.5318 16.0329 16.6551 15.1562 15.5736 15.1562C14.4922 15.1562 13.6155 16.0329 13.6155 17.1144C13.6155 18.1958 14.4922 19.0725 15.5736 19.0725Z" stroke="black" stroke-width="1.5"/>
<path d="M17.5319 7.91016L7.21655 18.2307" stroke="black" stroke-width="1.5"/>
</svg>
