<svg width="24" height="24" viewBox="0 0 24 24" fill="none" xmlns="http://www.w3.org/2000/svg">
<path d="M8 14C11.3137 14 14 11.3137 14 8C14 4.68629 11.3137 2 8 2C4.68629 2 2 4.68629 2 8C2 11.3137 4.68629 14 8 14Z" stroke="black" stroke-width="1.5" stroke-linecap="round" stroke-linejoin="round"/>
<path d="M18.0901 10.3711C19.0354 10.7235 19.8766 11.3086 20.5358 12.0723C21.1951 12.836 21.6512 13.7535 21.8618 14.7402C22.0725 15.7268 22.031 16.7506 21.7411 17.7169C21.4513 18.6833 20.9224 19.5609 20.2035 20.2687C19.4846 20.9765 18.5988 21.4916 17.6281 21.7663C16.6573 22.0411 15.633 22.0666 14.6498 21.8406C13.6666 21.6145 12.7562 21.1442 12.0029 20.4731C11.2496 19.802 10.6777 18.9518 10.3401 18.0011" stroke="black" stroke-width="1.5" stroke-linecap="round" stroke-linejoin="round"/>
<path d="M7 6H8V10" stroke="black" stroke-width="1.5" stroke-linecap="round" stroke-linejoin="round"/>
<path d="M16.7101 13.8789L17.4101 14.5889L14.5901 17.4089" stroke="black" stroke-width="1.5" stroke-linecap="round" stroke-linejoin="round"/>
</svg>
