<svg width="24" height="24" viewBox="0 0 24 24" fill="none" xmlns="http://www.w3.org/2000/svg">
<path fill-rule="evenodd" clip-rule="evenodd" d="M3.49993 7.99885C3.50013 7.05077 3.7454 6.11883 4.21195 5.29348C4.67849 4.46814 5.35047 3.7774 6.16267 3.28832C6.97486 2.79923 7.89969 2.52841 8.84741 2.50212C9.79514 2.47583 10.7336 2.69497 11.5716 3.13827C12.4097 3.58158 13.1189 4.234 13.6305 5.03221C14.1421 5.83043 14.4386 6.74733 14.4914 7.69395C14.5442 8.64056 14.3513 9.58474 13.9316 10.4349C13.5119 11.285 12.8795 12.0122 12.0959 12.5459C13.7834 13.1648 15.2471 14.2746 16.2986 15.7324C17.35 17.1902 17.9412 18.9293 17.9959 20.7259C17.9989 20.8243 17.9824 20.9225 17.9474 21.0146C17.9125 21.1067 17.8597 21.191 17.7922 21.2628C17.6557 21.4076 17.4673 21.4924 17.2684 21.4984C17.0695 21.5043 16.8764 21.431 16.7315 21.2946C16.5866 21.1582 16.5019 20.9698 16.4959 20.7709C16.4364 18.8223 15.6205 16.9735 14.2211 15.6163C12.8217 14.259 10.9489 13.5 8.99943 13.5C7.04997 13.5 5.17712 14.259 3.77776 15.6163C2.37839 16.9735 1.56248 18.8223 1.50293 20.7709C1.49292 20.9667 1.40661 21.1508 1.26249 21.2838C1.11837 21.4167 0.927906 21.488 0.731901 21.4822C0.535896 21.4765 0.34994 21.3942 0.213869 21.253C0.0777983 21.1118 0.00243635 20.9229 0.00392798 20.7269C0.0584793 18.9301 0.649535 17.1908 1.70101 15.7328C2.75249 14.2748 4.21627 13.1649 5.90393 12.5459C5.16263 12.0416 4.556 11.3636 4.13697 10.571C3.71793 9.77847 3.49922 8.89539 3.49993 7.99885ZM8.99993 3.99885C7.93906 3.99885 6.92165 4.42028 6.1715 5.17043C5.42136 5.92057 4.99993 6.93799 4.99993 7.99885C4.99993 9.05972 5.42136 10.0771 6.1715 10.8273C6.92165 11.5774 7.93906 11.9989 8.99993 11.9989C10.0608 11.9989 11.0782 11.5774 11.8284 10.8273C12.5785 10.0771 12.9999 9.05972 12.9999 7.99885C12.9999 6.93799 12.5785 5.92057 11.8284 5.17043C11.0782 4.42028 10.0608 3.99885 8.99993 3.99885Z" fill="black"/>
<path d="M17.2901 8.00062C17.1421 8.00062 16.9981 8.01062 16.8561 8.03062C16.7569 8.04838 16.6552 8.04598 16.557 8.02357C16.4588 8.00117 16.3662 7.95921 16.2845 7.90021C16.2029 7.84121 16.134 7.76637 16.0819 7.68016C16.0298 7.59395 15.9957 7.49814 15.9814 7.39843C15.9672 7.29873 15.9732 7.19717 15.999 7.09983C16.0249 7.00249 16.0701 6.91135 16.1319 6.83185C16.1938 6.75235 16.271 6.68613 16.359 6.63712C16.447 6.58812 16.5439 6.55734 16.6441 6.54662C17.6386 6.40283 18.6528 6.59382 19.5269 7.08955C20.4011 7.58527 21.0856 8.35759 21.4727 9.28495C21.8598 10.2123 21.9276 11.2421 21.6653 12.2122C21.4031 13.1823 20.8257 14.0376 20.0241 14.6436C21.2025 15.1713 22.203 16.0286 22.9049 17.1123C23.6069 18.1959 23.9803 19.4595 23.9801 20.7506C23.9801 20.9495 23.9011 21.1403 23.7604 21.281C23.6197 21.4216 23.429 21.5006 23.2301 21.5006C23.0312 21.5006 22.8404 21.4216 22.6997 21.281C22.5591 21.1403 22.4801 20.9495 22.4801 20.7506C22.48 19.6348 22.1204 18.5486 21.4547 17.6531C20.789 16.7576 19.8526 16.1003 18.7841 15.7786L18.2501 15.6186V13.9426L18.6601 13.7336C19.2678 13.4258 19.7541 12.9221 20.0404 12.3039C20.3267 11.6857 20.3962 10.989 20.2379 10.3264C20.0796 9.66376 19.7025 9.07384 19.1677 8.65185C18.6328 8.22986 17.9713 8.00044 17.2901 8.00062Z" fill="black"/>
</svg>
