<svg width="20" height="21" viewBox="0 0 20 21" fill="none" xmlns="http://www.w3.org/2000/svg">
<path fill-rule="evenodd" clip-rule="evenodd" d="M5.87673 1.73829C5.51931 1.42058 4.98069 1.42058 4.62327 1.73829C3.73775 2.52542 2.42284 2.55962 1.5 1.84091V18.5147C2.42284 17.796 3.73775 17.8302 4.62327 18.6173C4.98069 18.935 5.51931 18.935 5.87673 18.6173C6.80248 17.7944 8.1975 17.7944 9.1233 18.6173C9.4807 18.935 10.0193 18.935 10.3767 18.6173C11.3025 17.7944 12.6975 17.7944 13.6233 18.6173C13.9807 18.935 14.5193 18.935 14.8767 18.6173C15.7622 17.8302 17.0772 17.796 18 18.5147V1.84091C17.0772 2.55962 15.7622 2.52542 14.8767 1.73829C14.5193 1.42058 13.9807 1.42058 13.6233 1.73829C12.6975 2.56118 11.3025 2.56118 10.3767 1.73829C10.0193 1.42058 9.4807 1.42058 9.1233 1.73829C8.1975 2.56118 6.80248 2.56118 5.87673 1.73829ZM3.62673 0.617167C4.55248 -0.205723 5.94752 -0.205723 6.87327 0.617167C7.23069 0.934878 7.7693 0.934878 8.1267 0.617167C9.0525 -0.205723 10.4475 -0.205723 11.3733 0.617167C11.7307 0.934878 12.2693 0.934878 12.6267 0.617167C13.5525 -0.205723 14.9475 -0.205723 15.8733 0.617167C16.2307 0.934878 16.7693 0.934878 17.1267 0.617167C18.0463 -0.200243 19.5 0.452557 19.5 1.68293V18.6727C19.5 19.903 18.0463 20.5558 17.1267 19.7384C16.7693 19.4207 16.2307 19.4207 15.8733 19.7384C14.9475 20.5613 13.5525 20.5613 12.6267 19.7384C12.2693 19.4207 11.7307 19.4207 11.3733 19.7384C10.4475 20.5613 9.0525 20.5613 8.1267 19.7384C7.7693 19.4207 7.23069 19.4207 6.87327 19.7384C5.94752 20.5613 4.55248 20.5613 3.62673 19.7384C3.26931 19.4207 2.73069 19.4207 2.37327 19.7384C1.45369 20.5558 0 19.903 0 18.6727V1.68293C0 0.452557 1.45369 -0.200243 2.37327 0.617167C2.73069 0.934878 3.26931 0.934878 3.62673 0.617167ZM4.5 6.67791C4.5 6.26369 4.83579 5.92791 5.25 5.92791H14.25C14.6642 5.92791 15 6.26369 15 6.67791C15 7.09212 14.6642 7.42791 14.25 7.42791H5.25C4.83579 7.42791 4.5 7.09212 4.5 6.67791ZM4.5 10.1779C4.5 9.76374 4.83579 9.42794 5.25 9.42794H14.25C14.6642 9.42794 15 9.76374 15 10.1779C15 10.5921 14.6642 10.9279 14.25 10.9279H5.25C4.83579 10.9279 4.5 10.5921 4.5 10.1779ZM4.5 13.6779C4.5 13.2637 4.83579 12.9279 5.25 12.9279H14.25C14.6642 12.9279 15 13.2637 15 13.6779C15 14.0921 14.6642 14.4279 14.25 14.4279H5.25C4.83579 14.4279 4.5 14.0921 4.5 13.6779Z" fill="black"/>
</svg>
