<svg width="21" height="23" viewBox="0 0 21 23" fill="none" xmlns="http://www.w3.org/2000/svg">
<path d="M1 22V3.33333C1 2.71449 1.28597 2.121 1.795 1.68342C2.30402 1.24583 2.99441 1 3.71429 1H17.2857C18.0056 1 18.696 1.24583 19.205 1.68342C19.714 2.121 20 2.71449 20 3.33333V22L15.9286 19.6667L13.2143 22L10.5 19.6667L7.78571 22L5.07143 19.6667L1 22Z" stroke="black" stroke-width="1.5" stroke-linecap="round" stroke-linejoin="round"/>
<path d="M15 14V11.6667C15 11.0478 14.6839 10.4543 14.1213 10.0168C13.5587 9.57917 12.7956 9.33333 12 9.33333H6M6 9.33333L9 7M6 9.33333L9 11.6667" stroke="black" stroke-width="1.5" stroke-linecap="round" stroke-linejoin="round"/>
</svg>
