<svg width="20" height="20" viewBox="0 0 20 20" fill="none" xmlns="http://www.w3.org/2000/svg">
<path fill-rule="evenodd" clip-rule="evenodd" d="M15.8335 12.708C16.1787 12.708 16.4585 12.9878 16.4585 13.333V16.8241L17.8916 15.3911C18.1356 15.147 18.5314 15.147 18.7754 15.3911C19.0195 15.6351 19.0195 16.0309 18.7754 16.2749L16.2754 18.7749C16.0314 19.019 15.6356 19.019 15.3916 18.7749L12.8916 16.2749C12.6475 16.0309 12.6475 15.6351 12.8916 15.3911C13.1356 15.147 13.5314 15.147 13.7754 15.3911L15.2085 16.8241V13.333C15.2085 12.9878 15.4883 12.708 15.8335 12.708Z" fill="white"/>
<path fill-rule="evenodd" clip-rule="evenodd" d="M3.3335 4.375C3.67867 4.375 3.9585 4.65482 3.9585 5V9.98429C3.95896 9.98848 3.95983 9.99536 3.96139 10.0047C3.96643 10.035 3.97861 10.0907 4.00714 10.1641C4.06284 10.3073 4.18667 10.5331 4.46941 10.7755C5.03933 11.264 6.32495 11.875 9.16683 11.875C12.0087 11.875 13.2943 11.264 13.8643 10.7755C14.147 10.5331 14.2708 10.3073 14.3265 10.1641C14.355 10.0907 14.3672 10.035 14.3723 10.0047C14.3738 9.99536 14.3747 9.98848 14.3752 9.98429V5C14.3752 4.65482 14.655 4.375 15.0002 4.375C15.3453 4.375 15.6252 4.65482 15.6252 5V10H15.0002C15.6252 10 15.6252 10.0007 15.6252 10.0015L15.6252 10.003L15.6251 10.0062L15.625 10.0134L15.6245 10.0307C15.6241 10.0435 15.6232 10.0588 15.6219 10.0765C15.6191 10.112 15.6141 10.157 15.6053 10.2102C15.5875 10.3166 15.5541 10.4562 15.4915 10.6172C15.3649 10.9427 15.1242 11.3419 14.6777 11.7245C13.7893 12.486 12.1583 13.125 9.16683 13.125C6.17538 13.125 4.54433 12.486 3.65592 11.7245C3.20949 11.3419 2.96874 10.9427 2.84214 10.6172C2.77953 10.4562 2.74613 10.3166 2.72839 10.2102C2.71953 10.157 2.71456 10.112 2.7118 10.0765C2.71042 10.0588 2.7096 10.0435 2.70912 10.0307L2.70863 10.0134L2.70853 10.0062L2.7085 10.003L2.7085 10.0015C2.7085 10.0007 2.7085 10 3.3335 10H2.7085V5C2.7085 4.65482 2.98832 4.375 3.3335 4.375Z" fill="white"/>
<path fill-rule="evenodd" clip-rule="evenodd" d="M3.96063 5C3.96086 5.00148 3.96111 5.00304 3.96138 5.00467C3.96643 5.03497 3.97861 5.09072 4.00714 5.1641C4.06283 5.3073 4.18667 5.53312 4.46941 5.77546C5.03933 6.26397 6.32494 6.875 9.16683 6.875C12.0087 6.875 13.2943 6.26397 13.8643 5.77546C14.147 5.53312 14.2708 5.3073 14.3265 5.1641C14.355 5.09072 14.3672 5.03497 14.3723 5.00467C14.3725 5.00304 14.3728 5.00148 14.373 5C14.3728 4.99852 14.3725 4.99696 14.3723 4.99533C14.3672 4.96503 14.355 4.90928 14.3265 4.8359C14.2708 4.6927 14.147 4.46688 13.8643 4.22454C13.2943 3.73603 12.0087 3.125 9.16683 3.125C6.32494 3.125 5.03933 3.73603 4.46941 4.22454C4.18667 4.46688 4.06283 4.6927 4.00714 4.8359C3.97861 4.90928 3.96643 4.96503 3.96138 4.99533C3.96111 4.99696 3.96086 4.99852 3.96063 5ZM15.0002 5C15.6252 5 15.6252 4.99928 15.6252 4.99854L15.6252 4.99703L15.6251 4.9938L15.625 4.98662L15.6245 4.96932C15.6241 4.95652 15.6232 4.94118 15.6219 4.92346C15.6191 4.88804 15.6141 4.84303 15.6053 4.78983C15.5875 4.68341 15.5541 4.54385 15.4915 4.38285C15.3649 4.0573 15.1242 3.65812 14.6777 3.27546C13.7893 2.51397 12.1583 1.875 9.16683 1.875C6.17538 1.875 4.54432 2.51397 3.65592 3.27546C3.20949 3.65812 2.96874 4.0573 2.84214 4.38285C2.77953 4.54385 2.74613 4.68341 2.72839 4.78983C2.71952 4.84303 2.71456 4.88804 2.7118 4.92346C2.71042 4.94118 2.7096 4.95652 2.70911 4.96932L2.70862 4.98662L2.70852 4.9938L2.7085 4.99703L2.7085 4.99854C2.70849 4.99928 2.70849 5 3.33349 5C2.70849 5 2.70849 5.00072 2.7085 5.00146L2.7085 5.00297L2.70852 5.0062L2.70862 5.01338L2.70911 5.03068C2.7096 5.04348 2.71042 5.05882 2.7118 5.07654C2.71456 5.11196 2.71952 5.15697 2.72839 5.21017C2.74613 5.31659 2.77953 5.45615 2.84214 5.61715C2.96874 5.9427 3.20949 6.34188 3.65592 6.72453C4.54432 7.48603 6.17538 8.125 9.16683 8.125C12.1583 8.125 13.7893 7.48603 14.6777 6.72453C15.1242 6.34188 15.3649 5.9427 15.4915 5.61715C15.5541 5.45615 15.5875 5.31659 15.6053 5.21017C15.6141 5.15697 15.6191 5.11196 15.6219 5.07654C15.6232 5.05882 15.6241 5.04348 15.6245 5.03068L15.625 5.01338L15.6251 5.0062L15.6252 5.00297L15.6252 5.00146C15.6252 5.00072 15.6252 5 15.0002 5Z" fill="white"/>
<path fill-rule="evenodd" clip-rule="evenodd" d="M3.3335 9.375C3.67867 9.375 3.9585 9.65482 3.9585 10V14.9843C3.95896 14.9885 3.95983 14.9954 3.96139 15.0047C3.96643 15.035 3.97861 15.0907 4.00714 15.1641C4.06284 15.3073 4.18667 15.5331 4.46941 15.7755C5.03933 16.264 6.32495 16.875 9.16683 16.875C9.51201 16.875 9.79183 17.1548 9.79183 17.5C9.79183 17.8452 9.51201 18.125 9.16683 18.125C6.17538 18.125 4.54433 17.486 3.65592 16.7245C3.20949 16.3419 2.96874 15.9427 2.84214 15.6172C2.77953 15.4562 2.74613 15.3166 2.72839 15.2102C2.71953 15.157 2.71456 15.112 2.7118 15.0765C2.71042 15.0588 2.7096 15.0435 2.70912 15.0307L2.70863 15.0134L2.70853 15.0062L2.7085 15.003L2.7085 15.0015C2.7085 15.0007 2.7085 15 3.3335 15H2.7085V10C2.7085 9.65482 2.98832 9.375 3.3335 9.375Z" fill="white"/>
</svg>
