<svg width="57" height="58" viewBox="0 0 57 58" fill="none" xmlns="http://www.w3.org/2000/svg">
<path d="M48.0503 37.3526C48.0503 42.9407 45.7678 47.9779 42.108 51.5983C38.5269 55.1794 33.5684 57.3439 28.0984 57.3439C22.6677 57.3439 17.7092 55.1401 14.0888 51.5983C10.429 47.9779 8.14648 42.9407 8.14648 37.3526C8.14648 26.2944 17.0796 17.3613 28.0984 17.3613C39.1172 17.3613 48.0503 26.3338 48.0503 37.3526Z" fill="#F1F3F9" stroke="#D6DCE8" stroke-miterlimit="10"/>
<path d="M50.1169 29.7694C51.008 29.7694 51.7304 29.047 51.7304 28.1559C51.7304 27.2649 51.008 26.5425 50.1169 26.5425C49.2258 26.5425 48.5034 27.2649 48.5034 28.1559C48.5034 29.047 49.2258 29.7694 50.1169 29.7694Z" fill="#EAEEF9"/>
<path d="M48.68 17.9513C49.2886 17.9513 49.7819 17.458 49.7819 16.8494C49.7819 16.2409 49.2886 15.7476 48.68 15.7476C48.0715 15.7476 47.5781 16.2409 47.5781 16.8494C47.5781 17.458 48.0715 17.9513 48.68 17.9513Z" fill="#EAEEF9"/>
<path d="M8.77571 24.2082C9.38426 24.2082 9.87759 23.7148 9.87759 23.1063C9.87759 22.4977 9.38426 22.0044 8.77571 22.0044C8.16716 22.0044 7.67383 22.4977 7.67383 23.1063C7.67383 23.7148 8.16716 24.2082 8.77571 24.2082Z" fill="#EAEEF9"/>
<path d="M2.04635 45.4589C3.17652 45.4589 4.0927 44.5427 4.0927 43.4126C4.0927 42.2824 3.17652 41.3662 2.04635 41.3662C0.916182 41.3662 0 42.2824 0 43.4126C0 44.5427 0.916182 45.4589 2.04635 45.4589Z" fill="#EAEEF9"/>
<path d="M43.2267 25.5829L41.5855 37.5041L39.5341 52.2343C39.0554 52.5083 38.5084 52.7139 37.9613 52.7139H14.3013C13.2756 52.7139 12.3866 52.3713 11.6344 51.8232C11.4293 51.6862 11.2241 51.4806 11.019 51.2751C10.1984 50.4529 9.65137 49.2197 9.65137 47.918V22.4314C9.65137 21.2666 10.6087 20.376 11.7028 20.376H18.8829C19.3615 20.376 19.8402 20.5815 20.2505 20.9926L22.5755 23.5275C22.9174 23.8701 23.396 24.0756 23.8747 24.0756H41.8591C42.6796 24.0756 43.2951 24.7608 43.2267 25.5829Z" fill="#D6DCE8" stroke="#AAB2C5" stroke-miterlimit="10"/>
<path d="M13.1396 50.1108L15.0543 27.9812C15.1227 27.1591 15.8065 26.5425 16.6271 26.5425H43.8429C44.5951 26.5425 45.1422 27.1591 45.0738 27.9127L43.1591 46.7537L13.1396 50.1108Z" fill="white" stroke="#D6DCE8" stroke-miterlimit="10" stroke-linejoin="round"/>
<path d="M24.012 47.7126L14.0283 50.042L20.1827 33.1195C20.4562 32.3658 21.14 31.8862 21.9606 31.8862H46.0992C46.9882 31.8862 47.6036 32.8454 47.1933 33.6676L40.6287 47.096L24.012 47.7126Z" fill="white" stroke="#D6DCE8" stroke-miterlimit="10" stroke-linejoin="round"/>
<path d="M49.5186 39.1491L40.3555 51.4814C40.1503 51.7554 39.8084 52.0295 39.5349 52.235C39.0562 52.509 38.5092 52.7146 37.9621 52.7146H14.3021C13.2764 52.7146 12.3875 52.372 11.6353 51.8239L21.2087 40.6564H36.2526C36.9364 40.6564 37.6202 40.4509 38.1673 39.9713L40.7658 37.9844C41.0393 37.7789 41.3128 37.6418 41.5864 37.5048C41.9283 37.3678 42.3385 37.2993 42.6805 37.2993H48.5613C49.5186 37.2308 50.0657 38.3955 49.5186 39.1491Z" fill="#D6DCE8" stroke="#AAB2C5" stroke-miterlimit="10"/>
<path d="M44.4228 22.8473L33.6884 15.8944C33.0713 15.4907 32.8912 14.6699 33.2929 14.0459L39.9588 3.78271C40.3633 3.16569 41.1849 2.98516 41.8091 3.386L52.5434 10.3389C53.1606 10.7427 53.3407 11.5634 52.939 12.1874L46.276 22.4576C45.8714 23.0746 45.04 23.251 44.4228 22.8473Z" fill="#F1F3F9" stroke="#D6DCE8" stroke-miterlimit="10"/>
<path d="M44.8258 20.9254L35.3882 14.8118C35.1215 14.642 35.0495 14.2858 35.2197 14.0192L40.7321 5.53319C40.9022 5.26657 41.2588 5.19439 41.5255 5.36418L50.9631 11.4778C51.2298 11.6475 51.3017 12.0038 51.1316 12.2704L45.6192 20.7564C45.4491 21.023 45.0925 21.0952 44.8258 20.9254Z" fill="white"/>
<path d="M42.3825 14.7786L38.9377 12.5458L41.9224 11.7092L42.3825 14.7786Z" fill="#B0B7C4"/>
<path d="M45.2327 16.624L40.2699 13.4127L44.5673 12.2108L45.2327 16.624Z" fill="#CED6E2"/>
<path d="M41.6694 10.3681C41.8315 10.7639 42.2842 10.9533 42.6805 10.791C43.0769 10.6287 43.2667 10.1762 43.1046 9.78028C42.9425 9.3844 42.4897 9.19506 42.0934 9.35737C41.6971 9.51968 41.5072 9.97218 41.6694 10.3681Z" fill="#B0B7C4"/>
<path d="M26.3642 10.6486C26.0664 9.5817 25.6498 8.32681 25.0295 7.39541C24.6897 6.88272 24.1716 6.5145 23.5603 6.37628C22.8895 6.22936 22.2868 6.3726 21.6332 6.53276C20.4703 6.77673 19.3158 7.13159 18.1869 7.56329C17.1769 7.9271 15.9885 8.26481 15.1824 8.9874C14.0113 10.0586 14.2837 11.3898 14.7005 12.8153C14.9982 13.8822 15.4148 15.1371 16.0351 16.0685C16.5364 16.8119 17.411 17.2324 18.2854 17.1411C19.44 17.0421 21.7488 16.3323 22.8607 15.9347C23.8199 15.5878 24.8979 15.2583 25.7041 14.621C27.0534 13.5759 26.8319 12.2277 26.3642 10.6486ZM18.6045 10.5239C18.477 10.1397 18.6382 9.94404 19.0372 10.039C20.1071 10.2809 21.2109 10.5399 22.2807 10.7818C22.6798 10.8768 22.7563 11.1073 22.5018 11.4477C21.7891 12.2814 21.0849 13.1408 20.3722 13.9745C20.0837 14.2978 19.8715 14.2545 19.727 13.9044C19.6759 13.7508 18.7236 10.8824 18.6045 10.5239Z" fill="#D6DCE8" stroke="#AAB2C5" stroke-miterlimit="10"/>
<path d="M35.035 50.5879L35.0351 50.5879L35.0367 50.5802C35.5455 48.2546 34.8188 45.7893 33.1152 44.0857L33.1087 44.0792L33.1019 44.0729C32.1032 43.1455 30.9119 42.4552 29.5289 42.1637C25.6769 41.3287 21.9442 43.8378 21.1478 47.6749C20.3505 51.5165 22.8136 55.2866 26.6563 56.0861C28.2982 56.4501 29.9307 56.1559 31.2998 55.4714L31.2998 55.4714L31.3046 55.469C32.6393 54.7835 33.729 53.7328 34.42 52.3872L34.4243 52.3788L34.4283 52.3703C34.6809 51.8291 34.8935 51.1891 35.035 50.5879Z" fill="white" stroke="#AAB2C5"/>
<path d="M30.2009 47.551H29.6839V47.034C29.6839 46.2172 29.0383 45.4609 28.1108 45.4609C27.294 45.4609 26.5378 46.1065 26.5378 47.034V47.551H26.0208C25.204 47.551 24.4478 48.1966 24.4478 49.124C24.4478 49.5321 24.5947 49.938 24.9008 50.2441C25.2068 50.5502 25.6127 50.6971 26.0208 50.6971H26.5378V51.214C26.5378 52.0308 27.1834 52.7871 28.1108 52.7871C28.9277 52.7871 29.6839 52.1415 29.6839 51.214V50.6971H30.2009C31.0177 50.6971 31.7739 50.0515 31.7739 49.124C31.7739 48.1966 31.0177 47.551 30.2009 47.551Z" fill="white" stroke="#AAB2C5" stroke-width="2"/>
</svg>
