<svg width="40" height="39" viewBox="0 0 40 39" fill="none" xmlns="http://www.w3.org/2000/svg">
<g clip-path="url(#clip0_1188_117)">
<path d="M15.8156 21.5139L6.82717 32.11C2.82675 31.701 0.237046 31.1068 0.0201752 30.4427V30.4416C0.0137966 30.4114 0.00954424 30.3813 0.00529186 30.3512V30.349C-0.0329795 29.9776 0.156251 29.5923 0.618698 29.2306L11.6153 20.6496C12.3691 20.0608 12.3691 18.9091 11.6153 18.3203L0.659095 9.77045C0.196649 9.40986 -0.0117177 9.02451 0.00103948 8.65423V8.64885C0.00103948 8.64562 0.00103948 8.64131 0.00210258 8.63809C0.00316567 8.62947 0.00316567 8.62086 0.00422877 8.61225C0.0914025 7.9578 2.47805 7.36794 6.2616 6.94922L15.8348 18.5356C16.5513 19.4031 16.5428 20.6561 15.8156 21.5139Z" fill="url(#paint0_linear_1188_117)"/>
<path d="M39.9999 30.3469V30.3512C39.9999 30.3555 39.9999 30.3587 39.9988 30.363C39.9988 30.3716 39.9988 30.3802 39.9967 30.3889C39.9095 31.0476 37.4888 31.6418 33.6585 32.0605L23.945 20.9865C23.1977 20.1351 23.1828 18.837 23.911 17.9683L33.1918 6.89111C37.1827 7.30122 39.7639 7.89539 39.9807 8.55845C39.9871 8.58859 39.9924 8.61873 39.9956 8.64887V8.6521C40.0339 9.02345 39.8457 9.4088 39.3822 9.77047L28.3866 18.3515C27.6329 18.9403 27.6329 20.092 28.3866 20.6808L39.3418 29.2306C39.8043 29.5912 40.0126 29.9755 39.9999 30.3469Z" fill="url(#paint1_linear_1188_117)"/>
<path d="M35.3147 35.7461V35.7687C35.3137 35.7805 35.3137 35.7923 35.3126 35.8053C35.2318 36.9258 32.5262 37.9085 28.4673 38.4779C26.1179 38.8084 23.3156 39 20.306 39C17.2974 39 14.4951 38.8084 12.1456 38.4779C8.17605 37.9215 5.50024 36.9688 5.30888 35.8785C5.30357 35.8365 5.30038 35.7945 5.29719 35.7525V35.7493C5.27699 35.3812 5.3429 35.0033 5.50875 34.6341C5.60974 34.4113 5.74794 34.209 5.90528 34.0238L7.47441 32.1735L7.52969 32.1089L16.2184 21.8648C17.1124 20.8111 17.122 19.2567 16.2418 18.1911L6.89715 6.88248L5.29294 4.94066C5.19832 4.82441 5.10902 4.70385 5.03567 4.57361C4.79009 4.1409 4.67847 3.69096 4.68697 3.25395V3.23134C4.68804 3.2195 4.68804 3.20659 4.6891 3.19475C4.7699 2.07422 7.47547 1.09147 11.5354 0.522052C13.8838 0.191599 16.6861 0 19.6957 0C22.7043 0 25.5077 0.191599 27.8561 0.522052C31.8257 1.07855 34.5015 2.03116 34.6939 3.12047V3.12155C34.6981 3.16353 34.7013 3.20443 34.7045 3.24641V3.25072C34.7268 3.6576 34.6439 4.07524 34.4377 4.47996C34.3494 4.65326 34.2368 4.81149 34.1124 4.96004L32.5475 6.82758L23.5059 17.6195C22.6022 18.6981 22.6193 20.2858 23.5473 21.3439L32.9483 32.0615L33.0068 32.1283L34.662 34.0152C34.8098 34.1842 34.9416 34.3672 35.0415 34.5685C35.235 34.9571 35.3222 35.3575 35.3147 35.7461Z" fill="url(#paint2_linear_1188_117)"/>
</g>
<defs>
<linearGradient id="paint0_linear_1188_117" x1="10.3793" y1="25.9026" x2="-3.58522" y2="17.5591" gradientUnits="userSpaceOnUse">
<stop offset="0.0011606" stop-color="#A179FC"/>
<stop offset="0.2096" stop-color="#9F7DFC"/>
<stop offset="0.4197" stop-color="#9889FD"/>
<stop offset="0.6306" stop-color="#8C9DFD"/>
<stop offset="0.8409" stop-color="#7BB9FE"/>
<stop offset="1" stop-color="#6CD4FF"/>
</linearGradient>
<linearGradient id="paint1_linear_1188_117" x1="33.9181" y1="25.851" x2="19.8477" y2="17.3138" gradientUnits="userSpaceOnUse">
<stop offset="0.0011606" stop-color="#A179FC"/>
<stop offset="0.2096" stop-color="#9F7DFC"/>
<stop offset="0.4197" stop-color="#9889FD"/>
<stop offset="0.6306" stop-color="#8C9DFD"/>
<stop offset="0.8409" stop-color="#7BB9FE"/>
<stop offset="1" stop-color="#6CD4FF"/>
</linearGradient>
<linearGradient id="paint2_linear_1188_117" x1="4.68749" y1="19.4989" x2="35.314" y2="19.4989" gradientUnits="userSpaceOnUse">
<stop offset="0.0011606" stop-color="#269E3C"/>
<stop offset="0.1223" stop-color="#2FA23B"/>
<stop offset="0.3235" stop-color="#49AD37"/>
<stop offset="0.5798" stop-color="#72BE31"/>
<stop offset="0.8783" stop-color="#ABD529"/>
<stop offset="1" stop-color="#C4E025"/>
</linearGradient>
<clipPath id="clip0_1188_117">
<rect width="40" height="39" fill="white"/>
</clipPath>
</defs>
</svg>
