<svg width="24" height="26" viewBox="0 0 24 26" fill="none" xmlns="http://www.w3.org/2000/svg">
<path d="M11.6189 2.74783C6.70904 2.74783 2.71136 6.79811 2.71136 11.7726C2.71136 16.7495 6.70904 20.7974 11.6189 20.7974C12.8106 20.7974 13.9492 20.5587 14.9884 20.1282L14.6166 18.3663C13.7044 18.7945 12.6882 19.0332 11.6189 19.0332C7.66746 19.0332 4.4527 15.7761 4.4527 11.7726C4.4527 7.76914 7.66746 4.51208 11.6189 4.51208C15.5704 4.51208 18.7875 7.76914 18.7875 11.7726C18.7875 12.9004 18.5312 13.9697 18.0762 14.9244L19.6258 15.7293C20.2032 14.5336 20.5288 13.1906 20.5288 11.7726C20.5288 6.79811 16.5312 2.74783 11.6189 2.74783Z" fill="#237804"/>
<path d="M11.6189 0C5.21245 0 0 5.28103 0 11.7718C0 18.2648 5.21245 23.5435 11.6189 23.5435C13.0023 23.5435 14.3325 23.2979 15.5634 22.8439L15.1939 21.1007C14.0831 21.5383 12.8799 21.7793 11.6189 21.7793C6.17318 21.7793 1.74133 17.2915 1.74133 11.7718C1.74133 6.25441 6.17318 1.76424 11.6189 1.76424C17.0646 1.76424 21.4988 6.25441 21.4988 11.7718C21.4988 13.3512 21.1362 14.8463 20.4872 16.1777L22.0369 16.9826C22.8082 15.4102 23.2401 13.6413 23.2401 11.7718C23.2401 5.28103 18.0253 0 11.6189 0Z" fill="url(#paint0_linear_4145_1271)"/>
<path d="M11.6187 6.41687C8.70421 6.41687 6.3324 8.81989 6.3324 11.7728C6.3324 14.7257 8.70421 17.131 11.6187 17.131C12.5587 17.131 13.4432 16.8807 14.2077 16.4431L13.8774 14.8824C13.7827 14.4449 13.949 13.991 14.2977 13.7195C14.4963 13.5581 14.7458 13.4715 15.0021 13.4715C15.1822 13.4715 15.3601 13.5136 15.5217 13.5955L16.4016 14.0518C16.725 13.3615 16.9051 12.587 16.9051 11.7728C16.9051 8.81989 14.5356 6.41687 11.6187 6.41687ZM12.8866 12.5917C13.0298 12.7368 13.0298 12.9778 12.8866 13.1252C12.7388 13.2726 12.5033 13.2726 12.3578 13.1252L11.4779 12.2337L10.598 13.1252C10.4525 13.2726 10.2169 13.2726 10.0691 13.1252C9.92591 12.9778 9.92591 12.7368 10.0691 12.5917L10.9513 11.7002L10.0691 10.8064C9.92591 10.6614 9.92591 10.4227 10.0691 10.2729C10.2169 10.1279 10.4525 10.1279 10.598 10.2729L11.4779 11.1644L12.3578 10.2729C12.5033 10.1279 12.7388 10.1279 12.8866 10.2729C13.0298 10.4227 13.0298 10.6614 12.8866 10.8064L12.0044 11.7002L12.8866 12.5917Z" fill="#043A08"/>
<path d="M23.9952 19.1871C23.9768 19.3321 23.8751 19.4468 23.7296 19.4795L19.5195 20.3944L19.2239 20.4599L19.1038 20.7711L17.4779 24.9384C17.4364 25.046 17.3417 25.1232 17.2285 25.149C17.2008 25.1537 17.1662 25.156 17.1315 25.156C16.9814 25.1396 16.8521 25.032 16.8221 24.8822L16.3255 22.5354L15.9491 20.7641L15.7389 19.772L15.3579 17.9657L14.9283 15.9464L14.6673 14.7109C14.6396 14.5822 14.6881 14.4442 14.7967 14.3646C14.8983 14.2781 15.0415 14.2664 15.1592 14.3272L16.0022 14.7647L17.6835 15.6398L19.2377 16.4494L20.0992 16.8963L21.6511 17.7036L23.8151 18.8291C23.9421 18.9016 24.0206 19.0396 23.9952 19.1871Z" fill="url(#paint1_linear_4145_1271)"/>
<defs>
<linearGradient id="paint0_linear_4145_1271" x1="0.00073465" y1="11.7711" x2="23.2392" y2="11.7711" gradientUnits="userSpaceOnUse">
<stop offset="0.0011606" stop-color="#269E3C"/>
<stop offset="0.1223" stop-color="#2FA23B"/>
<stop offset="0.3235" stop-color="#49AD37"/>
<stop offset="0.5798" stop-color="#72BE31"/>
<stop offset="0.8783" stop-color="#ABD529"/>
<stop offset="1" stop-color="#C4E025"/>
</linearGradient>
<linearGradient id="paint1_linear_4145_1271" x1="14.66" y1="19.7222" x2="23.9996" y2="19.7222" gradientUnits="userSpaceOnUse">
<stop offset="0.0011606" stop-color="#269E3C"/>
<stop offset="0.1223" stop-color="#2FA23B"/>
<stop offset="0.3235" stop-color="#49AD37"/>
<stop offset="0.5798" stop-color="#72BE31"/>
<stop offset="0.8783" stop-color="#ABD529"/>
<stop offset="1" stop-color="#C4E025"/>
</linearGradient>
</defs>
</svg>
