<svg width="50" height="50" viewBox="0 0 50 50" fill="none" xmlns="http://www.w3.org/2000/svg">
<g clip-path="url(#clip0_1478_5651)">
<path d="M25 50C38.8071 50 50 38.8071 50 25C50 11.1929 38.8071 0 25 0C11.1929 0 0 11.1929 0 25C0 38.8071 11.1929 50 25 50Z" fill="#4467AD"/>
<path d="M26.9333 21.589C27.3444 21.126 27.6815 20.6593 28.1037 20.263C29.4 19.0408 30.9333 18.426 32.7259 18.4408C33.7111 18.4482 34.6815 18.5186 35.6296 18.7927C37.8 19.4186 39.0592 20.9149 39.663 23.0334C40.1148 24.6223 40.1963 26.2556 40.2 27.8927C40.2074 31.3445 40.1889 34.8001 40.1963 38.2519C40.1963 38.5741 40.1074 38.6593 39.7889 38.6593C38.0111 38.6445 36.2296 38.6445 34.4518 38.6593C34.137 38.663 34.0704 38.5667 34.0704 38.2704C34.0815 34.9853 34.0815 31.7001 34.0704 28.4112C34.0667 27.589 34.0148 26.763 33.7852 25.963C33.3592 24.489 32.3037 23.7371 30.7592 23.8186C28.6481 23.9297 27.5518 24.9741 27.2815 27.1186C27.2185 27.6297 27.1852 28.1445 27.1889 28.6593C27.1926 31.8556 27.1852 35.0519 27.1963 38.2482C27.1963 38.5667 27.1185 38.6593 26.7926 38.6593C25 38.6445 23.2074 38.6445 21.4148 38.6593C21.1259 38.663 21.0444 38.5853 21.0444 38.2927C21.0518 31.9667 21.0518 25.6371 21.0444 19.3112C21.0444 18.9964 21.1481 18.926 21.4444 18.926C23.1444 18.9371 24.8481 18.9408 26.5481 18.926C26.863 18.9223 26.9407 19.026 26.937 19.3223C26.9222 20.0778 26.9333 20.8334 26.9333 21.589Z" fill="#FEFEFE"/>
<path d="M17.1852 28.8186C17.1852 31.9482 17.1815 35.0778 17.1926 38.2075C17.1926 38.5556 17.1074 38.6593 16.7482 38.6556C14.9704 38.6371 13.1926 38.6408 11.4111 38.6519C11.126 38.6556 11.0408 38.5815 11.0408 38.2889C11.0482 31.9519 11.0482 25.6149 11.0408 19.2741C11.0408 19.0112 11.1037 18.9186 11.3815 18.9186C13.1852 18.9297 14.9889 18.9334 16.7926 18.9149C17.1408 18.9112 17.1852 19.0445 17.1852 19.3445C17.1815 22.5075 17.1852 25.663 17.1852 28.8186Z" fill="#FEFEFE"/>
<path d="M17.6777 12.6445C17.6814 14.6111 16.0852 16.2111 14.1222 16.2111C12.1852 16.2111 10.5777 14.6111 10.5703 12.6741C10.5629 10.7185 12.1703 9.10742 14.1296 9.10742C16.074 9.11483 17.674 10.7111 17.6777 12.6445Z" fill="#FEFEFE"/>
</g>
<defs>
<clipPath id="clip0_1478_5651">
<rect width="50" height="50" fill="white"/>
</clipPath>
</defs>
</svg>
