<svg width="32" height="32" viewBox="0 0 32 32" fill="none" xmlns="http://www.w3.org/2000/svg">
<path fill-rule="evenodd" clip-rule="evenodd" d="M16 30.4C23.9529 30.4 30.4 23.9529 30.4 16C30.4 8.04712 23.9529 1.6 16 1.6C8.04712 1.6 1.6 8.04712 1.6 16C1.6 23.9529 8.04712 30.4 16 30.4ZM16 32C24.8366 32 32 24.8366 32 16C32 7.16344 24.8366 0 16 0C7.16344 0 0 7.16344 0 16C0 24.8366 7.16344 32 16 32Z" fill="#033A07"/>
<path fill-rule="evenodd" clip-rule="evenodd" d="M7.19995 16C7.19995 15.5581 7.55811 15.2 7.99995 15.2H24C24.4418 15.2 24.8 15.5581 24.8 16C24.8 16.4418 24.4418 16.8 24 16.8H7.99995C7.55811 16.8 7.19995 16.4418 7.19995 16Z" fill="#033A07"/>
<path fill-rule="evenodd" clip-rule="evenodd" d="M16 7.19995C16.4418 7.19995 16.8 7.55811 16.8 7.99995V24C16.8 24.4418 16.4418 24.8 16 24.8C15.5581 24.8 15.2 24.4418 15.2 24V7.99995C15.2 7.55811 15.5581 7.19995 16 7.19995Z" fill="#033A07"/>
</svg>
