<svg width="24" height="26" viewBox="0 0 24 26" fill="none" xmlns="http://www.w3.org/2000/svg">
<path d="M2.19391 12.6003H12.3157C11.9047 13.4847 10.3656 16.2077 6.19608 18.4599C6.19608 18.479 1.52575 20.8389 0.0982461 16.7278C0.134988 16.7278 -0.746823 13.7809 2.15581 12.6016L2.19391 12.6003Z" fill="url(#paint0_linear_4145_1313)"/>
<path d="M2.19391 12.6014H12.3157C11.9047 11.717 10.3656 8.99396 6.19608 6.74185C6.19608 6.72274 1.52575 4.36281 0.0982461 8.47393C0.134988 8.47393 -0.746823 11.4208 2.15581 12.6001L2.19391 12.6014Z" fill="url(#paint1_linear_4145_1313)"/>
<path d="M16.9247 3.70434L12.4762 12.7169C11.8707 11.9648 10.1261 9.40695 9.95599 4.71165C9.93966 4.70346 9.89339 -0.484575 14.1759 0.0368222C14.1596 0.0695801 17.1683 0.570503 16.9411 3.66749L16.9247 3.70434Z" fill="url(#paint2_linear_4145_1313)"/>
<path d="M16.9245 3.70438L12.476 12.7169C13.4436 12.736 16.5408 12.5531 20.3756 9.82192C20.3919 9.83011 24.5438 6.70036 21.5159 3.63749C21.4996 3.67025 19.2665 1.59968 16.9422 3.67025L16.9245 3.70438Z" fill="url(#paint3_linear_4145_1313)"/>
<path d="M18.906 20.5665L12.4216 12.7715C12.008 13.6559 10.9098 16.5837 11.8569 21.238C11.8433 21.2503 13.0286 26.3592 17.0893 24.825C17.0661 24.7964 19.8871 23.5871 18.9304 20.5979L18.906 20.5665Z" fill="url(#paint4_linear_4145_1313)"/>
<path d="M18.9061 20.5664L12.4218 12.7714C13.3635 12.5216 16.4322 11.9634 20.8276 13.731C20.8412 13.7187 25.6408 15.8043 23.4077 19.5373C23.3846 19.5086 21.6931 22.076 18.9306 20.5965L18.9061 20.5664Z" fill="url(#paint5_linear_4145_1313)"/>
<defs>
<linearGradient id="paint0_linear_4145_1313" x1="7.81016" y1="17.535" x2="4.22915" y2="11.3511" gradientUnits="userSpaceOnUse">
<stop offset="0.0011606" stop-color="#A179FC"/>
<stop offset="0.2096" stop-color="#9F7DFC"/>
<stop offset="0.4197" stop-color="#9889FD"/>
<stop offset="0.6306" stop-color="#8C9DFD"/>
<stop offset="0.8409" stop-color="#7BB9FE"/>
<stop offset="1" stop-color="#6CD4FF"/>
</linearGradient>
<linearGradient id="paint1_linear_4145_1313" x1="6.15821" y1="12.6017" x2="6.15821" y2="6.05171" gradientUnits="userSpaceOnUse">
<stop offset="0.0011606" stop-color="#A179FC"/>
<stop offset="0.2096" stop-color="#9F7DFC"/>
<stop offset="0.4197" stop-color="#9889FD"/>
<stop offset="0.6306" stop-color="#8C9DFD"/>
<stop offset="0.8409" stop-color="#7BB9FE"/>
<stop offset="1" stop-color="#6CD4FF"/>
</linearGradient>
<linearGradient id="paint2_linear_4145_1313" x1="9.95384" y1="6.35937" x2="16.9532" y2="6.35937" gradientUnits="userSpaceOnUse">
<stop offset="0.0011606" stop-color="#FF600A"/>
<stop offset="1" stop-color="#FDB805"/>
</linearGradient>
<linearGradient id="paint3_linear_4145_1313" x1="12.476" y1="7.73397" x2="22.621" y2="7.73397" gradientUnits="userSpaceOnUse">
<stop offset="0.0011606" stop-color="#FF600A"/>
<stop offset="1" stop-color="#FDB805"/>
</linearGradient>
<linearGradient id="paint4_linear_4145_1313" x1="11.4825" y1="18.9416" x2="19.1282" y2="18.9416" gradientUnits="userSpaceOnUse">
<stop offset="0.0011606" stop-color="#269E3C"/>
<stop offset="0.1223" stop-color="#2FA23B"/>
<stop offset="0.3235" stop-color="#49AD37"/>
<stop offset="0.5798" stop-color="#72BE31"/>
<stop offset="0.8783" stop-color="#ABD529"/>
<stop offset="1" stop-color="#C4E025"/>
</linearGradient>
<linearGradient id="paint5_linear_4145_1313" x1="12.4221" y1="16.7709" x2="24.0007" y2="16.7709" gradientUnits="userSpaceOnUse">
<stop offset="0.0011606" stop-color="#269E3C"/>
<stop offset="0.1223" stop-color="#2FA23B"/>
<stop offset="0.3235" stop-color="#49AD37"/>
<stop offset="0.5798" stop-color="#72BE31"/>
<stop offset="0.8783" stop-color="#ABD529"/>
<stop offset="1" stop-color="#C4E025"/>
</linearGradient>
</defs>
</svg>
