<svg width="50" height="50" viewBox="0 0 50 50" fill="none" xmlns="http://www.w3.org/2000/svg">
<g clip-path="url(#clip0_1478_5661)">
<path d="M25 50C38.8071 50 50 38.8071 50 25C50 11.1929 38.8071 0 25 0C11.1929 0 0 11.1929 0 25C0 38.8071 11.1929 50 25 50Z" fill="#FEFB00"/>
<path d="M14.4705 19.1592C14.4705 19.0666 14.4705 18.9962 14.4705 18.9259C14.4742 18.4814 14.4705 18.037 14.4853 17.5925C14.5223 16.6259 14.6186 15.6629 14.8482 14.7185C15.1557 13.4629 15.7038 12.3333 16.5001 11.3148C17.9149 9.49995 19.7594 8.3444 21.9631 7.73699C23.1297 7.41477 24.326 7.31106 25.5334 7.3518C26.8223 7.39625 28.0742 7.63699 29.2779 8.11106C30.5408 8.60736 31.6742 9.31477 32.652 10.2592C33.2112 10.8 33.6964 11.4 34.1149 12.0518C34.7668 13.0629 35.1631 14.174 35.3779 15.3518C35.5594 16.337 35.6149 17.3333 35.6223 18.337C35.626 18.6037 35.6223 18.8666 35.6223 19.1222C35.6779 19.1777 35.7223 19.1407 35.7631 19.1333C36.1408 19.0555 36.5186 19.0111 36.9038 19.0296C37.4112 19.0555 37.8927 19.174 38.3371 19.4185C39.126 19.8555 39.6223 20.5185 39.826 21.3962C40.0631 22.4222 39.8223 23.3444 39.1742 24.1629C38.8557 24.5629 38.4705 24.8925 38.0483 25.1777C37.7001 25.4148 37.3445 25.6407 36.9927 25.874C36.8482 25.9666 36.7038 26.0629 36.5631 26.1555C36.5186 26.1851 36.4705 26.2148 36.4297 26.2481C36.2075 26.4222 36.1557 26.574 36.2408 26.8407C36.2668 26.9296 36.3112 27.0148 36.352 27.0963C36.8112 28.0333 37.4334 28.8481 38.1853 29.5666C39.0038 30.3518 39.9297 30.9814 40.9334 31.5C41.2038 31.6407 41.4742 31.7777 41.7408 31.9259C41.9742 32.0555 42.189 32.2111 42.3779 32.4C42.7668 32.7925 42.9816 33.2703 43.0112 33.8222C43.0371 34.2963 42.8964 34.7333 42.6408 35.1296C42.3594 35.5629 41.9964 35.9111 41.5557 36.1777C41.2001 36.3925 40.8297 36.574 40.452 36.737C40.0557 36.9074 39.652 37.0444 39.2371 37.1629C39.0964 37.2037 38.9557 37.2518 38.8149 37.3037C38.6557 37.3629 38.5408 37.4777 38.4705 37.637C38.4297 37.7296 38.389 37.8222 38.352 37.9185C38.0001 38.8259 37.3408 39.3777 36.4001 39.6C36.0482 39.6814 35.6927 39.7148 35.3334 39.7333C34.9371 39.7555 34.5371 39.7629 34.1408 39.7888C33.5075 39.8296 32.8853 39.937 32.2816 40.1296C32.0186 40.2111 31.7742 40.3259 31.5371 40.4666C31.2186 40.6518 30.9075 40.8407 30.5927 41.0333C30.0445 41.3666 29.489 41.6777 28.8964 41.9296C28.0742 42.2777 27.2186 42.5074 26.326 42.6111C25.5482 42.7037 24.7668 42.7111 23.989 42.6333C22.7964 42.5148 21.6668 42.1777 20.6001 41.6296C20.1631 41.4037 19.7408 41.1518 19.3223 40.8963C19.1408 40.7851 18.9594 40.6814 18.7816 40.5666C18.252 40.2333 17.6705 40.0444 17.0594 39.9259C16.4445 39.8037 15.8223 39.7666 15.1964 39.7444C14.7816 39.7296 14.3705 39.7111 13.9594 39.6444C13.6482 39.5925 13.352 39.5074 13.0705 39.3666C12.4853 39.0777 12.0705 38.6296 11.8149 38.0333C11.7668 37.9185 11.7223 37.8 11.6779 37.6851C11.6001 37.4851 11.4594 37.3444 11.2557 37.274C11.1297 37.2333 11.0038 37.1925 10.8779 37.1555C10.1557 36.9481 9.45936 36.674 8.8038 36.3111C8.37047 36.0703 7.98158 35.774 7.67047 35.3814C7.44825 35.1037 7.27417 34.8 7.18528 34.4555C7.0001 33.7111 7.17047 33.0481 7.67417 32.474C7.84084 32.2851 8.04084 32.1333 8.25195 32C8.47788 31.8592 8.71121 31.737 8.94825 31.6185C9.8038 31.1963 10.6112 30.6925 11.3482 30.0814C12.2186 29.3666 12.9594 28.537 13.5186 27.5555C13.6186 27.3814 13.7075 27.1963 13.8001 27.0148C13.8557 26.9111 13.8853 26.7963 13.9001 26.6814C13.9186 26.5592 13.8816 26.4481 13.8001 26.3555C13.7223 26.2666 13.626 26.2 13.526 26.137C13.0557 25.8296 12.5853 25.5222 12.1149 25.2111C11.8149 25.0148 11.5334 24.7888 11.2742 24.537C10.8853 24.1555 10.5705 23.7222 10.3816 23.2074C9.95195 22.0592 10.2371 20.7333 11.0964 19.8963C11.5631 19.4407 12.126 19.174 12.7668 19.0629C13.2668 18.9777 13.7631 18.9963 14.2557 19.1074C14.3149 19.1296 14.3742 19.1407 14.4705 19.1592Z" fill="black"/>
<path d="M33.6111 19.1185C33.6037 19.8073 33.5704 20.4925 33.5185 21.1777C33.5111 21.2962 33.5074 21.411 33.5037 21.5296C33.5 21.7851 33.6444 21.8888 33.9 21.8666C33.9926 21.8592 34.0852 21.8333 34.1741 21.8036C34.4222 21.7147 34.6741 21.6222 34.9185 21.5296C35.3333 21.3703 35.7481 21.2147 36.1852 21.1147C36.4778 21.0481 36.7667 21.011 37.0667 21.0814C37.7407 21.237 38.0889 21.9073 37.8296 22.5481C37.7629 22.7185 37.6592 22.8629 37.537 22.9962C37.3629 23.1888 37.1667 23.3518 36.9518 23.4999C36.7 23.6703 36.4444 23.837 36.1926 24.0036C35.7704 24.2814 35.3444 24.5592 34.9222 24.8407C34.7481 24.9592 34.5778 25.0814 34.4111 25.211C34.3185 25.2814 34.2333 25.3629 34.1555 25.4518C33.9963 25.6296 33.9222 25.837 33.937 26.074C33.9518 26.2999 33.9926 26.5222 34.0555 26.7407C34.2555 27.4444 34.5629 28.0999 34.937 28.7222C35.6259 29.874 36.5148 30.8518 37.5518 31.6962C38.4333 32.4147 39.3963 33.0036 40.4148 33.5036C40.5074 33.5481 40.5963 33.5962 40.6815 33.6481C40.7481 33.6888 40.8074 33.7407 40.8518 33.8073C40.9222 33.9036 40.9296 34.0073 40.8704 34.1147C40.8222 34.2073 40.7481 34.2777 40.6704 34.3407C40.5555 34.437 40.4259 34.511 40.2963 34.5814C39.7185 34.8962 39.1037 35.1185 38.4704 35.2888C38.2 35.3629 37.9296 35.4407 37.6592 35.5185C37.4704 35.574 37.2963 35.6555 37.1222 35.7444C36.8296 35.8962 36.6629 36.137 36.6037 36.4555C36.5704 36.6333 36.5481 36.811 36.5185 36.9851C36.437 37.4296 36.2778 37.5925 35.8407 37.6703C35.6889 37.6962 35.5296 37.711 35.3741 37.7222C34.9852 37.7444 34.5926 37.7555 34.2037 37.7777C33.3185 37.8259 32.4518 37.9629 31.6074 38.2407C31.2518 38.3592 30.9074 38.511 30.5852 38.6962C30.2407 38.8925 29.9 39.0999 29.5592 39.3073C29.0185 39.6333 28.4704 39.9444 27.8778 40.174C27.2185 40.4296 26.537 40.5814 25.8333 40.6444C25.2407 40.6999 24.6481 40.6888 24.0555 40.6222C23.1704 40.5222 22.3333 40.2666 21.5407 39.8592C21.1741 39.6703 20.8185 39.4592 20.4629 39.2444C20.2037 39.0851 19.9444 38.9296 19.6815 38.774C19.0592 38.4036 18.3852 38.1666 17.6778 38.011C17.037 37.8703 16.3852 37.7925 15.7296 37.7703C15.3852 37.7555 15.0444 37.7444 14.7 37.7222C14.5037 37.711 14.3111 37.6851 14.1222 37.637C13.8555 37.5666 13.6852 37.4036 13.6296 37.1333C13.6 36.9814 13.5741 36.8259 13.5481 36.674C13.5444 36.6444 13.5407 36.611 13.537 36.5814C13.4778 36.174 13.2778 35.874 12.8926 35.6999C12.6555 35.5925 12.4148 35.5073 12.1666 35.437C11.737 35.3185 11.3074 35.2147 10.8889 35.0629C10.5222 34.9296 10.1629 34.774 9.8222 34.5888C9.7185 34.5333 9.6185 34.4703 9.5222 34.4073C9.45924 34.3629 9.39628 34.3147 9.34443 34.2592C9.14443 34.0518 9.16295 33.8629 9.38887 33.6851C9.49998 33.5999 9.62961 33.5407 9.75554 33.4777C10.6481 33.0407 11.4926 32.5259 12.2815 31.9222C13.4037 31.0555 14.3666 30.0407 15.1111 28.8296C15.5074 28.1814 15.8333 27.4999 16.0444 26.7703C16.1111 26.537 16.1592 26.2999 16.1666 26.0592C16.1778 25.8185 16.0963 25.6147 15.937 25.4407C15.8407 25.337 15.7333 25.2481 15.6222 25.1629C15.2963 24.9185 14.9592 24.6962 14.6185 24.474C14.1889 24.1925 13.7555 23.911 13.3259 23.6296C13.1111 23.4888 12.9037 23.337 12.7148 23.1592C12.5778 23.0296 12.4555 22.8888 12.3592 22.7259C12.1555 22.3851 12.1407 22.0333 12.2963 21.6703C12.4037 21.4222 12.5852 21.2481 12.837 21.1518C13.1148 21.0444 13.4 21.0333 13.6889 21.0814C14.0296 21.137 14.3555 21.2407 14.6778 21.3592C15.0074 21.4777 15.3333 21.6073 15.6629 21.7296C15.8148 21.7888 15.9704 21.8444 16.1333 21.8703C16.1704 21.8777 16.2111 21.8888 16.2481 21.8851C16.437 21.8777 16.5926 21.8185 16.5926 21.5629C16.5926 21.3518 16.5815 21.1407 16.5666 20.9296C16.4889 19.7925 16.4592 18.6518 16.5074 17.511C16.537 16.7851 16.6111 16.0629 16.7741 15.3518C17 14.3629 17.4111 13.4666 18.0222 12.6555C19.1555 11.1592 20.6481 10.2147 22.437 9.71104C23.4148 9.43697 24.4148 9.34438 25.4259 9.37771C26.4963 9.41104 27.5333 9.61104 28.5296 9.99623C29.4778 10.3629 30.3407 10.874 31.0889 11.5666C32.0296 12.4407 32.7518 13.4629 33.1444 14.7036C33.3222 15.2629 33.4333 15.837 33.5037 16.4185C33.6148 17.3073 33.6185 18.2147 33.6111 19.1185Z" fill="white"/>
</g>
<defs>
<clipPath id="clip0_1478_5661">
<rect width="50" height="50" fill="white"/>
</clipPath>
</defs>
</svg>
