<svg width="24" height="19" viewBox="0 0 24 19" fill="none" xmlns="http://www.w3.org/2000/svg">
<path d="M17.9782 9.60246L17.9608 9.44445H17.9662C17.8152 8.21543 17.254 7.05664 16.3761 6.16932C15.3232 5.10372 13.9242 4.51758 12.4383 4.51758H7.95135L7.94868 4.52298H6.09804L6.09937 4.51758H5.65175C4.12447 4.51758 2.63861 5.15234 1.57366 6.25981C0.518059 7.36052 -0.0404733 8.80023 0.00228516 10.3142C0.0423712 11.7566 0.622283 13.1139 1.63379 14.1323C2.68271 15.1952 4.08037 15.7813 5.57157 15.7813H12.2553L12.302 17.6937C12.3114 18.1691 12.6882 18.5419 13.1599 18.5419C13.4485 18.5419 13.7171 18.396 13.8761 18.1516L16.8064 13.6488C17.3662 12.9357 17.747 12.0862 17.9114 11.1921L17.9274 11.0948C17.9795 10.7788 18.0063 10.4601 18.0063 10.1494C18.0049 9.95766 17.9956 9.77398 17.9782 9.60246ZM16.0821 11.1583L16.0527 11.2623H16.0461C15.9833 11.4757 15.8977 11.6877 15.7922 11.8971C15.688 12.1024 15.5583 12.309 15.414 12.4967L15.3913 12.5197L14.0137 14.6333C13.9429 14.2228 13.5848 13.9067 13.1625 13.9067C13.1118 13.9067 13.0663 13.9108 13.0249 13.9175C12.9554 13.9283 12.8873 13.9378 12.8178 13.9445C12.7015 13.958 12.5786 13.9634 12.441 13.9634H5.64774C4.58813 13.9634 3.56059 13.5178 2.82969 12.7412C2.11348 11.9754 1.7487 10.9841 1.80081 9.94821C1.90504 7.92101 3.56059 6.33409 5.5689 6.33409H6.02989L6.02855 6.32869H7.8498L7.85113 6.33409H12.3728C14.2128 6.33409 15.8042 7.659 16.1423 9.4431H16.153L16.1717 9.56465C16.1984 9.73077 16.2117 9.90364 16.2144 10.0792C16.2251 10.4479 16.1797 10.8112 16.0821 11.1583Z" fill="url(#paint0_linear_4145_1333)"/>
<path d="M23.9999 5.63186C23.9999 6.8987 23.5724 8.13987 22.7947 9.12848L19.8644 13.6313C19.7041 13.8771 19.4368 14.0243 19.1509 14.0243C18.6819 14.0243 18.3024 13.6515 18.289 13.1775L18.2423 11.2637H18.1861C18.1875 11.257 18.1888 11.2489 18.1901 11.2421L18.2062 11.1435C18.261 10.8126 18.289 10.4791 18.289 10.1509C18.289 10.0077 18.2837 9.86724 18.2743 9.73219H18.289L18.2529 9.44587H18.428C18.5402 9.44587 18.6618 9.44046 18.8101 9.42696C18.8716 9.42021 18.9464 9.41075 19.0146 9.39995C19.0587 9.39319 19.1041 9.39049 19.1509 9.39049C19.5718 9.39049 19.9299 9.70382 20.0047 10.1103L21.3797 7.99671L21.4037 7.9724C21.5373 7.80223 21.6696 7.59694 21.7845 7.37545C22.0678 6.81901 22.2121 6.18965 22.2014 5.55758C22.164 3.49527 20.4416 1.81651 18.3638 1.81651H11.5626C10.0006 1.81651 8.61358 2.77812 8.05238 4.23133H7.95216L7.75307 4.23673H6.45963L6.46096 4.23133H6.16833C6.40885 3.29944 6.88988 2.44047 7.566 1.73818C8.62695 0.634766 10.1128 0 11.6401 0H18.428C19.9179 0 21.3169 0.586146 22.3684 1.64904C23.42 2.71059 23.9999 4.12598 23.9999 5.63186Z" fill="#033A07"/>
<path d="M15.9328 10.0869C15.9408 10.3881 15.9087 10.6865 15.8379 10.9756H15.8352L15.7751 11.1808C15.7671 11.2079 15.7591 11.2349 15.7497 11.2619H11.5621C10.0749 11.2619 8.67588 10.6757 7.62161 9.61149C6.80787 8.78899 6.27606 7.75851 6.07697 6.62133L6.35757 6.61728H7.64032L7.64166 6.62268H7.92092C8.08127 7.21288 8.39127 7.76391 8.82152 8.22445C9.55243 9.00103 10.5786 9.44537 11.6369 9.44537H15.854L15.8646 9.49939L15.9087 9.73169H15.9101C15.9221 9.84513 15.9301 9.96398 15.9328 10.0869Z" fill="#033A07"/>
<defs>
<linearGradient id="paint0_linear_4145_1333" x1="0.000569202" y1="11.5293" x2="18.0055" y2="11.5293" gradientUnits="userSpaceOnUse">
<stop offset="0.0011606" stop-color="#269E3C"/>
<stop offset="0.1223" stop-color="#2FA23B"/>
<stop offset="0.3235" stop-color="#49AD37"/>
<stop offset="0.5798" stop-color="#72BE31"/>
<stop offset="0.8783" stop-color="#ABD529"/>
<stop offset="1" stop-color="#C4E025"/>
</linearGradient>
</defs>
</svg>
