<svg width="50" height="50" viewBox="0 0 50 50" fill="none" xmlns="http://www.w3.org/2000/svg">
<g clip-path="url(#clip0_1478_5670)">
<path d="M25 50C38.8071 50 50 38.8071 50 25C50 11.1929 38.8071 0 25 0C11.1929 0 0 11.1929 0 25C0 38.8071 11.1929 50 25 50Z" fill="url(#paint0_linear_1478_5670)"/>
<path d="M16.9221 26.826L19.8888 35.0371C19.8888 35.0371 20.2592 35.8037 20.6555 35.8037C21.0517 35.8037 26.9592 29.6593 26.9592 29.6593L33.5258 16.9741L17.0295 24.7075L16.9221 26.826Z" fill="#C8DAEA"/>
<path d="M20.8556 28.9333L20.2852 34.9852C20.2852 34.9852 20.0482 36.8408 21.9001 34.9852C23.7556 33.1296 25.5297 31.7 25.5297 31.7L20.8556 28.9333Z" fill="#A9C6D8"/>
<path d="M16.9779 27.1185L10.8779 25.1296C10.8779 25.1296 10.1482 24.8333 10.3853 24.1629C10.4334 24.0259 10.5297 23.9074 10.8223 23.7037C12.1741 22.7629 35.8445 14.2518 35.8445 14.2518C35.8445 14.2518 36.5112 14.0259 36.9075 14.1777C37.089 14.2444 37.2038 14.3222 37.3001 14.6074C37.3371 14.7111 37.3556 14.9296 37.3519 15.1444C37.3482 15.3 37.3297 15.4481 37.3149 15.674C37.1704 18 32.8556 35.3592 32.8556 35.3592C32.8556 35.3592 32.5964 36.374 31.6741 36.4111C31.3371 36.4222 30.926 36.3555 30.4371 35.9333C28.6223 34.3703 22.3482 30.1555 20.963 29.2296C20.8853 29.1777 20.863 29.1111 20.8482 29.0444C20.8297 28.9481 20.9334 28.8259 20.9334 28.8259C20.9334 28.8259 31.8556 19.1185 32.1445 18.1C32.1667 18.0222 32.0816 17.9814 31.9667 18.0148C31.2408 18.2814 18.6667 26.2222 17.2779 27.1C17.2038 27.1518 16.9779 27.1185 16.9779 27.1185Z" fill="white"/>
</g>
<defs>
<linearGradient id="paint0_linear_1478_5670" x1="25" y1="50" x2="25" y2="0" gradientUnits="userSpaceOnUse">
<stop stop-color="#1D93D2"/>
<stop offset="1" stop-color="#38B0E3"/>
</linearGradient>
<clipPath id="clip0_1478_5670">
<rect width="50" height="50" fill="white"/>
</clipPath>
</defs>
</svg>
