<svg width="32" height="32" viewBox="0 0 32 32" fill="none" xmlns="http://www.w3.org/2000/svg">
<path d="M27.3855 22.118C26.6282 20.8145 25.7255 18.3479 25.7255 14V13.1129C25.7255 7.71412 21.3959 3.28979 16.0741 3.25025C16.0492 3.25012 16.0246 3.25 15.9998 3.25C13.4173 3.25345 10.942 4.2826 9.11832 6.11107C7.29464 7.93953 6.27197 10.4175 6.27529 13V14C6.27529 18.3478 5.37209 20.8141 4.61428 22.1177C4.45912 22.3834 4.37676 22.6853 4.3755 22.993C4.37425 23.3007 4.45414 23.6032 4.60713 23.8702C4.76012 24.1371 4.98079 24.359 5.2469 24.5135C5.513 24.668 5.81513 24.7496 6.12282 24.75H11.2499V25C11.2499 26.2598 11.7503 27.468 12.6411 28.3588C13.5319 29.2496 14.7401 29.75 15.9999 29.75C17.2597 29.75 18.4679 29.2496 19.3586 28.3588C20.2494 27.468 20.7499 26.2598 20.7499 25V24.75H25.877C26.1846 24.7496 26.4867 24.668 26.7528 24.5136C27.0189 24.3592 27.2396 24.1373 27.3926 23.8704C27.5456 23.6035 27.6255 23.3009 27.6242 22.9933C27.623 22.6856 27.5406 22.3837 27.3855 22.118ZM19.2499 25C19.2499 25.862 18.9075 26.6886 18.298 27.2981C17.6885 27.9076 16.8618 28.25 15.9999 28.25C15.1379 28.25 14.3113 27.9076 13.7018 27.2981C13.0923 26.6886 12.7499 25.862 12.7499 25V24.75H19.2499V25ZM26.0897 23.1267C26.0689 23.1647 26.038 23.1963 26.0005 23.218C25.963 23.2397 25.9203 23.2508 25.877 23.25H6.12282C6.07946 23.2508 6.03672 23.2397 5.9992 23.218C5.96167 23.1963 5.93081 23.1647 5.90993 23.1267C5.8868 23.0881 5.87469 23.0439 5.87491 22.9989C5.87512 22.9539 5.88766 22.9098 5.91115 22.8715C6.76149 21.4086 7.77528 18.6819 7.77528 14V13C7.77198 10.8153 8.63667 8.71879 10.1791 7.17162C11.7216 5.62445 13.8154 4.75337 16.0001 4.75C16.0209 4.75 16.0421 4.75013 16.0629 4.75025C20.5637 4.7837 24.2255 8.53516 24.2255 13.1129V14C24.2255 18.6819 25.2387 21.4086 26.0886 22.8716C26.1121 22.91 26.1246 22.954 26.1248 22.999C26.125 23.044 26.1129 23.0881 26.0897 23.1267Z" fill="black"/>
</svg>
