<svg width="24" height="22" viewBox="0 0 24 22" fill="none" xmlns="http://www.w3.org/2000/svg">
<path d="M19.957 13.3727C19.957 13.2268 19.9512 13.0795 19.9396 12.9367C19.9396 12.9352 19.9396 12.9352 19.9396 12.9322C19.9137 12.5572 19.8632 12.1881 19.7896 11.828C19.7709 11.7298 19.7492 11.6315 19.7247 11.5348C19.6382 11.1732 19.5242 10.819 19.3886 10.4767C19.3569 10.3934 19.3252 10.313 19.2891 10.2327C19.1406 9.89037 18.9704 9.56 18.78 9.246C18.7396 9.18052 18.6992 9.11504 18.6574 9.05105C18.4583 8.74151 18.2391 8.44685 17.9967 8.17005C17.9549 8.11945 17.9116 8.07034 17.8684 8.02123C17.6232 7.7489 17.3592 7.49591 17.0794 7.26227C17.0375 7.22506 16.9928 7.19083 16.9481 7.15512C16.6669 6.92743 16.3668 6.72057 16.0553 6.53604C16.0134 6.51223 15.9702 6.48544 15.9283 6.46461C15.6168 6.28603 15.2922 6.13126 14.9547 5.99732C14.9143 5.98244 14.8768 5.96607 14.8365 5.95417C14.5018 5.82767 14.16 5.72499 13.8066 5.64909C13.7705 5.64016 13.7345 5.63421 13.6984 5.62677C13.3522 5.55534 12.996 5.5092 12.6339 5.48986C12.6007 5.48539 12.569 5.4839 12.5344 5.4839C12.4176 5.47795 12.3022 5.47498 12.1839 5.47498C11.9401 5.47498 11.7021 5.48539 11.4641 5.5092C11.4324 5.51069 11.4007 5.51367 11.3689 5.51813C11.0098 5.55683 10.6578 5.62082 10.316 5.70862C10.2843 5.71755 10.254 5.7235 10.2222 5.73243C9.87606 5.82618 9.5371 5.94375 9.20967 6.08364C9.17794 6.09703 9.14765 6.11042 9.11592 6.12531C8.78561 6.27115 8.46684 6.43931 8.1625 6.62979C8.13076 6.65212 8.09903 6.67146 8.06874 6.69081C7.76439 6.88725 7.47447 7.10303 7.20186 7.34114C7.16869 7.36941 7.13695 7.39769 7.10522 7.42597C6.83261 7.66556 6.57875 7.92748 6.34364 8.20577C6.31046 8.24297 6.27873 8.28166 6.24844 8.32184C6.01621 8.60311 5.80274 8.90074 5.60946 9.21474C5.57917 9.26237 5.55032 9.31296 5.52003 9.36356C5.3354 9.68054 5.17097 10.0124 5.02961 10.3547C5.00365 10.4187 4.97913 10.4797 4.95605 10.5422C4.82335 10.8845 4.71229 11.2401 4.62863 11.6047C4.61132 11.6792 4.59545 11.755 4.57959 11.8324C4.50603 12.1926 4.4541 12.5616 4.42958 12.9367C4.42958 12.9381 4.42958 12.9381 4.42958 12.9411C4.41948 13.0855 4.41227 13.2313 4.41227 13.3772C4.41083 13.4188 4.41083 13.4575 4.41083 13.4992C4.41083 17.9295 7.89277 21.5189 12.1839 21.5189C16.4779 21.5189 19.9598 17.9295 19.9598 13.4992C19.9584 13.4545 19.9584 13.4144 19.957 13.3727ZM12.1839 18.678C11.2507 18.678 10.492 17.8967 10.492 16.9324C10.492 15.9681 11.2507 15.1868 12.1839 15.1868C13.1186 15.1868 13.8758 15.9681 13.8758 16.9324C13.8758 17.8967 13.1186 18.678 12.1839 18.678Z" fill="url(#paint0_linear_4145_1284)"/>
<path d="M1.14233 12.9366H22.8561C22.8561 6.75033 17.9953 1.7352 11.9992 1.7352C6.0032 1.7352 1.14233 6.75033 1.14233 12.9366Z" fill="#8557CE"/>
<path d="M12.4334 11.7416C12.4854 12.0423 12.2906 12.328 11.9993 12.3801C11.7094 12.4336 11.431 12.2327 11.3805 11.9321L9.55587 1.25749C9.50394 0.95837 9.69867 0.671153 9.99003 0.617579C10.2814 0.565493 10.5583 0.764908 10.6103 1.06552L12.4334 11.7416Z" fill="#D3ADF7"/>
<path d="M12.1955 11.6271C12.3426 11.8905 12.2561 12.2283 11.9993 12.3816C11.744 12.5334 11.4166 12.4441 11.2695 12.1792L6.01483 2.79031C5.86771 2.5269 5.95425 2.18909 6.211 2.0373C6.4663 1.88402 6.79372 1.97479 6.94229 2.23969L12.1955 11.6271Z" fill="#D3ADF7"/>
<path d="M11.9329 11.6032C12.1594 11.7997 12.1882 12.1479 11.9993 12.3815C11.8103 12.6152 11.4728 12.6449 11.2463 12.45L3.19777 5.48239C2.97131 5.28595 2.94247 4.93772 3.13142 4.70408C3.32037 4.47043 3.65934 4.44067 3.88435 4.63562L11.9329 11.6032Z" fill="#D3ADF7"/>
<path d="M11.6805 11.6732C11.9574 11.7774 12.1017 12.0943 11.9993 12.3801C11.8983 12.6658 11.5911 12.8131 11.3141 12.709L1.43949 9.00341C1.16255 8.89924 1.01831 8.58226 1.11928 8.29653C1.22024 8.0108 1.52747 7.86198 1.80441 7.96615L11.6805 11.6732Z" fill="#D3ADF7"/>
<path d="M11.4642 11.8279C11.7599 11.8279 11.9993 12.075 11.9993 12.3801C11.9993 12.6836 11.7599 12.9322 11.4642 12.9322H0.956332C0.660641 12.9322 0.421204 12.6851 0.421204 12.3801C0.421204 12.075 0.660641 11.8279 0.956332 11.8279H11.4642Z" fill="#D3ADF7"/>
<path d="M12.533 12.9322C12.2373 12.9322 11.9978 12.6851 11.9993 12.3801C11.9993 12.075 12.2387 11.8279 12.5344 11.8279H23.0422C23.3379 11.8279 23.5774 12.075 23.5774 12.3801C23.5774 12.6851 23.3379 12.9322 23.0422 12.9322H12.533Z" fill="#D3ADF7"/>
<path d="M12.6845 12.7105C12.4061 12.8146 12.0988 12.6673 11.9993 12.3801C11.8984 12.0943 12.0411 11.7774 12.3195 11.6732L22.1927 7.96617C22.4697 7.862 22.7783 8.00932 22.8793 8.29654C22.9803 8.58227 22.8375 8.89925 22.5591 9.00342L12.6845 12.7105Z" fill="#D3ADF7"/>
<path d="M12.7523 12.4485C12.5258 12.6435 12.1883 12.6137 11.9993 12.3801C11.8089 12.1464 11.8392 11.7982 12.0657 11.6032L20.1142 4.63562C20.3407 4.43918 20.6782 4.47044 20.8686 4.70408C21.059 4.93772 21.0287 5.28595 20.8023 5.4809L12.7523 12.4485Z" fill="#D3ADF7"/>
<path d="M12.7291 12.1792C12.5806 12.4426 12.2546 12.5334 11.9979 12.3801C11.7425 12.2283 11.6546 11.8905 11.8017 11.6256L17.0549 2.2382C17.202 1.97331 17.5294 1.88402 17.7862 2.03581C18.0415 2.1876 18.1295 2.52542 17.9823 2.79031L12.7291 12.1792Z" fill="#D3ADF7"/>
<path d="M12.6195 11.9336C12.5676 12.2342 12.2907 12.4337 11.9993 12.3816C11.7094 12.328 11.5147 12.0423 11.5652 11.7431L13.3898 1.06554C13.4403 0.764925 13.7187 0.564023 14.01 0.617597C14.3014 0.671171 14.4947 0.956899 14.4442 1.25751L12.6195 11.9336Z" fill="#D3ADF7"/>
<path d="M23.4 10.3071C23.3481 10.0064 23.0711 9.80555 22.7798 9.85912L14.8942 11.2937L21.8292 7.16256C22.0845 7.00928 22.1725 6.67146 22.024 6.40806C21.8768 6.14465 21.5494 6.05387 21.2941 6.20567L14.3591 10.3383L19.507 4.00913C19.6959 3.77549 19.6671 3.42725 19.4406 3.23082C19.2142 3.03438 18.8767 3.06563 18.6863 3.29927L13.5398 9.62845L16.2789 1.86468C16.3799 1.57895 16.2371 1.26197 15.9587 1.15631C15.6817 1.05214 15.3731 1.19947 15.2736 1.48668L12.5344 9.25195V0.988146C12.5344 0.683071 12.295 0.436035 11.9993 0.436035C11.7036 0.436035 11.4642 0.683071 11.4642 0.988146V9.25046L8.72508 1.48668C8.62411 1.20095 8.31688 1.05363 8.03994 1.15631C7.763 1.26048 7.61876 1.57746 7.71973 1.86319L10.4588 9.62845L5.31093 3.29927C5.12198 3.06563 4.78446 3.03587 4.55656 3.23082C4.33011 3.42577 4.30126 3.774 4.49021 4.00764L9.63812 10.3368L2.70453 6.20715C2.44922 6.05387 2.1218 6.14465 1.97323 6.40954C1.82467 6.67295 1.91265 7.01077 2.1694 7.16405L9.10443 11.2952L1.21742 9.85912C0.926055 9.80703 0.649115 10.0064 0.597189 10.3071C0.545263 10.6077 0.739986 10.8934 1.03135 10.947L11.3805 12.828C11.6719 12.8816 11.9488 12.6807 11.9993 12.3801C12.0498 12.6792 12.3282 12.8801 12.6181 12.828L22.9658 10.9455C23.2572 10.8934 23.4519 10.6062 23.4 10.3071Z" fill="#EFDBFF"/>
<path d="M23.1807 11.4024C23.1793 11.383 23.1764 11.3637 23.1721 11.3428C23.4865 11.2357 23.7303 10.9648 23.8067 10.6226C23.837 10.4931 23.8385 10.3621 23.8168 10.2297C23.8067 10.1657 23.7865 10.1002 23.7634 10.0377C23.6192 9.66268 23.2615 9.41118 22.8706 9.41118C22.8302 9.41118 22.7898 9.41267 22.7523 9.41713C22.7509 9.41118 22.748 9.40225 22.7437 9.39481C23.2139 9.19242 23.4504 8.6418 23.2745 8.14475C23.1374 7.75634 22.7754 7.49442 22.373 7.49442C22.2605 7.49442 22.1509 7.51376 22.0456 7.55395L22.0081 7.56883C22.0081 7.56734 22.0066 7.56436 22.0066 7.56287C22.0196 7.55692 22.0326 7.54799 22.0441 7.54055C22.3167 7.37685 22.4941 7.0822 22.5158 6.75033C22.5172 6.72801 22.5172 6.7042 22.5172 6.68039C22.5172 6.64765 22.5172 6.60896 22.5114 6.55985C22.497 6.42889 22.4538 6.30388 22.3903 6.18929C22.3586 6.12977 22.3211 6.07619 22.2763 6.0256C22.096 5.81428 21.835 5.69373 21.5595 5.69373C21.3907 5.69373 21.2234 5.73987 21.0777 5.82618C21.0633 5.83511 21.0474 5.84404 21.033 5.85446L21.0013 5.8738L21.0734 5.81279C21.4773 5.46158 21.5306 4.83655 21.1917 4.41986C21.007 4.19515 20.7416 4.06568 20.4575 4.06568C20.231 4.06568 20.0132 4.14604 19.8416 4.29634L19.7738 4.35587L19.8012 4.32164C19.8098 4.31271 19.8199 4.3023 19.8286 4.29039C20.1228 3.93025 20.1286 3.40195 19.8459 3.03586C19.8084 2.98378 19.7608 2.93616 19.7132 2.89151C19.5401 2.7427 19.3194 2.66085 19.0959 2.66085C18.8103 2.66085 18.542 2.79032 18.3574 3.01652C18.3473 3.02991 18.3357 3.04479 18.3256 3.05968L18.304 3.08795L18.3487 3.00461C18.6127 2.53138 18.4569 1.92718 17.9996 1.65336C17.854 1.56555 17.6866 1.52091 17.5193 1.52091C17.1789 1.52091 16.8587 1.71139 16.6899 2.01647L16.6438 2.09683L16.6582 2.05516C16.6669 2.04028 16.6726 2.02391 16.677 2.00903C16.8082 1.63996 16.7101 1.22327 16.4318 0.952428C16.3366 0.858674 16.2269 0.787241 16.1014 0.741108C16.0077 0.70688 15.9125 0.689022 15.8058 0.684558H15.774C15.3702 0.684558 15.0081 0.946476 14.8711 1.33489C14.8653 1.35275 14.861 1.36912 14.8567 1.38697L14.8437 1.41971L14.861 1.32745C14.9519 0.790218 14.6028 0.278288 14.0821 0.181557C14.0273 0.172628 13.9725 0.166675 13.9148 0.166675C13.4489 0.166675 13.0522 0.51193 12.9715 0.985168L12.957 1.0819V1.04916C12.9585 1.02981 12.9585 1.01047 12.9585 0.989632C12.9585 0.520859 12.6354 0.111613 12.1911 0.017858L12.1623 0.0148817L12.1493 0.0133935C12.0945 0.00446451 12.0454 0 11.9993 0C11.9344 0 11.868 0.00595267 11.8046 0.0193462C11.3603 0.113101 11.0386 0.520859 11.0386 0.991121C11.0386 1.01047 11.0386 1.02535 11.0401 1.04321V1.08488L11.0228 0.991121C10.942 0.517883 10.5468 0.172628 10.0795 0.172628C10.0246 0.172628 9.96983 0.17858 9.91502 0.187509C9.39431 0.28424 9.04526 0.79617 9.13613 1.3334L9.15343 1.42715L9.14045 1.39293C9.13613 1.37358 9.1318 1.3587 9.12603 1.34084C8.989 0.95094 8.62408 0.689022 8.22309 0.689022C8.11058 0.689022 8.00096 0.708368 7.89567 0.748549C7.3966 0.936058 7.13841 1.50603 7.32015 2.02093C7.32592 2.03879 7.33313 2.05516 7.34179 2.07153L7.35477 2.10576L7.30861 2.02242C7.13697 1.71735 6.81964 1.52686 6.47924 1.52686C6.31048 1.52686 6.1446 1.57299 5.99892 1.65931C5.54168 1.93164 5.3859 2.53733 5.64842 3.01057L5.69746 3.0939L5.67149 3.06265C5.66284 3.04926 5.65274 3.03438 5.6412 3.02098C5.45658 2.79329 5.18829 2.66531 4.9027 2.66531C4.74404 2.66531 4.58537 2.70698 4.44546 2.78585C4.38776 2.81859 4.33295 2.8558 4.28535 2.89746C4.18583 2.98527 4.10505 3.08795 4.0488 3.207C3.87283 3.56119 3.92043 3.98829 4.16708 4.29337C4.18006 4.30825 4.19304 4.32164 4.20314 4.33206L4.2291 4.36331L4.15698 4.3023C3.98534 4.15199 3.76609 4.07163 3.54108 4.07163C3.25837 4.07163 2.98864 4.2011 2.8069 4.42284C2.64247 4.62523 2.56313 4.88119 2.58621 5.1446C2.60785 5.40652 2.72757 5.64611 2.92518 5.81428L2.99441 5.87827L2.96412 5.86041C2.9497 5.84702 2.93383 5.83809 2.91796 5.82767C2.77228 5.73987 2.60641 5.69522 2.43765 5.69522C2.09436 5.69522 1.77703 5.88571 1.60683 6.19227C1.57509 6.24882 1.54769 6.30984 1.52605 6.37383C1.38181 6.81879 1.56356 7.31286 1.95733 7.54502C1.97031 7.55097 1.98041 7.55841 1.9905 7.56436C1.9905 7.56585 1.98906 7.56883 1.98906 7.57032L1.94867 7.55543C1.84482 7.51674 1.73232 7.49591 1.62125 7.49591C1.22171 7.49591 0.859667 7.75783 0.72264 8.14624C0.634654 8.39327 0.647635 8.66114 0.755815 8.90223C0.856782 9.12694 1.03275 9.30106 1.25344 9.39481C1.252 9.40374 1.24911 9.41267 1.24767 9.41862C1.21017 9.41416 1.16978 9.41267 1.12939 9.41267C0.801971 9.41267 0.500511 9.58083 0.323096 9.86656C0.253861 9.9752 0.20482 10.1002 0.183184 10.2312C0.160106 10.3621 0.164433 10.4946 0.193281 10.624C0.266843 10.9663 0.510608 11.2372 0.827934 11.3443C0.823607 11.3637 0.822165 11.383 0.81928 11.4038C0.354829 11.4723 0 11.8845 0 12.3801C0 12.8399 0.30723 13.2283 0.719755 13.3385V13.3727H10.3391V13.6242C10.3391 14.0796 10.7011 14.4531 11.1425 14.4531C11.5868 14.4531 11.9459 14.0796 11.9459 13.6242V13.3727H12.0079V13.6242C12.0079 14.0796 12.3671 14.4531 12.8099 14.4531C13.2542 14.4531 13.6133 14.0796 13.6133 13.6242V13.3727H23.2802V13.3385C23.6928 13.2298 24 12.8414 24 12.3801C23.9986 11.8845 23.6437 11.4723 23.1807 11.4024ZM23.0408 12.9322H22.8562C22.8562 12.9337 22.8562 12.9337 22.8562 12.9367H13.1907V13.6242C13.1907 13.84 13.0219 14.0171 12.8099 14.0171C12.6008 14.0171 12.432 13.84 12.432 13.6242V12.9367H11.5247V13.6242C11.5247 13.84 11.356 14.0171 11.1439 14.0171C10.9348 14.0171 10.7631 13.84 10.7631 13.6242V12.9367H1.14238C1.14238 12.9352 1.14238 12.9322 1.14238 12.9322H0.95775C0.956307 12.9322 0.956308 12.9322 0.956308 12.9322C0.662059 12.9322 0.422622 12.6852 0.422622 12.3801C0.422622 12.075 0.662059 11.828 0.95775 11.828H1.1943C1.20873 11.6866 1.22459 11.5467 1.24334 11.4083C1.2621 11.2714 1.28373 11.1315 1.30681 10.9961H1.30537L1.27508 10.9901L1.06304 10.9514H1.05151C1.04718 10.9514 1.04141 10.9514 1.0342 10.9499C1.02122 10.9485 1.00823 10.9455 0.998137 10.941C0.960635 10.9321 0.926017 10.9187 0.892842 10.9023C0.882745 10.8979 0.871206 10.8919 0.861109 10.8845C0.829377 10.8666 0.799087 10.8458 0.771681 10.819C0.761584 10.8101 0.75293 10.8011 0.744276 10.7922C0.739948 10.7907 0.738506 10.7862 0.738506 10.7833C0.724082 10.7699 0.712543 10.7565 0.702446 10.7416C0.688022 10.7223 0.672156 10.7029 0.662059 10.6806C0.647635 10.6568 0.636096 10.63 0.625999 10.6017C0.62023 10.5868 0.613018 10.569 0.60869 10.5496C0.607248 10.5437 0.604363 10.5347 0.602921 10.5258C0.601478 10.5169 0.598594 10.5109 0.598594 10.502C0.597151 10.4871 0.594267 10.4693 0.592824 10.4544C0.588497 10.4068 0.591382 10.3562 0.598594 10.3085C0.604363 10.2669 0.617345 10.2282 0.631769 10.191C0.636096 10.1776 0.641865 10.1642 0.649077 10.1523C0.657732 10.1344 0.667829 10.1195 0.676483 10.1047C0.702446 10.063 0.734179 10.0258 0.767354 9.99603C0.781778 9.98115 0.797644 9.96776 0.81351 9.95734C0.835146 9.94246 0.85534 9.92609 0.878418 9.91567C0.895727 9.90674 0.910151 9.89781 0.928902 9.89186C0.95198 9.88144 0.977943 9.874 1.00246 9.86805C1.01977 9.86358 1.03564 9.85912 1.05295 9.85763C1.07603 9.85614 1.0991 9.85317 1.12507 9.85317C1.1568 9.85317 1.18709 9.85465 1.22027 9.8621C1.22459 9.8621 1.22892 9.86358 1.23325 9.86358C1.23469 9.86507 1.23757 9.86805 1.2419 9.86805L1.54048 9.92311H1.54192V9.92162C1.57798 9.78918 1.61548 9.65822 1.65587 9.52726C1.69626 9.3963 1.73809 9.26683 1.7828 9.13885H1.78136L1.43807 9.00789C1.16113 8.90372 1.01689 8.58673 1.1193 8.30101C1.12939 8.27273 1.14093 8.24594 1.15536 8.22213C1.18276 8.17005 1.21738 8.12391 1.25633 8.08969C1.35297 7.99296 1.48422 7.93938 1.61981 7.93938C1.68183 7.93938 1.74241 7.9498 1.80444 7.97212L2.19532 8.12094V8.11945C2.20109 8.10903 2.20542 8.1001 2.20975 8.0882C2.31937 7.85456 2.43765 7.62835 2.56025 7.40513L2.55881 7.40364L2.19532 7.18786C2.18667 7.18339 2.17657 7.17893 2.16792 7.17446C2.05974 7.11047 1.98185 7.01225 1.94002 6.90213C1.90252 6.8054 1.88954 6.69974 1.90829 6.59408C1.91261 6.57027 1.91838 6.54646 1.9256 6.52413C1.9256 6.52264 1.92704 6.51967 1.92704 6.51818C1.93714 6.48395 1.953 6.45121 1.97175 6.41847C1.99772 6.37532 2.02512 6.33514 2.06118 6.30091C2.11022 6.24882 2.16936 6.20864 2.23427 6.18334C2.2559 6.17292 2.2761 6.16548 2.29918 6.15953C2.34389 6.14614 2.39005 6.14018 2.4362 6.14018C2.52996 6.14018 2.62083 6.164 2.70449 6.21459C2.71459 6.22055 2.7218 6.22799 2.73045 6.23394L3.13432 6.47354L3.13577 6.47502C3.20933 6.36639 3.28577 6.26073 3.36222 6.15358C3.44011 6.04941 3.52088 5.94375 3.60166 5.84106L3.19346 5.48688C2.96701 5.29193 2.93816 4.9437 3.12855 4.71005C3.23385 4.5791 3.38674 4.51362 3.53819 4.51362C3.65935 4.51362 3.78196 4.55529 3.88148 4.64309L4.31997 5.02257H4.32141C4.49883 4.83953 4.68778 4.66243 4.87818 4.49278L4.87385 4.48832L4.51037 4.04038C4.5046 4.03443 4.49739 4.02699 4.49162 4.02103C4.46998 3.99425 4.45123 3.96597 4.43681 3.9377C4.43681 3.9377 4.43536 3.9377 4.43681 3.93621C4.37767 3.83352 4.35603 3.71596 4.36901 3.60286C4.36901 3.60137 4.36901 3.60137 4.36901 3.59839C4.37334 3.56119 4.38199 3.5225 4.39498 3.48678C4.3993 3.46743 4.40796 3.44958 4.41661 3.43172C4.41805 3.42279 4.42094 3.41684 4.42527 3.4094C4.42959 3.40344 4.43104 3.396 4.43536 3.39005C4.4671 3.3335 4.50748 3.2829 4.55797 3.23677C4.58393 3.21445 4.61278 3.1951 4.64018 3.17724C4.64162 3.17575 4.64451 3.17575 4.64595 3.17278C4.6647 3.16236 4.68634 3.15343 4.70798 3.1445C4.71663 3.14301 4.7224 3.13855 4.73105 3.13855C4.75269 3.12962 4.77144 3.12367 4.79308 3.12069C4.80317 3.11623 4.81183 3.11623 4.82048 3.11623C4.84645 3.11027 4.87097 3.1073 4.89693 3.1073H4.9027C4.96039 3.1073 5.01521 3.11623 5.07002 3.13557C5.16377 3.16682 5.24743 3.22337 5.31522 3.30522C5.32099 3.31118 5.32532 3.32011 5.33253 3.32903L5.71765 3.80525L5.71909 3.80674C5.91959 3.65792 6.12729 3.51654 6.33644 3.38112C6.33788 3.38112 6.33788 3.37963 6.34077 3.37963L6.01478 2.79627C5.86622 2.53286 5.95276 2.19356 6.20951 2.04177C6.29461 1.99117 6.38692 1.96736 6.47635 1.96736C6.66242 1.96736 6.84272 2.06707 6.94224 2.24416L7.28121 2.85133C7.28553 2.84984 7.28986 2.84687 7.29419 2.84538C7.40237 2.79329 7.51055 2.74121 7.61729 2.6921C7.72979 2.6415 7.84374 2.59239 7.96057 2.54626L7.95913 2.54477L7.73268 1.90337C7.72835 1.89444 7.72402 1.88551 7.7197 1.87509C7.67787 1.75455 7.67787 1.63103 7.71537 1.51793C7.72835 1.46585 7.75287 1.41525 7.7846 1.36912C7.79903 1.3453 7.81634 1.32298 7.83509 1.30512C7.8899 1.24113 7.96058 1.19351 8.03991 1.16375C8.10193 1.14143 8.16251 1.13101 8.22453 1.13101C8.33416 1.13101 8.44089 1.16524 8.52888 1.22923C8.61831 1.29322 8.68898 1.384 8.72937 1.49561C8.73081 1.50454 8.7337 1.51347 8.73514 1.5224V1.52389L8.96737 2.18463H8.96881V2.18612C9.20103 2.11618 9.43614 2.05367 9.67702 1.99861H9.67847V1.99712L9.55154 1.26346C9.50105 0.964333 9.69578 0.677117 9.9857 0.623543C10.0174 0.61759 10.0492 0.614614 10.0795 0.614614C10.2064 0.614614 10.329 0.662235 10.4227 0.744084C10.4458 0.763431 10.4675 0.785753 10.4876 0.809564C10.5064 0.833375 10.5237 0.860162 10.541 0.888437C10.5554 0.916712 10.5713 0.944987 10.5814 0.976239C10.5915 1.00749 10.6002 1.04023 10.6074 1.07297L10.7357 1.81705V1.82152C10.8569 1.80813 10.9766 1.79473 11.0978 1.78283C11.1915 1.7739 11.2839 1.76794 11.379 1.76348C11.4007 1.76199 11.4194 1.75902 11.4411 1.75902C11.4497 1.75753 11.4555 1.75753 11.4642 1.75753V1.02832C11.4642 1.0194 11.4627 1.01047 11.4627 1.00005C11.4627 0.980703 11.4627 0.961357 11.467 0.940523C11.467 0.922665 11.4714 0.903319 11.4757 0.88546C11.4771 0.867602 11.4815 0.851233 11.4887 0.833375C11.493 0.815517 11.4988 0.799147 11.5074 0.782777C11.5132 0.763431 11.5247 0.741108 11.5348 0.721762C11.5493 0.694975 11.5666 0.669676 11.5882 0.645865C11.594 0.636936 11.5983 0.630984 11.6055 0.626519C11.6156 0.611637 11.6286 0.598244 11.6416 0.589315C11.6675 0.562528 11.6949 0.543182 11.7238 0.525324C11.7497 0.507466 11.7772 0.494072 11.8046 0.483655C11.832 0.470261 11.8637 0.461332 11.894 0.45538C11.9272 0.449427 11.9632 0.444963 12.0022 0.444963C12.0209 0.444963 12.0397 0.446451 12.057 0.446451C12.0714 0.450915 12.0873 0.452403 12.1017 0.45538H12.1103C12.1406 0.461332 12.1724 0.470261 12.1998 0.483655C12.2272 0.494072 12.2546 0.507466 12.2805 0.525324C12.3108 0.543182 12.3382 0.562528 12.3628 0.589315C12.3757 0.598244 12.3887 0.611637 12.3988 0.626519C12.4046 0.630984 12.4089 0.636936 12.4161 0.645865C12.4378 0.669676 12.4536 0.696463 12.4695 0.721762C12.4796 0.741108 12.4911 0.763431 12.4969 0.782777C12.5056 0.797659 12.5113 0.815517 12.5157 0.833375C12.5214 0.851233 12.5258 0.867602 12.5286 0.88546C12.533 0.903319 12.5373 0.922665 12.5373 0.940523C12.5416 0.959869 12.5416 0.979215 12.5416 1.00005C12.5416 1.01344 12.5402 1.02386 12.5402 1.03428V1.75604C12.5488 1.75604 12.5546 1.75604 12.5633 1.75753C12.5849 1.75753 12.6036 1.75902 12.6253 1.76199C12.7205 1.76646 12.8142 1.77241 12.9065 1.78134L13.2686 1.82003V1.81557L13.3955 1.07148C13.4013 1.03874 13.4099 1.006 13.4215 0.974751C13.4316 0.943499 13.4474 0.915224 13.4619 0.886949C13.4936 0.831886 13.534 0.784265 13.5801 0.742596C13.6739 0.662235 13.7965 0.613126 13.9234 0.613126C13.9552 0.613126 13.9869 0.614614 14.0172 0.622055C14.3086 0.674141 14.5033 0.962845 14.4528 1.26197L14.3259 1.99563V2.0001C14.5667 2.05219 14.8033 2.11618 15.037 2.18612V2.18463H15.0384L15.2706 1.52389C15.2721 1.51496 15.2721 1.50603 15.2764 1.49561C15.3355 1.32745 15.4668 1.20691 15.6211 1.1578C15.6269 1.1578 15.6341 1.15631 15.6399 1.15333C15.686 1.13994 15.7308 1.13398 15.7784 1.13398C15.7856 1.13398 15.7928 1.1325 15.8 1.13398C15.8274 1.13547 15.8548 1.13845 15.8822 1.14291C15.9096 1.14738 15.937 1.15333 15.9644 1.16524C15.9918 1.17565 16.0178 1.18756 16.0409 1.20244C16.0639 1.21583 16.087 1.23072 16.1087 1.24857L16.1101 1.25006C16.1231 1.25899 16.1361 1.27238 16.1476 1.2828C16.1563 1.28875 16.162 1.29768 16.1692 1.30661C16.188 1.32596 16.2053 1.3453 16.2197 1.36763C16.2197 1.36912 16.2197 1.36912 16.2197 1.36912C16.237 1.39293 16.25 1.41674 16.2601 1.44055C16.325 1.57151 16.338 1.72925 16.2861 1.87509C16.2846 1.87956 16.2817 1.88105 16.2803 1.88551C16.2789 1.88997 16.276 1.89146 16.276 1.89593L16.0481 2.54477L16.0466 2.54626C16.1635 2.59239 16.2774 2.64299 16.3899 2.6921C16.4981 2.73972 16.6063 2.79181 16.713 2.84538C16.7174 2.84687 16.7217 2.84984 16.726 2.85133L17.065 2.24416C17.0909 2.201 17.1198 2.16082 17.1544 2.12659C17.2554 2.02391 17.3909 1.96736 17.5294 1.96736C17.5972 1.96736 17.6664 1.98075 17.7328 2.00903C17.7559 2.01796 17.7775 2.02837 17.7977 2.04177C18.0516 2.19505 18.141 2.53286 17.9924 2.79627L17.6664 3.37963V3.38112C17.8785 3.51357 18.0847 3.65792 18.2881 3.80674L18.2896 3.80525L18.6747 3.33201C18.6805 3.32308 18.6848 3.31415 18.692 3.30522C18.7973 3.17426 18.9502 3.1073 19.1045 3.1073C19.1665 3.1073 19.2271 3.11771 19.2863 3.14152C19.344 3.16087 19.3988 3.19361 19.4492 3.23826C19.4709 3.25611 19.4896 3.27546 19.5069 3.29778C19.5127 3.30225 19.5199 3.31118 19.5257 3.31713C19.5271 3.32159 19.53 3.32308 19.5315 3.32755C19.5459 3.3454 19.5574 3.36177 19.5675 3.38261C19.5762 3.39749 19.5848 3.41386 19.5906 3.43023V3.43172C19.6007 3.44958 19.6079 3.46595 19.6122 3.4838C19.6209 3.50315 19.6252 3.5225 19.6267 3.54333C19.6324 3.55672 19.6353 3.57161 19.6353 3.585C19.6368 3.59839 19.6396 3.61179 19.6368 3.62369C19.6454 3.73084 19.6238 3.83799 19.569 3.93323C19.5704 3.93472 19.569 3.93472 19.569 3.93472C19.5545 3.96299 19.5358 3.99127 19.5142 4.01806C19.5098 4.02252 19.5041 4.02699 19.4997 4.03294L19.1319 4.48534L19.1276 4.48981C19.318 4.65946 19.5055 4.83655 19.6844 5.01959H19.6858L20.1214 4.64011C20.2224 4.55231 20.3435 4.51064 20.4661 4.51064C20.5238 4.51064 20.5801 4.51957 20.6349 4.53892C20.6897 4.55677 20.7402 4.58505 20.7892 4.62225C20.821 4.64606 20.8513 4.67434 20.8758 4.70708C21.0647 4.94072 21.0344 5.29044 20.808 5.4839L20.4012 5.83809C20.5642 6.04345 20.7157 6.25477 20.8671 6.47056L20.8686 6.46907L21.2724 6.22948C21.2739 6.22799 21.2768 6.22501 21.2782 6.22501C21.284 6.21906 21.2883 6.21459 21.2955 6.21162C21.3402 6.18483 21.3849 6.16548 21.4311 6.15507C21.4758 6.14465 21.5205 6.13721 21.5638 6.13721H21.5696C21.5883 6.13721 21.61 6.1387 21.6287 6.14167C21.6431 6.14316 21.6604 6.14614 21.6749 6.1506C21.6893 6.15209 21.7052 6.15656 21.7196 6.16102C21.8018 6.18781 21.8782 6.23096 21.9417 6.29644C21.9504 6.3024 21.959 6.3143 21.9677 6.32323C21.9691 6.32769 21.9734 6.32918 21.9734 6.33365C21.9951 6.35746 22.0138 6.38573 22.0311 6.41401C22.0499 6.44675 22.0629 6.48098 22.0758 6.51669C22.0802 6.53157 22.0859 6.54943 22.0903 6.56729C22.0917 6.58515 22.096 6.60449 22.0989 6.62235C22.1004 6.64616 22.1004 6.66997 22.1004 6.69378V6.72504C22.1004 6.72652 22.1004 6.72652 22.1004 6.7295C22.1004 6.73248 22.1004 6.73099 22.1004 6.73396C22.0989 6.75331 22.096 6.77563 22.0917 6.79498C22.0903 6.80986 22.0859 6.82772 22.0816 6.8426C22.0773 6.86046 22.0715 6.87981 22.0629 6.89766C22.0571 6.91999 22.0456 6.94082 22.0326 6.96165C21.9879 7.04648 21.9201 7.12089 21.8335 7.17297C21.8249 7.17744 21.8191 7.17893 21.8119 7.1819L21.4412 7.40215L21.4398 7.40364C21.5681 7.63728 21.6922 7.87539 21.8032 8.11945H21.8047V8.11796L22.1956 7.97212C22.2547 7.9498 22.3167 7.93938 22.3773 7.93938C22.5143 7.93938 22.6441 7.99444 22.7437 8.08969C22.7841 8.12391 22.8172 8.17005 22.8446 8.22213C22.8591 8.24594 22.8706 8.27273 22.8807 8.30101C22.9817 8.58673 22.8389 8.9052 22.5619 9.01086L22.2186 9.14033H22.2172C22.2619 9.2698 22.3037 9.39779 22.3441 9.52875C22.3845 9.65971 22.422 9.79215 22.4581 9.92609H22.4595L22.7509 9.87103C22.7595 9.86954 22.7682 9.86656 22.7783 9.86507C22.81 9.85912 22.8418 9.85614 22.8735 9.85614C22.8908 9.85614 22.9067 9.85614 22.924 9.86061C22.9413 9.86061 22.9557 9.8621 22.9701 9.86656C22.9918 9.86805 23.0148 9.87549 23.0336 9.88442C23.0509 9.88591 23.0668 9.89335 23.0826 9.90228C23.0999 9.90823 23.1187 9.91716 23.1331 9.92906C23.1966 9.9618 23.25 10.0094 23.2932 10.069C23.3077 10.0883 23.3235 10.1076 23.3351 10.13C23.3351 10.1315 23.3351 10.1315 23.3351 10.1315C23.3495 10.1553 23.361 10.1821 23.3711 10.2074C23.3841 10.2401 23.3942 10.2773 23.4014 10.3145C23.4101 10.3666 23.4115 10.4216 23.4057 10.4737C23.4043 10.4931 23.4 10.5154 23.3956 10.5347C23.3827 10.5868 23.3653 10.6374 23.3379 10.6836C23.312 10.7312 23.2788 10.7758 23.2413 10.8145C23.224 10.8294 23.2052 10.8458 23.1865 10.8607C23.1245 10.9068 23.0509 10.941 22.9687 10.9544C22.9672 10.9559 22.9672 10.9559 22.9644 10.9559C22.96 10.9574 22.9543 10.9574 22.9471 10.9574H22.9413L22.6961 11.0035H22.6917C22.7379 11.2788 22.7783 11.5556 22.8057 11.8354H23.0422C23.1908 11.8354 23.3235 11.8994 23.4202 11.9976C23.5168 12.0973 23.5774 12.2357 23.5774 12.389C23.5759 12.6852 23.3365 12.9322 23.0408 12.9322Z" fill="#530AC6"/>
<defs>
<linearGradient id="paint0_linear_4145_1284" x1="14.2714" y1="17.5607" x2="4.22748" y2="8.61956" gradientUnits="userSpaceOnUse">
<stop offset="0.0011606" stop-color="#A179FC"/>
<stop offset="0.2096" stop-color="#9F7DFC"/>
<stop offset="0.4197" stop-color="#9889FD"/>
<stop offset="0.6306" stop-color="#8C9DFD"/>
<stop offset="0.8409" stop-color="#7BB9FE"/>
<stop offset="1" stop-color="#6CD4FF"/>
</linearGradient>
</defs>
</svg>
