<svg width="28" height="28" viewBox="0 0 28 28" fill="none" xmlns="http://www.w3.org/2000/svg">
<path d="M27.5814 17.3869C25.7113 24.8869 18.1137 29.4509 10.6119 27.581C3.11363 25.7111 -1.45132 18.1144 0.419205 10.6148C2.28842 3.11393 9.88558 -1.45092 17.3852 0.418946C24.8865 2.28881 29.4515 9.8864 27.5814 17.3869Z" fill="#F7931A"/>
<path d="M20.1736 12.0062C20.4518 10.1433 19.0333 9.14189 17.0936 8.47383L17.7228 5.95034L16.1862 5.56753L15.5736 8.02452C15.1702 7.92389 14.7554 7.82895 14.3432 7.73489L14.9602 5.26172L13.4248 4.87891L12.7952 7.40152C12.4609 7.32539 12.1327 7.25014 11.8142 7.17096L11.8159 7.16308L9.69731 6.63415L9.28864 8.27477C9.28864 8.27477 10.4285 8.53595 10.4044 8.55214C11.0266 8.70745 11.1395 9.11914 11.1202 9.44551L10.4035 12.3203C10.4464 12.3312 10.502 12.347 10.5632 12.3715L10.4013 12.3312L9.39628 16.3584C9.32015 16.5474 9.12719 16.8309 8.69226 16.7233C8.70758 16.7456 7.57564 16.4446 7.57564 16.4446L6.81299 18.2033L8.81259 18.7017C9.18451 18.7948 9.54898 18.8924 9.90734 18.9843L9.27158 21.5371L10.8061 21.9199L11.4361 19.3946C11.8549 19.5084 12.2618 19.6134 12.66 19.7123L12.0325 22.2257L13.5687 22.6085L14.2045 20.061C16.8241 20.5566 18.7944 20.3567 19.6227 17.9881C20.2908 16.0806 19.5899 14.9803 18.2116 14.2624C19.2153 14.03 19.9718 13.3699 20.1736 12.0062ZM16.6631 16.9276C16.1879 18.8351 12.9763 17.8043 11.9345 17.5453L12.7781 14.1639C13.8195 14.4238 17.158 14.9383 16.6631 16.9276ZM17.1378 11.9786C16.7047 13.7137 14.0312 12.8322 13.1636 12.6161L13.9284 9.5492C14.7961 9.76532 17.5894 10.1687 17.1378 11.9786Z" fill="white"/>
</svg>
