<svg width="24" height="32" viewBox="0 0 24 32" fill="none" xmlns="http://www.w3.org/2000/svg">
<path d="M24 9.71428V30.9718C24 31.2242 23.7943 31.4286 23.5403 31.4286H0.45974C0.205714 31.4286 0 31.2242 0 30.9718V0.456721C0 0.204363 0.205714 0 0.45974 0H13.7143L24 9.71428Z" fill="#D6ADFF"/>
<path d="M23.9999 9.71429H13.9344C13.8124 9.71429 13.7142 9.61944 13.7142 9.50164V0L23.9999 9.71429Z" fill="#33065F"/>
<path d="M5.42852 27.4286C3.37718 27.4286 1.71423 25.7656 1.71423 23.7143C1.71423 21.6629 3.37718 20 5.42852 20C7.47985 20 9.14281 21.6629 9.14281 23.7143C9.14281 25.7656 7.47985 27.4286 5.42852 27.4286ZM5.42852 26.6857C7.0696 26.6857 8.39995 25.3554 8.39995 23.7143C8.39995 22.0732 7.0696 20.7429 5.42852 20.7429C3.78744 20.7429 2.45709 22.0732 2.45709 23.7143C2.45709 25.3554 3.78744 26.6857 5.42852 26.6857ZM4.12852 24.4571H6.17138C6.27393 24.4571 6.35709 24.374 6.35709 24.2714C6.35709 24.1689 6.27393 24.0857 6.17138 24.0857H4.68567C4.17282 24.0857 3.75709 23.67 3.75709 23.1571C3.75709 22.6443 4.17282 22.2286 4.68567 22.2286H5.05709V21.4857H5.79995V22.2286H6.72852V22.9714H4.68567C4.58309 22.9714 4.49995 23.0546 4.49995 23.1571C4.49995 23.2597 4.58309 23.3428 4.68567 23.3428H6.17138C6.68421 23.3428 7.09995 23.7586 7.09995 24.2714C7.09995 24.7843 6.68421 25.2 6.17138 25.2H5.79995V25.9429H5.05709V25.2H4.12852V24.4571Z" fill="#33065F"/>
<path fill-rule="evenodd" clip-rule="evenodd" d="M12 20.1434C12 19.9067 12.1919 19.7148 12.4286 19.7148H19.5714C19.8081 19.7148 20 19.9067 20 20.1434C20 20.3801 19.8081 20.572 19.5714 20.572H12.4286C12.1919 20.572 12 20.3801 12 20.1434ZM12 22.4291C12 22.1924 12.1919 22.0006 12.4286 22.0006H19.5714C19.8081 22.0006 20 22.1924 20 22.4291C20 22.6658 19.8081 22.8577 19.5714 22.8577H12.4286C12.1919 22.8577 12 22.6658 12 22.4291ZM12 24.7148C12 24.4782 12.1919 24.2863 12.4286 24.2863H19.5714C19.8081 24.2863 20 24.4782 20 24.7148C20 24.9515 19.8081 25.1434 19.5714 25.1434H12.4286C12.1919 25.1434 12 24.9515 12 24.7148ZM12 27.0006C12 26.7639 12.1919 26.572 12.4286 26.572H17.2857C17.5224 26.572 17.7143 26.7639 17.7143 27.0006C17.7143 27.2373 17.5224 27.4291 17.2857 27.4291H12.4286C12.1919 27.4291 12 27.2373 12 27.0006Z" fill="#33065F"/>
</svg>
