<svg viewBox="0 0 256 256" xmlns="http://www.w3.org/2000/svg"><path d="m176 60h-96a4.0002 4.0002 0 0 0 -4 4v48a4.0002 4.0002 0 0 0 4 4h96a4.0002 4.0002 0 0 0 4-4v-48a4.0002 4.0002 0 0 0 -4-4zm-4 48h-88v-40h88zm28-79.99219h-144a12.01375 12.01375 0 0 0 -12 12v176a12.01375 12.01375 0 0 0 12 12h144a12.01375 12.01375 0 0 0 12-12v-176a12.01375 12.01375 0 0 0 -12-12zm4 188a4.00458 4.00458 0 0 1 -4 4h-144a4.00458 4.00458 0 0 1 -4-4v-176a4.00458 4.00458 0 0 1 4-4h144a4.00458 4.00458 0 0 1 4 4zm-68-68.00781a8 8 0 1 1 -8-8 8.00917 8.00917 0 0 1 8 8zm0 40a8 8 0 1 1 -8-8 8.00917 8.00917 0 0 1 8 8zm-40-40a8 8 0 1 1 -8-8 8.00917 8.00917 0 0 1 8 8zm0 40a8 8 0 1 1 -8-8 8.00917 8.00917 0 0 1 8 8zm80-40a8 8 0 1 1 -8-8 8.00917 8.00917 0 0 1 8 8zm0 40a8 8 0 1 1 -8-8 8.00917 8.00917 0 0 1 8 8z"/></svg>