<svg width="28" height="28" viewBox="0 0 28 28" fill="none" xmlns="http://www.w3.org/2000/svg">
<circle cx="14" cy="14" r="14" fill="#8E8E93"/>
<path d="M10.7247 16.8303C11.146 16.8303 11.4876 16.4888 11.4876 16.0675C11.4876 15.6462 11.146 15.3047 10.7247 15.3047C10.3034 15.3047 9.96191 15.6462 9.96191 16.0675C9.96191 16.4888 10.3034 16.8303 10.7247 16.8303Z" fill="white" stroke="white" stroke-linecap="round" stroke-linejoin="round"/>
<path d="M6.91064 12.2505V9.65691C6.91064 9.40414 7.11556 9.19922 7.36834 9.19922H21.7094C21.9622 9.19922 22.1671 9.40414 22.1671 9.65691V12.2505M6.91064 12.2505V19.421C6.91064 19.6738 7.11556 19.8787 7.36834 19.8787H21.7094C21.9622 19.8787 22.1671 19.6738 22.1671 19.421V12.2505M6.91064 12.2505H22.1671" stroke="white" stroke-linecap="round" stroke-linejoin="round"/>
</svg>
