<svg width="28" height="28" viewBox="0 0 28 28" fill="none" xmlns="http://www.w3.org/2000/svg">
<circle cx="14" cy="14" r="14" fill="#005D1F"/>
<path d="M10.7244 16.8303C11.1457 16.8303 11.4872 16.4888 11.4872 16.0675C11.4872 15.6462 11.1457 15.3047 10.7244 15.3047C10.3031 15.3047 9.96155 15.6462 9.96155 16.0675C9.96155 16.4888 10.3031 16.8303 10.7244 16.8303Z" fill="white" stroke="white" stroke-linecap="round" stroke-linejoin="round"/>
<path d="M6.91028 12.2505V9.65691C6.91028 9.40414 7.11519 9.19922 7.36797 9.19922H21.709C21.9618 9.19922 22.1667 9.40414 22.1667 9.65691V12.2505M6.91028 12.2505V19.421C6.91028 19.6738 7.11519 19.8787 7.36797 19.8787H21.709C21.9618 19.8787 22.1667 19.6738 22.1667 19.421V12.2505M6.91028 12.2505H22.1667" stroke="white" stroke-linecap="round" stroke-linejoin="round"/>
</svg>
