<svg width="24" height="24" viewBox="0 0 24 24" fill="none" xmlns="http://www.w3.org/2000/svg">
<g clip-path="url(#clip0_9_81)">
<path d="M8.38697 4.85084C8.85697 5.32084 9.12297 5.94684 9.11597 6.56884C9.10597 7.44584 9.52997 8.37784 10.489 9.59184C10.588 9.71684 10.734 9.78184 10.882 9.78184C10.99 9.78184 11.1 9.74684 11.191 9.67284C11.408 9.50184 11.444 9.18784 11.273 8.97084C10.226 7.64584 10.111 6.97184 10.116 6.57984C10.126 5.69084 9.75397 4.80284 9.06397 4.11584L4.43497 0.192844C4.22397 0.0138438 3.90697 0.0408438 3.72997 0.250844C3.55097 0.461844 3.57797 0.777844 3.78797 0.955844L8.38697 4.85084ZM6.14697 6.85384C6.24497 6.95084 6.37297 6.99984 6.50097 6.99984C6.62897 6.99984 6.75697 6.95084 6.85397 6.85384C7.04897 6.65884 7.04897 6.34184 6.85397 6.14684L2.35397 1.64684C2.15897 1.45184 1.84197 1.45184 1.64697 1.64684C1.45197 1.84184 1.45197 2.15884 1.64697 2.35384L6.14697 6.85384ZM6.73497 10.1198C7.31397 10.1628 8.04597 10.5398 8.97397 11.2728C9.06597 11.3458 9.17597 11.3808 9.28397 11.3808C9.43197 11.3808 9.57797 11.3158 9.67597 11.1908C9.84697 10.9738 9.81097 10.6598 9.59397 10.4888C8.48897 9.61484 7.60297 9.18084 6.80797 9.12284C6.20697 9.07884 5.35597 8.89184 4.72497 8.26084L0.863966 4.15684C0.674966 3.95584 0.357966 3.94684 0.156966 4.13584C-0.0440337 4.32484 -0.0530337 4.64184 0.135966 4.84284L4.00797 8.95684C4.68797 9.63684 5.63097 10.0388 6.73497 10.1198ZM23.561 21.4398L16.688 14.5668C16.493 14.3718 16.176 14.3718 15.981 14.5668C15.786 14.7618 15.786 15.0788 15.981 15.2738L22.854 22.1468C23.049 22.3418 23.049 22.6588 22.854 22.8538C22.659 23.0488 22.342 23.0488 22.147 22.8538L14.621 15.3278C14.426 15.1328 14.109 15.1328 13.914 15.3278C13.719 15.5228 13.719 15.8398 13.914 16.0348L21.44 23.5608C21.733 23.8528 22.117 23.9988 22.501 23.9988C22.885 23.9988 23.269 23.8528 23.561 23.5608C24.146 22.9758 24.146 22.0248 23.561 21.4398ZM23.68 2.18584C23.678 1.37184 23.402 0.685844 22.858 0.145844C22.678 -0.0341562 22.393 -0.0491562 22.194 0.109844C22.099 0.185844 20.434 1.83684 0.941966 21.3568C0.355966 21.9438 0.354966 22.8978 0.938966 23.4818C1.23197 23.7748 1.61697 23.9208 2.00097 23.9208C2.38397 23.9208 2.76697 23.7748 3.05897 23.4838L9.42397 17.1178C11.876 14.6668 12.938 14.3258 13.523 14.2838C14.622 14.2038 15.57 13.7948 16.266 13.0998C19.452 9.91384 23.686 5.31684 23.68 2.18584ZM13.45 13.2848C12.234 13.3728 10.818 14.3078 8.71597 16.4088L2.35097 22.7758C2.15697 22.9708 1.83997 22.9688 1.64497 22.7738C1.44997 22.5798 1.45197 22.2608 1.64897 22.0638C14.462 9.23184 20.911 2.78084 22.454 1.24884C22.605 1.51884 22.679 1.82884 22.679 2.18584C22.684 5.26384 17.321 10.6278 15.558 12.3908C15.035 12.9138 14.306 13.2228 13.45 13.2848Z" fill="white"/>
</g>
<defs>
<clipPath id="clip0_9_81">
<rect width="24" height="24" fill="white"/>
</clipPath>
</defs>
</svg>
