<svg width="21" height="23" viewBox="0 0 21 23" fill="none" xmlns="http://www.w3.org/2000/svg">
<path d="M8.75082 5.86667C8.67184 5.87056 8.59291 5.85827 8.5188 5.83056C8.44469 5.80284 8.37695 5.76026 8.31969 5.70542C8.26243 5.65057 8.21684 5.58459 8.18569 5.51149C8.15454 5.43838 8.13848 5.35968 8.13848 5.28014C8.13848 5.2006 8.15454 5.1219 8.18569 5.04879C8.21684 4.97569 8.26243 4.90971 8.31969 4.85486C8.37695 4.80002 8.44469 4.75744 8.5188 4.72972C8.59291 4.70201 8.67184 4.68972 8.75082 4.69361H15.7504C15.9 4.701 16.0412 4.76601 16.1445 4.8752C16.2479 4.98438 16.3055 5.12937 16.3055 5.28014C16.3055 5.43091 16.2479 5.5759 16.1445 5.68508C16.0412 5.79427 15.9 5.85929 15.7504 5.86667H8.75082ZM8.75082 10.5617C8.59599 10.5617 8.44751 10.4998 8.33804 10.3897C8.22856 10.2796 8.16706 10.1302 8.16706 9.97446C8.16706 9.81872 8.22856 9.66935 8.33804 9.55922C8.44751 9.4491 8.59599 9.38723 8.75082 9.38723H14.5842C14.7391 9.38723 14.8875 9.4491 14.997 9.55922C15.1065 9.66935 15.168 9.81872 15.168 9.97446C15.168 10.1302 15.1065 10.2796 14.997 10.3897C14.8875 10.4998 14.7391 10.5617 14.5842 10.5617H8.75082ZM8.75082 15.2553C8.67184 15.2592 8.59291 15.2469 8.5188 15.2192C8.44469 15.1915 8.37695 15.1489 8.31969 15.0941C8.26243 15.0392 8.21684 14.9732 8.18569 14.9001C8.15454 14.827 8.13848 14.7483 8.13848 14.6688C8.13848 14.5892 8.15454 14.5105 8.18569 14.4374C8.21684 14.3643 8.26243 14.2983 8.31969 14.2435C8.37695 14.1887 8.44469 14.1461 8.5188 14.1184C8.59291 14.0906 8.67184 14.0784 8.75082 14.0823H15.7504C15.8293 14.0784 15.9083 14.0906 15.9824 14.1184C16.0565 14.1461 16.1242 14.1887 16.1815 14.2435C16.2387 14.2983 16.2843 14.3643 16.3155 14.4374C16.3466 14.5105 16.3627 14.5892 16.3627 14.6688C16.3627 14.7483 16.3466 14.827 16.3155 14.9001C16.2843 14.9732 16.2387 15.0392 16.1815 15.0941C16.1242 15.1489 16.0565 15.1915 15.9824 15.2192C15.9083 15.2469 15.8293 15.2592 15.7504 15.2553H8.75082ZM5.83481 6.4539C5.52535 6.4539 5.22857 6.33023 5.00974 6.11011C4.79092 5.88999 4.66799 5.59144 4.66799 5.28014C4.66799 4.96884 4.79092 4.67029 5.00974 4.45017C5.22857 4.23005 5.52535 4.10638 5.83481 4.10638C6.14427 4.10638 6.44106 4.23005 6.65988 4.45017C6.8787 4.67029 7.00163 4.96884 7.00163 5.28014C7.00163 5.59144 6.8787 5.88999 6.65988 6.11011C6.44106 6.33023 6.14427 6.4539 5.83481 6.4539ZM5.83481 11.1475C5.52554 11.1475 5.22893 11.0239 5.01024 10.8039C4.79155 10.5839 4.66869 10.2856 4.66869 9.97446C4.66869 9.66335 4.79155 9.36498 5.01024 9.14499C5.22893 8.925 5.52554 8.80141 5.83481 8.80141C6.14409 8.80141 6.44069 8.925 6.65938 9.14499C6.87807 9.36498 7.00093 9.66335 7.00093 9.97446C7.00093 10.2856 6.87807 10.5839 6.65938 10.8039C6.44069 11.0239 6.14409 11.1475 5.83481 11.1475ZM5.83481 15.8425C5.52535 15.8425 5.22857 15.7189 5.00974 15.4987C4.79092 15.2786 4.66799 14.9801 4.66799 14.6688C4.66799 14.3575 4.79092 14.0589 5.00974 13.8388C5.22857 13.6187 5.52535 13.495 5.83481 13.495C6.14427 13.495 6.44106 13.6187 6.65988 13.8388C6.8787 14.0589 7.00163 14.3575 7.00163 14.6688C7.00163 14.9801 6.8787 15.2786 6.65988 15.4987C6.44106 15.7189 6.14427 15.8425 5.83481 15.8425ZM0.00139981 19.1843V0.585822C0.00139981 0.26193 0.263182 0 0.585161 0H20.4162C20.7382 0 21 0.26193 21 0.585822V19.1885C20.9995 19.4256 20.9261 19.6568 20.79 19.8503L18.9225 22.5006C18.808 22.6563 18.6586 22.7827 18.4865 22.8695C18.3143 22.9562 18.1243 23.0009 17.9317 23C17.7392 22.999 17.5496 22.9524 17.3783 22.8639C17.207 22.7755 17.0588 22.6476 16.9459 22.4908L15.5054 20.4446C15.4396 20.4207 15.4228 20.4291 15.4186 20.4348L13.9641 22.5006C13.8496 22.6563 13.7002 22.7827 13.528 22.8695C13.3559 22.9562 13.1658 23.0009 12.9733 23C12.7807 22.999 12.5911 22.9524 12.4198 22.8639C12.2485 22.7755 12.1004 22.6476 11.9874 22.4908L10.5469 20.4446C10.4825 20.4207 10.4643 20.4291 10.4615 20.4348L9.0056 22.5006C8.89106 22.6561 8.74173 22.7822 8.56971 22.8688C8.3977 22.9554 8.20783 23 8.01548 22.999C7.82314 22.9981 7.63372 22.9515 7.46256 22.8632C7.29141 22.7749 7.14334 22.6473 7.03033 22.4908L5.58843 20.4446C5.52403 20.4207 5.50723 20.4291 5.50303 20.4348L4.04713 22.5006C3.93255 22.6558 3.7833 22.7817 3.61142 22.8681C3.43954 22.9545 3.24986 22.999 3.05772 22.9981C2.86557 22.9971 2.67634 22.9507 2.50533 22.8626C2.33431 22.7744 2.1863 22.6471 2.07326 22.4908L0.211386 19.8503C0.0743801 19.6561 0.000536716 19.4239 0 19.1857L0.00139981 19.1843ZM1.16752 19.1744L3.0168 21.8007C3.08259 21.8247 3.10079 21.8148 3.10359 21.8106L4.5595 19.7447C4.67407 19.5896 4.82333 19.4637 4.99521 19.3773C5.16709 19.2908 5.35676 19.2463 5.54891 19.2473C5.74106 19.2482 5.93028 19.2947 6.1013 19.3828C6.27232 19.4709 6.42033 19.5983 6.53336 19.7546L7.97527 21.8007C8.03966 21.8247 8.05786 21.8148 8.06066 21.8106L9.51657 19.7447C9.63111 19.5893 9.78044 19.4632 9.95245 19.3766C10.1245 19.29 10.3143 19.2454 10.5067 19.2463C10.699 19.2473 10.8884 19.2938 11.0596 19.3821C11.2308 19.4704 11.3788 19.598 11.4918 19.7546L12.9337 21.8007C12.9981 21.8247 13.0149 21.8148 13.0191 21.8106L14.475 19.7447C14.5896 19.5893 14.7389 19.4632 14.9109 19.3766C15.0829 19.29 15.2728 19.2454 15.4652 19.2463C15.6575 19.2473 15.8469 19.2938 16.0181 19.3821C16.1892 19.4704 16.3373 19.598 16.4503 19.7546L17.8908 21.8007C17.9566 21.8247 17.9748 21.8148 17.9776 21.8106L19.8339 19.1744V1.17305H1.16752V19.1758V19.1744Z" fill="#FD4141"/>
</svg>
