<svg width="24" height="24" viewBox="0 0 24 24" fill="none" xmlns="http://www.w3.org/2000/svg">
<g clip-path="url(#clip0_108_1501)">
<rect width="24" height="24" fill="#FFEFEF"/>
<path d="M7.854 16.147C7.808 16.101 7.752 16.064 7.691 16.039C7.656 16.025 7.618 16.023 7.582 16.017C7.554 16.012 7.529 16 7.5 16C7.462 16 7.428 16.014 7.392 16.022C7.365 16.028 7.337 16.028 7.311 16.038C7.248 16.064 7.191 16.102 7.144 16.149L5.647 17.646C5.452 17.841 5.452 18.158 5.647 18.353C5.842 18.548 6.159 18.548 6.354 18.353L7 17.708V19.5C7 19.776 7.224 20 7.5 20C7.776 20 8 19.776 8 19.5V17.708L8.646 18.354C8.744 18.451 8.872 18.5 9 18.5C9.128 18.5 9.256 18.451 9.354 18.354C9.549 18.159 9.549 17.842 9.354 17.647L7.854 16.147ZM23 23H21V20H21.72C22.977 20 24 18.977 24 17.719C24 17.533 23.977 17.348 23.932 17.166L22.985 13.378C22.929 13.155 22.729 12.999 22.5 12.999H18.5C18.27 12.999 18.071 13.155 18.015 13.378L17.068 17.166C17.023 17.348 17 17.534 17 17.72C17 18.977 18.023 20 19.28 20H20V23H18C17.724 23 17.5 23.224 17.5 23.5C17.5 23.776 17.724 24 18 24H23C23.276 24 23.5 23.776 23.5 23.5C23.5 23.224 23.276 23 23 23ZM19.28 19C18.574 19 18 18.425 18 17.72C18 17.616 18.013 17.511 18.038 17.409L18.891 14H20.191L20.053 14.277C19.983 14.417 19.983 14.583 20.053 14.724L20.441 15.5L20.053 16.276C19.93 16.523 20.03 16.823 20.277 16.947C20.349 16.983 20.425 17 20.5 17C20.683 17 20.859 16.899 20.948 16.723L21.448 15.723C21.518 15.583 21.518 15.417 21.448 15.276L21.06 14.5L21.31 14H22.109L22.961 17.408C22.987 17.511 23 17.616 23 17.72C23 18.426 22.426 19 21.72 19H19.28ZM16.427 21.639L12 22.846V1.154L22.001 3.882V11.5C22.001 11.776 22.225 12 22.501 12C22.777 12 23.001 11.776 23.001 11.5V3.5C23.001 3.275 22.85 3.078 22.632 3.018L11.632 0.018C11.618 0.014 11.603 0.021 11.589 0.018C11.559 0.012 11.532 0 11.5 0C11.468 0 11.441 0.012 11.411 0.018C11.397 0.021 11.383 0.014 11.369 0.018L0.369 3.018C0.151 3.077 0 3.274 0 3.5V20.5C0 20.726 0.151 20.923 0.369 20.982L11.369 23.982C11.412 23.994 11.456 24 11.5 24C11.544 24 11.588 23.994 11.633 23.983L16.69 22.604C16.957 22.531 17.114 22.256 17.041 21.99C16.969 21.723 16.691 21.566 16.427 21.639ZM4 3.064L6.999 2.246V11.293L6.499 11.793L5.853 11.147C5.658 10.952 5.341 10.952 5.146 11.147L4.5 11.793L4 11.293V3.064ZM11 22.845L1.001 20.118V3.882L3 3.337V11.5C3 11.633 3.053 11.76 3.147 11.854L4.147 12.854C4.342 13.049 4.659 13.049 4.854 12.854L5.5 12.208L6.146 12.854C6.244 12.951 6.372 13 6.5 13C6.628 13 6.756 12.951 6.853 12.854L7.853 11.854C7.946 11.76 7.999 11.633 7.999 11.5V2C7.999 1.991 7.994 1.984 7.994 1.975L11 1.155V22.845Z" fill="#FD4141"/>
</g>
<defs>
<clipPath id="clip0_108_1501">
<rect width="24" height="24" fill="white"/>
</clipPath>
</defs>
</svg>
