<svg width="39" height="39" viewBox="0 0 39 39" fill="none" xmlns="http://www.w3.org/2000/svg">
<path d="M32.4485 6.26758C34.045 6.26758 35.2424 6.66416 36.0406 7.45734C36.7969 8.20877 37.1949 9.307 37.2347 10.752L37.238 10.9961V27.607C37.238 29.173 36.8389 30.35 36.0406 31.1381C35.2844 31.8847 34.1699 32.2777 32.6972 32.3169L32.4485 32.3202H6.18235C4.58584 32.3202 3.38846 31.9262 2.5902 31.1381C1.83396 30.3915 1.43594 29.2958 1.39614 27.851L1.39282 27.607V10.9961C1.39282 9.41993 1.79195 8.23781 2.5902 7.44972C3.34645 6.7031 4.46091 6.31015 5.93359 6.27085L6.18235 6.26758L32.4485 6.26758ZM3.8486 27.4697C3.8486 28.2628 4.05197 28.8603 4.45872 29.2619C4.8342 29.6327 5.3613 29.8324 6.04003 29.8609L6.21287 29.8644L18.385 29.864V21.7802H18.2782C18.024 22.5632 17.6249 23.3106 17.0808 24.0224C16.5368 24.7342 15.9165 25.3749 15.2199 25.9443C14.5234 26.5138 13.8166 26.979 13.0997 27.34C12.3828 27.701 11.7346 27.9273 11.1549 28.0188C10.7177 28.0798 10.3745 27.9832 10.1253 27.729C9.8762 27.4748 9.75163 27.1799 9.75163 26.8443C9.75163 26.4782 9.85841 26.1808 10.072 25.952C10.2588 25.7518 10.5118 25.6236 10.831 25.5674L10.9719 25.5478C11.5007 25.4868 12.065 25.291 12.665 24.9605C13.265 24.63 13.8471 24.2233 14.4115 23.7402C14.9759 23.2572 15.4792 22.7488 15.9216 22.2149C16.3086 21.7478 16.612 21.3059 16.8317 20.8894L16.9207 20.7124L3.84843 20.7122L3.8486 27.4697ZM34.7817 20.7122L21.7102 20.7124C21.9339 21.1802 22.267 21.681 22.7093 22.2149C23.1517 22.7488 23.655 23.2572 24.2194 23.7402C24.7838 24.2233 25.3634 24.63 25.9583 24.9605C26.487 25.2543 26.9897 25.4416 27.4663 25.5224L27.6438 25.5478C28.0403 25.5884 28.3454 25.7232 28.559 25.952C28.7724 26.1808 28.8791 26.4782 28.8791 26.8443C28.8791 27.1799 28.7546 27.4748 28.5056 27.729C28.2564 27.9832 27.9132 28.0798 27.476 28.0188C26.8862 27.9273 26.2354 27.701 25.5236 27.34C24.8117 26.979 24.1075 26.5138 23.411 25.9443C22.7144 25.3749 22.0941 24.7342 21.55 24.0224C21.0665 23.3897 20.6974 22.7288 20.4428 22.0399L20.3527 21.7802H20.2305V29.864L32.4182 29.8644C33.1706 29.8644 33.7527 29.6636 34.1644 29.2619C34.5447 28.8912 34.7494 28.3536 34.7787 27.6492L34.7823 27.4697L34.7817 20.7122ZM32.5888 8.72696L32.4182 8.72335L20.2305 8.72319V13.9553C20.5662 13.3044 20.9755 12.7426 21.4585 12.2698C21.9416 11.7969 22.4729 11.4334 23.0525 11.1792C23.6321 10.9249 24.2372 10.7978 24.8677 10.7978C25.9659 10.7978 26.8785 11.1614 27.6056 11.8884C28.3327 12.6155 28.6962 13.5383 28.6962 14.6569C28.6962 15.2975 28.559 15.895 28.2844 16.4492C28.0098 17.0034 27.626 17.4991 27.1328 17.9364C26.7012 18.319 26.2094 18.6471 25.6571 18.9207L25.4168 19.0346H34.7817L34.7823 11.1334C34.7823 10.3402 34.5764 9.74026 34.1644 9.33351C33.7844 8.95803 33.2592 8.75585 32.5888 8.72696ZM18.385 8.72319L6.21287 8.72335C5.45021 8.72335 4.86549 8.92674 4.45872 9.33351C4.08326 9.70897 3.88109 10.2491 3.85221 10.9538L3.8486 11.1334L3.84843 19.0346H13.1989C12.5582 18.7397 11.9913 18.3736 11.4981 17.9364C11.0049 17.4991 10.6185 17.0034 10.3389 16.4492C10.0592 15.895 9.91941 15.2975 9.91941 14.6569C9.91941 13.5383 10.2855 12.6155 11.0176 11.8884C11.7498 11.1614 12.6599 10.7978 13.748 10.7978C14.3886 10.7978 14.9988 10.9249 15.5784 11.1792C16.158 11.4334 16.6893 11.7969 17.1724 12.2698C17.595 12.6835 17.9573 13.1654 18.2593 13.7154L18.385 13.9553V8.72319ZM13.87 12.9638C13.3209 12.9638 12.8837 13.129 12.5582 13.4595C12.2328 13.79 12.0701 14.2451 12.0701 14.8247C12.0701 15.3026 12.2176 15.778 12.5125 16.2509C12.8074 16.7237 13.2141 17.1508 13.7327 17.5322C14.2514 17.9135 14.8462 18.2211 15.5174 18.455C16.1046 18.6596 16.723 18.7747 17.3726 18.8003L17.6529 18.8058H18.1104V18.3787C18.1104 17.6465 17.9986 16.9551 17.7749 16.3043C17.5512 15.6534 17.241 15.0764 16.8444 14.573C16.4478 14.0696 15.9953 13.6756 15.4869 13.3909C14.9784 13.1061 14.4395 12.9638 13.87 12.9638ZM24.7456 12.9638C24.1863 12.9638 23.6525 13.1061 23.144 13.3909C22.6356 13.6756 22.1831 14.0696 21.7865 14.573C21.3899 15.0764 21.0772 15.6534 20.8484 16.3043C20.6482 16.8737 20.5356 17.4743 20.5106 18.106L20.5052 18.3787V18.8058H20.9628C21.7255 18.8058 22.4424 18.6889 23.1135 18.455C23.7847 18.2211 24.377 17.9135 24.8905 17.5322C25.4041 17.1508 25.8083 16.7237 26.1032 16.2509C26.3981 15.778 26.5455 15.3026 26.5455 14.8247C26.5455 14.2451 26.3854 13.79 26.065 13.4595C25.7447 13.129 25.3049 12.9638 24.7456 12.9638Z" fill="black"/>
</svg>
