<svg width="29" height="29" viewBox="0 0 29 29" fill="none" xmlns="http://www.w3.org/2000/svg">
<path d="M15.1045 2.41667C14.7708 2.41667 14.5003 2.68716 14.5003 3.02083V14.5H12.0836V5.4375C12.0836 5.10383 11.8131 4.83333 11.4795 4.83333C11.1458 4.83333 10.8753 5.10383 10.8753 5.4375V16.9167C10.448 16.9167 8.45868 16.9167 8.45868 16.9167C7.99815 14.9582 6.81791 13.8242 5.55284 13.6803C5.89583 14.5802 6.47814 16.0215 7.45106 18.2452C8.48874 20.6168 9.53536 22.3805 10.8796 23.5608C12.178 24.7007 13.8459 25.375 16.3128 25.375C19.9832 25.375 22.9586 22.3997 22.9586 18.7294V8.45833C22.9586 8.12466 22.6881 7.85417 22.3545 7.85417C22.0208 7.85417 21.7503 8.12466 21.7503 8.45833V14.5H19.3336V4.83333C19.3336 4.49966 19.0631 4.22917 18.7295 4.22917C18.3958 4.22917 18.1253 4.49966 18.1253 4.83333V14.5H15.7086V3.02083C15.7086 2.68716 15.4381 2.41667 15.1045 2.41667ZM25.3753 18.7294C25.3753 23.7346 21.3178 27.7917 16.3128 27.7917C13.3421 27.7917 11.0831 26.9555 9.28509 25.3768C7.53294 23.8384 6.31394 21.6752 5.23704 19.2139C4.11314 16.6452 3.49219 15.0805 3.1537 14.1659C2.72265 13.0013 3.31834 11.373 4.93711 11.2598C6.33265 11.1622 7.51663 11.6151 8.45864 12.3959V5.4375C8.45864 3.76914 9.81111 2.41667 11.4795 2.41667C11.703 2.41667 11.9209 2.44095 12.1306 2.48703C12.3827 1.07327 13.6182 0 15.1045 0C16.3853 0 17.4799 0.79713 17.9194 1.92235C18.1771 1.85077 18.4489 1.8125 18.7295 1.8125C20.3978 1.8125 21.7503 3.16498 21.7503 4.83333V5.49793C21.9456 5.45831 22.1476 5.4375 22.3545 5.4375C24.0228 5.4375 25.3753 6.78998 25.3753 8.45833V18.7294Z" fill="black"/>
</svg>
