<svg width="77" height="77" viewBox="0 0 77 77" fill="none" xmlns="http://www.w3.org/2000/svg">
<path d="M71.225 69.2992H5.775C2.59105 69.2992 0 66.7082 0 63.5242V13.4742C0 10.2903 2.59105 7.69922 5.775 7.69922H71.225C74.409 7.69922 77 10.2903 77 13.4742V63.5242C77 66.7082 74.409 69.2992 71.225 69.2992ZM5.775 11.5492C4.7124 11.5492 3.85 12.4116 3.85 13.4742V63.5242C3.85 64.5868 4.7124 65.4492 5.775 65.4492H71.225C72.2876 65.4492 73.15 64.5868 73.15 63.5242V13.4742C73.15 12.4116 72.2876 11.5492 71.225 11.5492H5.775Z" fill="#237804"/>
<path d="M36.5751 23.1H13.475C12.4124 23.1 11.55 22.2376 11.55 21.175C11.55 20.1124 12.4124 19.25 13.475 19.25H36.5751C37.6376 19.25 38.5 20.1124 38.5 21.175C38.5 22.2376 37.6376 23.1 36.5751 23.1Z" fill="#237804"/>
<path d="M36.5751 34.6508H13.475C12.4124 34.6508 11.55 33.7884 11.55 32.7258C11.55 31.6632 12.4124 30.8008 13.475 30.8008H36.5751C37.6376 30.8008 38.5 31.6632 38.5 32.7258C38.5 33.7884 37.6376 34.6508 36.5751 34.6508Z" fill="#237804"/>
<path d="M36.5751 42.35H13.475C12.4124 42.35 11.55 41.4876 11.55 40.425C11.55 39.3624 12.4124 38.5 13.475 38.5H36.5751C37.6376 38.5 38.5 39.3624 38.5 40.425C38.5 41.4876 37.6376 42.35 36.5751 42.35Z" fill="#237804"/>
<path d="M36.5751 50.0492H13.475C12.4124 50.0492 11.55 49.1868 11.55 48.1242C11.55 47.0616 12.4124 46.1992 13.475 46.1992H36.5751C37.6376 46.1992 38.5 47.0616 38.5 48.1242C38.5 49.1868 37.6376 50.0492 36.5751 50.0492Z" fill="#237804"/>
<path d="M32.725 57.7484H13.475C12.4124 57.7484 11.55 56.886 11.55 55.8234C11.55 54.7608 12.4124 53.8984 13.475 53.8984H32.725C33.7876 53.8984 34.65 54.7608 34.65 55.8234C34.65 56.886 33.7876 57.7484 32.725 57.7484Z" fill="#237804"/>
<path d="M69.0805 25.1961L65.9505 22.9208L64.7531 19.2402H60.8839L57.7538 16.9648L54.6238 19.2402H50.7545L49.5572 22.9208L46.4271 25.1961L47.6245 28.8767L46.4271 32.5573L49.5572 34.8327L50.0654 36.3958C50.0577 36.4574 50.0577 36.5151 50.0577 36.5767V55.8267C50.0577 56.6044 50.5274 57.309 51.2473 57.6054C51.9673 57.9019 52.795 57.7402 53.3456 57.1896L57.7577 52.7775L62.1698 57.1896C62.5394 57.5592 63.0283 57.7556 63.5327 57.7517C63.7791 57.7517 64.0293 57.7055 64.268 57.6054C64.988 57.309 65.4577 56.6044 65.4577 55.8267V36.5767C65.4577 36.5151 65.4538 36.4535 65.45 36.3958L65.9582 34.8327L69.0882 32.5573L67.8909 28.8767L69.0882 25.1961H69.0805ZM50.947 26.6668L52.8258 25.3001L53.5458 23.0902H55.8712L57.75 21.7234L59.6288 23.0902H61.9542L62.6741 25.3001L64.5529 26.6668L63.833 28.8767L64.5529 31.0866L62.6741 32.4534L61.9542 34.6633H59.6288L57.75 36.03L55.8712 34.6633H53.5458L52.8258 32.4534L50.947 31.0866L51.667 28.8767L50.947 26.6668ZM59.1129 48.6888C58.3621 47.9381 57.1417 47.9381 56.3909 48.6888L53.9038 51.1759V38.5094H54.6238L57.7538 40.7848L60.8839 38.5094H61.6038V51.1759L59.1129 48.6888Z" fill="#237804"/>
</svg>
