<svg width="42" height="42" viewBox="0 0 42 42" fill="none" xmlns="http://www.w3.org/2000/svg">
<circle cx="21" cy="21" r="21" fill="white"/>
<path d="M24.75 9C27.0052 9 28.8333 10.8282 28.8333 13.0833C28.8333 13.3479 28.8081 13.6066 28.7601 13.8572L28.7427 13.9343C30.829 14.6288 32.3333 16.5971 32.3333 18.9167C32.3333 21.1031 30.9968 22.9774 29.0962 23.767L27.8292 31.3585C27.7354 31.921 27.2487 32.3333 26.6784 32.3333H14.655C14.0847 32.3333 13.598 31.921 13.5042 31.3585L12.304 24.1597C10.4571 24.0543 9 22.5307 9 20.6667C9 19.1414 9.97565 17.844 11.3369 17.3646L11.3333 17.1667C11.3333 13.3007 14.4673 10.1667 18.3333 10.1667C19.4081 10.1667 20.4263 10.4089 21.3363 10.8417C22.0648 9.73324 23.3218 9 24.75 9ZM17.1667 24.1667H14.67L15.643 30H17.1667V24.1667ZM21.8333 24.1667H19.5V30H21.8333V24.1667ZM26.6622 24.1667H24.1667V30H25.6892L26.6622 24.1667ZM18.3333 12.5C15.8341 12.5 13.7937 14.4646 13.672 16.8954L13.6663 17.1246L13.6699 17.3225C13.6869 18.2648 13.1362 19.118 12.286 19.4962L12.1121 19.5653C11.6497 19.7282 11.3333 20.1676 11.3333 20.6667C11.3333 21.311 11.8557 21.8333 12.5 21.8333H27.0833C28.6942 21.8333 30 20.5275 30 18.9167C30 17.3058 28.6942 16 27.0833 16C26.6917 16 26.3153 16.0761 25.9682 16.2212L25.7636 16.3165C24.6358 16.8975 23.2629 16.4686 22.6569 15.3784L22.5756 15.2181C21.8189 13.5746 20.1741 12.5 18.3333 12.5ZM24.75 11.3333C24.1125 11.3333 23.5548 11.6741 23.2487 12.1835C23.8475 12.7736 24.3395 13.47 24.6951 14.2423C25.2127 13.9756 25.7811 13.7934 26.3819 13.7131C26.4586 13.5181 26.5 13.3055 26.5 13.0833C26.5 12.1168 25.7165 11.3333 24.75 11.3333Z" fill="#FD4141"/>
</svg>
