<svg width="37" height="23" viewBox="0 0 37 23" fill="none" xmlns="http://www.w3.org/2000/svg">
<path d="M11.6926 22.9247C18.023 22.9247 23.1549 17.7928 23.1549 11.4623C23.1549 5.13186 18.023 0 11.6926 0C5.36209 0 0.230225 5.13186 0.230225 11.4623C0.230225 17.7928 5.36209 22.9247 11.6926 22.9247Z" fill="#EB001B"/>
<path d="M25.5375 22.9247C31.868 22.9247 36.9999 17.7928 36.9999 11.4623C36.9999 5.13186 31.868 0 25.5375 0C19.2071 0 14.0752 5.13186 14.0752 11.4623C14.0752 17.7928 19.2071 22.9247 25.5375 22.9247Z" fill="#F79E1B"/>
<path d="M18.6121 2.30859C21.372 4.39993 23.1491 7.71406 23.1491 11.4396C23.1491 15.1652 21.372 18.485 18.6121 20.5763C15.8523 18.485 14.0752 15.1709 14.0752 11.4396C14.0752 7.70835 15.858 4.39993 18.6121 2.30859Z" fill="#FF5F00"/>
</svg>
