<svg viewBox="0 0 1031 1054.968" xmlns="http://www.w3.org/2000/svg"><path d="M1030.84 694.19H873.404v-46.855h110.58V68.19H46.857v579.145h647.556v46.856H0V21.334h1030.84zM381.41 515.67v-46.856h156.5c24.104-.317 43.527-19.904 43.577-44.04v-.005c-.027-24.056-19.52-43.55-43.574-43.576h-46.86c-49.944 0-90.432-40.487-90.432-90.432s40.49-90.433 90.434-90.433h156.5v46.856h-156.5c-24.067 0-43.576 19.51-43.576 43.577s19.51 43.576 43.576 43.576h46.856c50.074 0 90.667 40.593 90.667 90.667s-40.593 90.667-90.667 90.667zm157.44-291.915h-46.857v-89.496h46.856zm0 357.514h-46.857V492.24h46.856zm261.645 464.066l-33.127-33.127c51.03-50.767 82.61-121.04 82.61-198.69 0-.273 0-.547-.002-.82v.042-187.426c-.2-36.337-29.703-65.717-66.068-65.717-36.49 0-66.068 29.58-66.068 66.068v.37-.02 148.63l-22.303 11.152c-40.147 20.3-67.193 61.233-67.193 108.484v.48-.024H581.49c-.002-.158-.002-.345-.002-.533 0-64.02 35.865-119.666 88.6-147.938l.896-.44V626.247l-.002-.586c0-62.366 50.558-112.924 112.925-112.924 62.16 0 112.59 50.225 112.924 112.308v187.692c.002.268.002.586.002.904 0 90.548-36.83 172.495-96.324 231.678l-.014.014zm-391.157-1.453C349.828 984.69 313 902.75 313 812.208v-.924.047-140.568h46.857v141.32c0 77.643 31.58 147.91 82.596 198.658l.012.012z"/></svg>