<svg width="77" height="77" viewBox="0 0 77 77" fill="none" xmlns="http://www.w3.org/2000/svg">
<path fill-rule="evenodd" clip-rule="evenodd" d="M40.9063 8.82422C40.9063 8.18604 40.6527 7.574 40.2015 7.12274C39.7502 6.67148 39.1382 6.41797 38.5 6.41797C37.8618 6.41797 37.2498 6.67148 36.7985 7.12274C36.3473 7.574 36.0938 8.18604 36.0938 8.82422V14.4388H29.7605C28.6334 14.4383 27.5323 14.777 26.6003 15.4109L21.1622 19.1133C21.0287 19.2038 20.871 19.2518 20.7098 19.2513H7.54922C6.91105 19.2513 6.29901 19.5048 5.84775 19.9561C5.39649 20.4073 5.14297 21.0194 5.14297 21.6576C5.14297 22.2957 5.39649 22.9078 5.84775 23.359C6.29901 23.8103 6.91105 24.0638 7.54922 24.0638H12.6088L1.80631 48.7038C1.60226 49.1846 1.55759 49.7182 1.67883 50.2263C1.80008 50.7344 2.08087 51.1902 2.48006 51.5271C2.73672 51.7325 2.9966 51.9282 3.47143 52.2362C4.06818 52.6244 4.9216 53.1281 6.01243 53.6254C8.1941 54.6232 11.3447 55.6146 15.2396 55.6146C18.4224 55.6206 21.5692 54.9423 24.4668 53.6254C25.5576 53.1281 26.411 52.6244 27.0078 52.2362C27.489 51.925 27.7457 51.7293 28.0023 51.5207C28.4047 51.1876 28.6878 50.7326 28.8088 50.2244C28.9297 49.7162 28.882 49.1825 28.6729 48.7038L17.8672 24.0638H20.7098C21.8359 24.0638 22.9364 23.7237 23.8668 23.0917L29.3081 19.3893C29.4407 19.2995 29.5972 19.2514 29.7573 19.2513H36.0938V65.7721H21.698C21.0598 65.7721 20.4478 66.0256 19.9965 66.4769C19.5452 66.9282 19.2917 67.5402 19.2917 68.1784C19.2917 68.8166 19.5452 69.4286 19.9965 69.8799C20.4478 70.3311 21.0598 70.5846 21.698 70.5846H55.3021C55.9402 70.5846 56.5523 70.3311 57.0035 69.8799C57.4548 69.4286 57.7083 68.8166 57.7083 68.1784C57.7083 67.5402 57.4548 66.9282 57.0035 66.4769C56.5523 66.0256 55.9402 65.7721 55.3021 65.7721H40.9063V19.2513H47.2395C47.3999 19.2513 47.5603 19.2994 47.6887 19.3893L53.1332 23.0917C54.0636 23.7237 55.1641 24.0638 56.2902 24.0638H59.1328L48.3271 48.7038C48.1111 49.1965 48.0664 49.7474 48.2001 50.2684C48.3339 50.7895 48.6384 51.2508 49.0651 51.5785C49.1036 51.6073 49.0651 51.5785 49.0715 51.5785C49.3897 51.8182 49.7218 52.0388 50.0661 52.2394C50.6596 52.5987 51.5098 53.0607 52.6006 53.5227C55.5017 54.7353 58.6162 55.355 61.7604 55.3451C64.906 55.3544 68.0216 54.7336 70.9234 53.5195C72.0079 53.0607 72.8613 52.5987 73.458 52.2394C73.801 52.0369 74.133 51.8163 74.4526 51.5785C74.8792 51.2508 75.1838 50.7895 75.3175 50.2684C75.4513 49.7474 75.4066 49.1965 75.1905 48.7038L64.3913 24.0638H69.454C70.0922 24.0638 70.7042 23.8103 71.1555 23.359C71.6068 22.9078 71.8603 22.2957 71.8603 21.6576C71.8603 21.0194 71.6068 20.4073 71.1555 19.9561C70.7042 19.5048 70.0922 19.2513 69.454 19.2513H56.2934C56.1333 19.2512 55.9769 19.2031 55.8443 19.1133L50.3997 15.4109C49.4687 14.7776 48.3687 14.4389 47.2427 14.4388H40.9063V8.82422ZM7.03589 48.7616C9.56117 50.1053 12.3791 50.8051 15.2396 50.7988C18.1001 50.8051 20.918 50.1053 23.4433 48.7616L15.2396 30.057L7.03589 48.7616ZM53.5888 48.6846C53.8519 48.8129 54.1471 48.9508 54.4711 49.0888C56.1715 49.8043 58.658 50.5326 61.7604 50.5326C64.5888 50.5406 67.3824 49.9088 69.9321 48.6846L61.7604 30.0538L53.5888 48.6846Z" fill="#237804"/>
</svg>
