<svg width="28" height="28" viewBox="0 0 28 28" fill="none" xmlns="http://www.w3.org/2000/svg">
<circle cx="14" cy="14" r="14" fill="#020202"/>
<path d="M8.19063 10.0801C8.27066 10.0801 12.1322 10.4619 12.5384 10.5114C12.9447 10.5609 13.6961 10.388 13.7083 11.4229C13.7205 12.4578 13.6717 16.0297 13.6717 16.3125C13.6717 16.596 13.3882 17.4824 12.6619 17.458C11.9349 17.4336 11.5408 16.8178 11.5408 16.3865C11.5408 15.9551 11.553 14.5635 11.553 14.5635C11.553 14.5635 11.5408 14.5079 11.4486 14.594C11.3564 14.6802 8.60365 17.359 8.27066 17.6736C7.93835 17.9876 6.96517 18.3077 6.47823 17.6302C5.99198 16.9527 6.07811 16.2874 6.63218 15.7151C7.18625 15.142 9.724 12.7223 9.82233 12.6422C9.92067 12.5622 9.87184 12.4449 9.75451 12.4578C9.63719 12.47 8.67078 12.3777 8.22726 12.3343C7.78373 12.2909 7.10623 11.7491 7.26628 10.9488C7.42701 10.1479 8.11061 10.0801 8.19063 10.0801Z" fill="#FFFFFE"/>
<path d="M19.8094 18.0307C19.7294 18.0307 15.8678 17.6489 15.4616 17.5994C15.0554 17.5498 14.304 17.7228 14.2918 16.6879C14.2795 15.653 14.3284 12.081 14.3284 11.7982C14.3284 11.5147 14.6119 10.6284 15.3382 10.6528C16.0652 10.6772 16.4592 11.293 16.4592 11.7243C16.4592 12.1556 16.447 13.5472 16.447 13.5472C16.447 13.5472 16.4592 13.6029 16.5514 13.5167C16.6437 13.4306 19.3971 10.7518 19.7294 10.4371C20.0617 10.1231 21.0349 9.80302 21.5218 10.4805C22.0081 11.158 21.9219 11.8233 21.3679 12.3957C20.8138 12.9688 18.2761 15.3885 18.1777 15.4685C18.0794 15.5485 18.1282 15.6659 18.2455 15.653C18.3629 15.6408 19.3293 15.733 19.7728 15.7764C20.2163 15.8198 20.8938 16.3617 20.7338 17.1619C20.573 17.9629 19.8894 18.0307 19.8094 18.0307Z" fill="#F58220"/>
</svg>
