<svg width="28" height="28" viewBox="0 0 28 28" fill="none" xmlns="http://www.w3.org/2000/svg">
<circle cx="14" cy="14" r="14" fill="#8E8E93"/>
<g clip-path="url(#clip0_4431_4671)">
<path d="M15.5227 20.3517C15.764 20.3517 15.96 20.5469 15.96 20.7872C15.96 21.0274 15.764 21.2226 15.5227 21.2226C15.2815 21.2226 15.0855 21.0274 15.0855 20.7872C15.0855 20.5469 15.2815 20.3517 15.5227 20.3517ZM17.0907 20.3517C17.332 20.3517 17.528 20.5469 17.528 20.7872C17.528 21.0274 17.332 21.2226 17.0907 21.2226C16.8495 21.2226 16.6535 21.0274 16.6535 20.7872C16.6535 20.5469 16.8495 20.3517 17.0907 20.3517ZM13.5024 15.8473C13.819 15.8473 14.0753 15.9975 14.2713 16.2527C14.3618 16.4029 14.4523 16.553 14.5126 16.7032H18.1461C18.4175 16.7032 18.6436 16.9284 18.6436 17.2137C18.6436 17.2587 18.6436 17.3037 18.6135 17.3638L17.8446 19.8262C17.7843 20.0214 17.5883 20.1716 17.3772 20.1716H15.2815C15.0553 20.1716 14.8744 20.0214 14.799 19.8112L13.9849 17.1086C13.9246 16.9284 13.8492 16.7782 13.7436 16.6131C13.6683 16.523 13.5929 16.4779 13.4873 16.4779C13.3215 16.4779 13.1707 16.3278 13.1707 16.1626C13.1707 15.9975 13.3215 15.8473 13.5024 15.8473ZM17.9652 17.3338H14.7236L15.387 19.5409H17.2867L17.9652 17.3338ZM19.3975 7.09375C20.2267 7.09375 20.9052 7.64929 20.9052 8.37V17.0785C20.9052 17.574 20.5584 18.0245 20.0458 18.2347C19.9403 18.2797 19.8196 18.3097 19.7141 18.3247L19.6236 18.3398L19.4126 18.3548C19.2316 18.3548 19.096 18.2196 19.0809 18.0545C19.0809 17.8743 19.2015 17.7242 19.3824 17.7242H19.5181L19.6086 17.7091C19.684 17.6941 19.7443 17.6791 19.8196 17.6491C20.1061 17.529 20.287 17.3037 20.287 17.0785V8.37C20.287 8.02466 19.9101 7.70935 19.3975 7.70935H8.60242C8.10488 7.70935 7.71288 8.02466 7.71288 8.37V17.0785C7.71288 17.4239 8.10488 17.7242 8.60242 17.7242H13.216C13.3969 17.7242 13.5326 17.8743 13.5326 18.0395C13.5326 18.2046 13.3969 18.3548 13.216 18.3548H8.60242C7.78826 18.3548 7.09473 17.7992 7.09473 17.0635V8.37C7.09473 7.64929 7.78826 7.09375 8.60242 7.09375H19.3975ZM17.4526 8.97059C17.9501 8.97059 18.3421 9.33094 18.3873 9.81141L18.4024 9.9015V13.6552C18.4024 14.1507 18.0255 14.541 17.543 14.5861L17.4526 14.6011H10.5473C10.0498 14.6011 9.6578 14.2257 9.61257 13.7453L9.5975 13.6552V9.9015C9.5975 9.42103 9.97442 9.01563 10.4569 8.97059H17.4526ZM17.7692 11.463H10.2307V13.6552C10.2307 13.8203 10.3513 13.9405 10.487 13.9705H17.4526C17.6184 13.9705 17.739 13.8504 17.7692 13.7152V11.463ZM12.432 12.7243C12.6129 12.7243 12.7486 12.8594 12.7486 13.0246C12.7486 13.1897 12.628 13.3098 12.4923 13.3399H11.1806C10.9996 13.3399 10.864 13.2047 10.864 13.0246C10.864 12.8744 10.9695 12.7543 11.1203 12.7243H12.432ZM17.4526 9.58619H10.5473C10.3815 9.58619 10.2609 9.70631 10.2307 9.84144V10.8474H17.7692V9.9015C17.7692 9.72132 17.6335 9.58619 17.4526 9.58619Z" fill="white"/>
</g>
<defs>
<clipPath id="clip0_4431_4671">
<rect width="15.0769" height="15.0769" fill="white" transform="translate(6.46155 6.46094)"/>
</clipPath>
</defs>
</svg>
