<svg width="24" height="32" viewBox="0 0 24 32" fill="none" xmlns="http://www.w3.org/2000/svg">
<path d="M24 9.71429V30.9719C24 31.2242 23.7943 31.4286 23.5403 31.4286H0.45974C0.205714 31.4286 0 31.2242 0 30.9719V0.456721C0 0.204363 0.205714 0 0.45974 0H13.7143L24 9.71429Z" fill="#98DE6B"/>
<path d="M23.9999 9.71429H13.9344C13.8124 9.71429 13.7142 9.61944 13.7142 9.50164V0L23.9999 9.71429Z" fill="#154406"/>
<path d="M5.71425 20.5725C7.6078 20.5725 9.14282 22.1076 9.14282 24.0011C9.14282 25.8947 7.6078 27.4297 5.71425 27.4297C3.82072 27.4297 2.28568 25.8947 2.28568 24.0011C2.28568 22.1076 3.82072 20.5725 5.71425 20.5725ZM5.71425 21.2583C4.19941 21.2583 2.97139 22.4863 2.97139 24.0011C2.97139 25.516 4.1994 26.744 5.71425 26.744C7.22909 26.744 8.45711 25.516 8.45711 24.0011C8.45711 22.4863 7.22909 21.2583 5.71425 21.2583ZM6.05711 25.7154L5.37139 25.7154L5.37139 25.0297L6.05711 25.0297L6.05711 25.7154ZM6.05711 24.344L5.37139 24.344L5.37139 22.2868L6.05711 22.2868L6.05711 24.344Z" fill="#154406"/>
<path fill-rule="evenodd" clip-rule="evenodd" d="M13.7142 20.1434C13.7142 19.9067 13.9061 19.7148 14.1428 19.7148H21.2857C21.5224 19.7148 21.7142 19.9067 21.7142 20.1434C21.7142 20.3801 21.5224 20.572 21.2857 20.572H14.1428C13.9061 20.572 13.7142 20.3801 13.7142 20.1434Z" fill="#154406"/>
<path fill-rule="evenodd" clip-rule="evenodd" d="M13.7142 22.4286C13.7142 22.1919 13.9061 22 14.1428 22H21.2857C21.5224 22 21.7142 22.1919 21.7142 22.4286C21.7142 22.6653 21.5224 22.8571 21.2857 22.8571H14.1428C13.9061 22.8571 13.7142 22.6653 13.7142 22.4286Z" fill="#154406"/>
<path fill-rule="evenodd" clip-rule="evenodd" d="M13.7142 24.7137C13.7142 24.477 13.9061 24.2852 14.1428 24.2852H21.2857C21.5224 24.2852 21.7142 24.477 21.7142 24.7137C21.7142 24.9504 21.5224 25.1423 21.2857 25.1423H14.1428C13.9061 25.1423 13.7142 24.9504 13.7142 24.7137Z" fill="#154406"/>
<path fill-rule="evenodd" clip-rule="evenodd" d="M13.7142 26.9989C13.7142 26.7622 13.9061 26.5703 14.1428 26.5703H18.9999C19.2366 26.5703 19.4285 26.7622 19.4285 26.9989C19.4285 27.2356 19.2366 27.4275 18.9999 27.4275H14.1428C13.9061 27.4275 13.7142 27.2356 13.7142 26.9989Z" fill="#154406"/>
</svg>
