<svg width="66" height="66" viewBox="0 0 66 66" fill="none" xmlns="http://www.w3.org/2000/svg">
<g clip-path="url(#clip0_4006_8890)">
<path fill-rule="evenodd" clip-rule="evenodd" d="M58.1182 23.1262C57.3848 21.5822 55.3328 17.3567 53.8721 15.2706C52.3965 13.1632 49.1404 9.80641 47.9429 8.59351L49.3068 7.63848C49.878 7.23854 49.9834 6.40302 49.5419 5.77253L47.1431 2.34659C46.6985 1.71163 45.879 1.53035 45.3058 1.93171C45.3058 1.93171 39.334 5.36091 36.648 7.24168C33.7977 9.23744 28.697 13.5613 28.697 13.5613C28.121 13.9646 28.0171 14.7991 28.4585 15.4296L30.8574 18.8556C31.302 19.4905 32.1211 19.672 32.6939 19.271L33.9737 18.3749C34.4722 19.3783 35.5567 21.5272 36.6463 23.4649L2.74927 47.1998C1.31269 48.2057 0.967078 50.1792 1.97063 51.6124C2.97214 53.0427 4.94987 53.3937 6.38345 52.3899L40.2736 28.6598C41.7349 30.3679 43.3761 32.1044 44.1472 32.9088L42.8696 33.8034C42.2968 34.2045 42.1872 35.0362 42.6318 35.6712L45.0307 39.0971C45.4722 39.7276 46.2919 39.9154 46.8679 39.512C46.8679 39.512 52.7677 36.1749 55.5453 34.2299C58.3039 32.2984 63.4767 27.8824 63.4767 27.8824C64.0499 27.4811 64.1598 26.6491 63.7152 26.0141L61.3164 22.5882C60.8749 21.9577 60.0537 21.771 59.4825 22.1709L58.1182 23.1262Z" stroke="#237804" stroke-width="3.5" stroke-linecap="round" stroke-linejoin="round"/>
<path fill-rule="evenodd" clip-rule="evenodd" d="M59.5522 58.3422H62.1368C63.2313 58.3422 64.1185 59.2232 64.1185 60.3209V62.6996C64.1185 63.7924 63.2382 64.6782 62.1368 64.6782H34.4203C33.3258 64.6782 32.4385 63.7972 32.4385 62.6996V60.3209C32.4385 59.2281 33.3189 58.3422 34.4203 58.3422H37.0051C36.9202 58.1217 36.8737 57.8819 36.8737 57.6308V55.2521C36.8737 54.1593 37.7539 53.2734 38.858 53.2734H57.699C58.7949 53.2734 59.6833 54.1544 59.6833 55.2521V57.6308C59.6833 57.8815 59.637 58.1214 59.5522 58.3422Z" stroke="#237804" stroke-width="3.5" stroke-linecap="round" stroke-linejoin="round"/>
<path d="M37.0565 16.6581L33.3275 19.2692M49.9404 7.63672L46.2571 10.2158" stroke="#237804" stroke-width="3.5" stroke-linecap="round" stroke-linejoin="round"/>
<path d="M47.2322 31.1933L43.5032 33.8044M60.1161 22.1719L56.4328 24.751" stroke="#237804" stroke-width="3.5" stroke-linecap="round" stroke-linejoin="round"/>
</g>
<defs>
<clipPath id="clip0_4006_8890">
<rect width="66" height="66" fill="white"/>
</clipPath>
</defs>
</svg>
