<svg width="29" height="29" viewBox="0 0 29 29" fill="none" xmlns="http://www.w3.org/2000/svg">
<path d="M17.5209 10.2721C16.5775 10.0276 15.2666 9.66797 14.2157 9.66797C9.03398 9.66797 4.83337 12.8913 4.83337 16.8676C4.83337 19.1525 6.22047 21.1888 8.38375 22.5078L7.79763 24.4409C7.65646 24.9065 8.0049 25.3763 8.49143 25.3763H10.6231C10.78 25.3763 10.9327 25.3254 11.0582 25.2312L12.7434 23.9665H15.688L17.3731 25.2312C17.4986 25.3254 17.6514 25.3763 17.8083 25.3763H19.94C20.4264 25.3763 20.7749 24.9065 20.6337 24.4409L20.0476 22.5078C21.3364 21.7221 22.3497 20.6816 22.9584 19.4857" stroke="#237804" stroke-width="1.5" stroke-linecap="round" stroke-linejoin="round"/>
<path d="M17.5209 10.2695L22.9584 8.45703L22.8569 12.8412L25.375 13.8945V18.1237L23.0479 19.332" stroke="#237804" stroke-width="1.5" stroke-linecap="round" stroke-linejoin="round"/>
<path d="M18.7292 15.7083C18.3955 15.7083 18.125 15.4378 18.125 15.1042C18.125 14.7705 18.3955 14.5 18.7292 14.5C19.0628 14.5 19.3333 14.7705 19.3333 15.1042C19.3333 15.4378 19.0628 15.7083 18.7292 15.7083Z" fill="#237804" stroke="#237804" stroke-width="1.5" stroke-linecap="round" stroke-linejoin="round"/>
<path d="M2.41663 12.082C2.41663 12.082 2.41663 14.982 4.83329 15.707" stroke="#237804" stroke-width="1.5" stroke-linecap="round" stroke-linejoin="round"/>
<path d="M15.4676 9.36816C15.6235 8.91908 15.7083 8.43581 15.7083 7.93237C15.7083 5.55348 13.8149 3.625 11.4792 3.625C9.14346 3.625 7.25 5.55348 7.25 7.93237C7.25 9.07021 7.68318 10.105 8.39071 10.875" stroke="#237804" stroke-width="1.5" stroke-linejoin="round"/>
</svg>
