<svg width="21" height="25" viewBox="0 0 21 25" fill="none" xmlns="http://www.w3.org/2000/svg">
<path d="M16.5 3.99902H4.5C4.36739 3.99903 4.24022 4.05171 4.14645 4.14548C4.05269 4.23924 4.00001 4.36642 4 4.49902V10.499C4.00001 10.6316 4.05269 10.7588 4.14645 10.8526C4.24022 10.9463 4.36739 10.999 4.5 10.999H16.5C16.6326 10.999 16.7598 10.9463 16.8535 10.8526C16.9473 10.7588 17 10.6316 17 10.499V4.49902C17 4.36642 16.9473 4.23924 16.8535 4.14548C16.7598 4.05171 16.6326 3.99903 16.5 3.99902ZM16 9.99902H5V4.99902H16V9.99902ZM19.5 0H1.5C1.10231 0.000454899 0.721048 0.158636 0.439842 0.439842C0.158636 0.721048 0.000454899 1.10231 0 1.5V23.5C0.000454899 23.8977 0.158636 24.279 0.439842 24.5602C0.721048 24.8414 1.10231 24.9995 1.5 25H19.5C19.8977 24.9995 20.279 24.8414 20.5602 24.5602C20.8414 24.279 20.9995 23.8977 21 23.5V1.5C20.9995 1.10231 20.8414 0.721048 20.5602 0.439842C20.279 0.158636 19.8977 0.000454899 19.5 0ZM20 23.5C19.9998 23.6326 19.9471 23.7597 19.8534 23.8534C19.7597 23.9471 19.6326 23.9998 19.5 24H1.5C1.36744 23.9998 1.24035 23.9471 1.14661 23.8534C1.05288 23.7597 1.00015 23.6326 1 23.5V1.5C1.00015 1.36744 1.05288 1.24035 1.14661 1.14661C1.24035 1.05288 1.36744 1.00015 1.5 1H19.5C19.6326 1.00015 19.7597 1.05288 19.8534 1.14661C19.9471 1.24035 19.9998 1.36744 20 1.5V23.5ZM11.5 14.999C11.5 15.1968 11.4414 15.3901 11.3315 15.5546C11.2216 15.719 11.0654 15.8472 10.8827 15.9229C10.7 15.9986 10.4989 16.0184 10.3049 15.9798C10.1109 15.9412 9.93275 15.846 9.79289 15.7061C9.65304 15.5663 9.5578 15.3881 9.51921 15.1941C9.48063 15.0001 9.50043 14.7991 9.57612 14.6163C9.65181 14.4336 9.77998 14.2774 9.94443 14.1676C10.1089 14.0577 10.3022 13.999 10.5 13.999C10.7651 13.9993 11.0193 14.1048 11.2068 14.2923C11.3942 14.4797 11.4997 14.7339 11.5 14.999ZM11.5 19.999C11.5 20.1968 11.4414 20.3901 11.3315 20.5546C11.2216 20.719 11.0654 20.8472 10.8827 20.9229C10.7 20.9986 10.4989 21.0184 10.3049 20.9798C10.1109 20.9412 9.93275 20.846 9.79289 20.7061C9.65304 20.5663 9.5578 20.3881 9.51921 20.1941C9.48063 20.0001 9.50043 19.7991 9.57612 19.6163C9.65181 19.4336 9.77998 19.2774 9.94443 19.1676C10.1089 19.0577 10.3022 18.999 10.5 18.999C10.7651 18.9993 11.0193 19.1048 11.2068 19.2923C11.3942 19.4797 11.4997 19.7339 11.5 19.999ZM6.5 14.999C6.5 15.1968 6.44135 15.3901 6.33147 15.5546C6.22159 15.719 6.06541 15.8472 5.88268 15.9229C5.69996 15.9986 5.49889 16.0184 5.30491 15.9798C5.11093 15.9412 4.93275 15.846 4.79289 15.7061C4.65304 15.5663 4.5578 15.3881 4.51921 15.1941C4.48063 15.0001 4.50043 14.7991 4.57612 14.6163C4.65181 14.4336 4.77998 14.2774 4.94443 14.1676C5.10888 14.0577 5.30222 13.999 5.5 13.999C5.76512 13.9993 6.0193 14.1048 6.20677 14.2923C6.39424 14.4797 6.4997 14.7339 6.5 14.999ZM6.5 19.999C6.5 20.1968 6.44135 20.3901 6.33147 20.5546C6.22159 20.719 6.06541 20.8472 5.88268 20.9229C5.69996 20.9986 5.49889 21.0184 5.30491 20.9798C5.11093 20.9412 4.93275 20.846 4.79289 20.7061C4.65304 20.5663 4.5578 20.3881 4.51921 20.1941C4.48063 20.0001 4.50043 19.7991 4.57612 19.6163C4.65181 19.4336 4.77998 19.2774 4.94443 19.1676C5.10888 19.0577 5.30222 18.999 5.5 18.999C5.76512 18.9993 6.0193 19.1048 6.20677 19.2923C6.39424 19.4797 6.4997 19.7339 6.5 19.999ZM16.5 14.999C16.5 15.1968 16.4414 15.3901 16.3315 15.5546C16.2216 15.719 16.0654 15.8472 15.8827 15.9229C15.7 15.9986 15.4989 16.0184 15.3049 15.9798C15.1109 15.9412 14.9327 15.846 14.7929 15.7061C14.653 15.5663 14.5578 15.3881 14.5192 15.1941C14.4806 15.0001 14.5004 14.7991 14.5761 14.6163C14.6518 14.4336 14.78 14.2774 14.9444 14.1676C15.1089 14.0577 15.3022 13.999 15.5 13.999C15.7651 13.9993 16.0193 14.1048 16.2068 14.2923C16.3942 14.4797 16.4997 14.7339 16.5 14.999ZM16.5 19.999C16.5 20.1968 16.4414 20.3901 16.3315 20.5546C16.2216 20.719 16.0654 20.8472 15.8827 20.9229C15.7 20.9986 15.4989 21.0184 15.3049 20.9798C15.1109 20.9412 14.9327 20.846 14.7929 20.7061C14.653 20.5663 14.5578 20.3881 14.5192 20.1941C14.4806 20.0001 14.5004 19.7991 14.5761 19.6163C14.6518 19.4336 14.78 19.2774 14.9444 19.1676C15.1089 19.0577 15.3022 18.999 15.5 18.999C15.7651 18.9993 16.0193 19.1048 16.2068 19.2923C16.3942 19.4797 16.4997 19.7339 16.5 19.999Z" fill="white"/>
</svg>
