<svg width="24" height="32" viewBox="0 0 24 32" fill="none" xmlns="http://www.w3.org/2000/svg">
<path d="M24 9.71428V30.9718C24 31.2242 23.7943 31.4286 23.5403 31.4286H0.45974C0.205714 31.4286 0 31.2242 0 30.9718V0.456721C0 0.204363 0.205714 0 0.45974 0H13.7143L24 9.71428Z" fill="#FFDD9C"/>
<path d="M23.9999 9.71428H13.9344C13.8124 9.71428 13.7142 9.61944 13.7142 9.50164V0L23.9999 9.71428Z" fill="#AD7200"/>
<path d="M2.4127 22H9.01587C9.24381 22 9.42857 22.1848 9.42857 22.4127V29.0159C9.42857 29.2438 9.24381 29.4286 9.01587 29.4286H2.4127C2.18477 29.4286 2 29.2438 2 29.0159V22.4127C2 22.1848 2.18477 22 2.4127 22ZM5.30266 27.3651L8.22089 24.4469L7.63725 23.8632L5.30266 26.1978L4.13539 25.0305L3.55174 25.6142L5.30266 27.3651Z" fill="#AD7200"/>
</svg>
