<svg width="24" height="24" viewBox="0 0 24 24" fill="none" xmlns="http://www.w3.org/2000/svg">
<path d="M15.883 23.2071C15.555 23.2071 15.231 23.1251 14.935 22.9621C14.414 22.6751 14.06 22.1741 13.962 21.5871C13.879 21.0921 13.422 20.7631 12.887 20.8161C12.303 20.8781 11.695 20.8781 11.112 20.8161C10.582 20.7611 10.12 21.0921 10.037 21.5871C9.939 22.1741 9.585 22.6741 9.064 22.9621C8.533 23.2541 7.907 23.2871 7.342 23.0491C6.423 22.6621 5.553 22.1601 4.755 21.5551C4.271 21.1871 3.985 20.6301 3.973 20.0251C3.961 19.4301 4.218 18.8711 4.678 18.4931C5.064 18.1751 5.122 17.6111 4.812 17.1811C4.464 16.6971 4.165 16.1761 3.921 15.6321C3.708 15.1571 3.18 14.9181 2.721 15.0931C2.151 15.3051 1.542 15.2491 1.033 14.9431C0.516 14.6311 0.175 14.1081 0.096 13.5051C0.033 13.0081 0 12.5011 0 12.0001C0 11.4991 0.033 10.9921 0.097 10.4961C0.175 9.89309 0.516 9.36909 1.034 9.05809C1.544 8.75209 2.155 8.69709 2.711 8.90409C3.182 9.08209 3.711 8.84409 3.922 8.36909C4.166 7.82509 4.465 7.30409 4.814 6.82009C5.123 6.39009 5.065 5.82609 4.68 5.50909C4.219 5.12809 3.962 4.57009 3.974 3.97409C3.986 3.37009 4.271 2.81309 4.755 2.44509C5.553 1.84009 6.423 1.33809 7.343 0.951092C7.906 0.713092 8.534 0.745092 9.065 1.03809C9.586 1.32509 9.94 1.82609 10.038 2.41309C10.121 2.90809 10.584 3.24009 11.113 3.18409C11.696 3.12209 12.304 3.12209 12.888 3.18409C13.422 3.23909 13.88 2.90809 13.963 2.41309C14.061 1.82609 14.415 1.32609 14.936 1.03809C15.466 0.746092 16.093 0.713092 16.658 0.951092C17.577 1.33809 18.447 1.84009 19.245 2.44509C19.729 2.81309 20.015 3.37009 20.027 3.97509C20.039 4.57009 19.782 5.12909 19.322 5.50709C18.936 5.82509 18.878 6.38909 19.188 6.81909C19.536 7.30309 19.835 7.82409 20.079 8.36809C20.291 8.84209 20.819 9.08109 21.279 8.90709C21.848 8.69509 22.458 8.75009 22.967 9.05709C23.484 9.36909 23.825 9.89209 23.904 10.4951C23.967 10.9971 24 11.5021 24 12.0001C24 12.4981 23.967 13.0031 23.903 13.5041C23.825 14.1081 23.484 14.6311 22.966 14.9431C22.457 15.2491 21.847 15.3061 21.289 15.0971L21.278 15.0931C20.82 14.9201 20.29 15.1571 20.078 15.6321C19.834 16.1761 19.535 16.6971 19.186 17.1811C18.877 17.6111 18.935 18.1751 19.32 18.4921C19.78 18.8711 20.037 19.4301 20.025 20.0261C20.013 20.6301 19.728 21.1881 19.243 21.5551C18.445 22.1591 17.575 22.6621 16.656 23.0491C16.407 23.1541 16.145 23.2071 15.883 23.2071ZM13.009 19.8111C13.976 19.8111 14.79 20.4731 14.949 21.4241C14.996 21.7071 15.167 21.9481 15.418 22.0871C15.678 22.2301 15.99 22.2461 16.269 22.1281C17.112 21.7741 17.91 21.3131 18.64 20.7591C18.88 20.5771 19.02 20.3031 19.026 20.0061C19.032 19.7181 18.908 19.4481 18.686 19.2651C17.888 18.6091 17.754 17.4621 18.375 16.5981C18.684 16.1691 18.95 15.7061 19.166 15.2241C19.593 14.2701 20.67 13.8011 21.624 14.1541L21.63 14.1561C21.91 14.2611 22.206 14.2351 22.451 14.0861C22.705 13.9331 22.873 13.6741 22.911 13.3771C22.97 12.9181 23 12.4551 23 12.0001C23 11.5451 22.97 11.0821 22.911 10.6231C22.873 10.3261 22.705 10.0671 22.451 9.91409C22.205 9.76609 21.91 9.73909 21.642 9.84009C20.676 10.2011 19.594 9.73309 19.166 8.77709C18.95 8.29509 18.685 7.83309 18.376 7.40309C17.755 6.53909 17.888 5.39209 18.686 4.73609C18.909 4.55309 19.033 4.28309 19.027 3.99509C19.021 3.69909 18.881 3.42409 18.641 3.24309C17.911 2.68909 17.113 2.22909 16.27 1.87409C15.989 1.75509 15.679 1.77009 15.418 1.91509C15.167 2.05309 14.996 2.29509 14.949 2.57809C14.778 3.60209 13.841 4.29209 12.783 4.17909C12.267 4.12509 11.731 4.12509 11.217 4.17909C10.153 4.29309 9.222 3.60209 9.051 2.57809C9.004 2.29409 8.833 2.05209 8.582 1.91409C8.321 1.77009 8.01 1.75509 7.731 1.87309C6.888 2.22809 6.09 2.68809 5.36 3.24209C5.12 3.42409 4.98 3.69809 4.974 3.99509C4.968 4.28309 5.092 4.55309 5.314 4.73609C6.112 5.39209 6.246 6.53909 5.625 7.40309C5.316 7.83209 5.05 8.29409 4.834 8.77609C4.406 9.73309 3.325 10.2001 2.37 9.84409C2.091 9.73909 1.794 9.76609 1.55 9.91409C1.296 10.0671 1.128 10.3261 1.09 10.6231C1.03 11.0781 1 11.5421 1 12.0001C1 12.4581 1.03 12.9221 1.089 13.3761C1.127 13.6741 1.295 13.9331 1.549 14.0851C1.794 14.2341 2.091 14.2591 2.358 14.1591C3.325 13.7991 4.406 14.2661 4.834 15.2221C5.05 15.7041 5.315 16.1661 5.624 16.5961C6.245 17.4601 6.112 18.6071 5.314 19.2631C5.091 19.4461 4.967 19.7161 4.973 20.0041C4.979 20.3001 5.119 20.5751 5.359 20.7561C6.089 21.3101 6.887 21.7701 7.73 22.1251C8.01 22.2431 8.321 22.2281 8.582 22.0841C8.833 21.9461 9.004 21.7041 9.051 21.4211C9.222 20.3971 10.153 19.6991 11.217 19.8201C11.732 19.8741 12.268 19.8741 12.783 19.8201C12.859 19.8141 12.935 19.8111 13.009 19.8111Z" fill="white"/>
<path d="M12 17C9.243 17 7 14.757 7 12C7 9.243 9.243 7 12 7C14.757 7 17 9.243 17 12C17 14.757 14.757 17 12 17ZM12 8C9.794 8 8 9.794 8 12C8 14.206 9.794 16 12 16C14.206 16 16 14.206 16 12C16 9.794 14.206 8 12 8Z" fill="white"/>
</svg>
