<svg width="71" height="71" viewBox="0 0 71 71" fill="none" xmlns="http://www.w3.org/2000/svg">
<path d="M33.0938 5.82161C33.0938 2.72076 35.6075 0.207031 38.7083 0.207031H45.9271C47.256 0.207031 48.3333 1.28436 48.3333 2.61328C48.3333 3.94221 47.256 5.01953 45.9271 5.01953H38.7083C38.2653 5.01953 37.9063 5.37864 37.9063 5.82161V11.4362C37.9063 11.4773 37.9053 11.5182 37.903 11.5588C49.035 12.7012 57.839 21.6928 58.6927 32.9093C58.7935 34.2343 57.8011 35.3903 56.4758 35.491C55.1507 35.5921 53.9948 34.5994 53.894 33.2744C53.1693 23.7517 45.2097 16.2487 35.5 16.2487C25.7903 16.2487 17.8307 23.7517 17.106 33.2744C17.0051 34.5994 15.8492 35.5921 14.5241 35.491C13.199 35.3903 12.2065 34.2343 12.3073 32.9093C13.1609 21.6928 21.9651 12.7012 33.097 11.5588C33.0947 11.5182 33.0938 11.4773 33.0938 11.4362V5.82161Z" fill="#237804"/>
<path fill-rule="evenodd" clip-rule="evenodd" d="M3.41671 41.1133C3.41671 39.7844 4.49403 38.707 5.82296 38.707H65.1771C66.506 38.707 67.5834 39.7844 67.5834 41.1133C67.5834 42.4422 66.506 43.5195 65.1771 43.5195H59.5625V65.9779H68.3855C69.7144 65.9779 70.7917 67.0552 70.7917 68.3841C70.7917 69.713 69.7144 70.7904 68.3855 70.7904H2.61462C1.2857 70.7904 0.208374 69.713 0.208374 68.3841C0.208374 67.0552 1.2857 65.9779 2.61462 65.9779H11.4375V43.5195H5.82296C4.49403 43.5195 3.41671 42.4422 3.41671 41.1133ZM16.25 65.9779H25.875V43.5195H16.25V65.9779ZM40.3125 65.9779V43.5195H30.6875V65.9779H40.3125ZM45.125 65.9779H54.75V43.5195H45.125V65.9779Z" fill="#237804"/>
</svg>
