<svg width="400" height="300" viewBox="0 0 400 300" fill="none" xmlns="http://www.w3.org/2000/svg">
<path d="M146.38 200.29L149.72 202.23C149.72 202.23 152.72 200.23 154.65 200.29C156.58 200.35 160.98 200.43 159.86 203.99C158.74 207.55 157.86 210.89 154.79 212.6C151.72 214.31 140.79 212.6 140.79 212.6C140.79 212.6 142.48 201.06 146.38 200.29Z" fill="#FFC9B0"/>
<path d="M149.68 214.35C146.666 214.302 143.658 214.045 140.68 213.58C140.421 213.538 140.189 213.396 140.034 213.185C139.879 212.973 139.813 212.709 139.85 212.45C140.14 210.45 141.85 200.17 146.21 199.31C146.447 199.258 146.694 199.301 146.9 199.43L149.72 201.06C150.72 200.43 152.94 199.2 154.72 199.29H154.86C156.53 199.35 159.33 199.45 160.54 201.16C160.84 201.616 161.025 202.138 161.079 202.682C161.133 203.225 161.054 203.773 160.85 204.28L160.61 205.05C159.54 208.47 158.53 211.69 155.31 213.46C154.06 214.14 151.94 214.35 149.68 214.35ZM141.96 211.75C146.13 212.33 152.43 212.75 154.31 211.75C156.82 210.36 157.67 207.65 158.66 204.5L158.9 203.72C159.19 202.81 158.9 202.47 158.9 202.36C158.26 201.45 155.9 201.36 154.78 201.36H154.64C153.45 201.29 151.35 202.42 150.31 203.13C150.151 203.229 149.967 203.282 149.78 203.282C149.593 203.282 149.409 203.229 149.25 203.13L146.25 201.42C144.34 202.26 142.69 207.57 142 211.75H141.96Z" fill="#093F68"/>
<path d="M146.38 200.292C143.806 204.03 141.923 208.199 140.82 212.602C135.064 210.701 129.815 207.518 125.47 203.292C123.715 201.71 122.3 199.787 121.31 197.642C119.24 192.642 122.58 178.732 129.58 183.962C132.58 186.172 134.07 190.852 136.66 193.582C139.389 196.48 142.702 198.767 146.38 200.292Z" fill="#49AD37"/>
<path d="M140.82 213.601C140.714 213.615 140.606 213.615 140.5 213.601C134.598 211.631 129.22 208.349 124.77 204.001C122.909 202.327 121.417 200.283 120.39 198.001C118.74 194.001 120.13 185.631 123.76 182.811C124.85 181.961 127.14 180.871 130.18 183.141C132.02 184.511 133.31 186.671 134.55 188.761C135.348 190.228 136.3 191.606 137.39 192.871C140.018 195.669 143.212 197.875 146.76 199.341C146.898 199.397 147.022 199.484 147.123 199.595C147.223 199.706 147.297 199.837 147.34 199.981C147.384 200.125 147.396 200.277 147.373 200.426C147.351 200.574 147.295 200.716 147.21 200.841C144.696 204.482 142.86 208.547 141.79 212.841C141.756 212.974 141.695 213.098 141.611 213.207C141.526 213.315 141.421 213.405 141.3 213.471C141.153 213.554 140.988 213.598 140.82 213.601ZM126.62 183.801C126.022 183.807 125.445 184.022 124.99 184.411C122.16 186.611 120.91 194.061 122.23 197.251C123.16 199.281 124.502 201.096 126.17 202.581C130.162 206.452 134.935 209.425 140.17 211.301C141.217 207.558 142.822 203.995 144.93 200.731C141.564 199.164 138.527 196.971 135.98 194.271C134.788 192.898 133.746 191.403 132.87 189.811C131.73 187.881 130.54 185.891 129.02 184.761C128.348 184.184 127.504 183.846 126.62 183.801Z" fill="#093F68"/>
<path d="M155.56 202.328C155.62 204.717 154.92 207.063 153.56 209.028C153.27 209.458 152.84 209.908 152.32 209.848C151.8 209.788 151.46 209.168 151.32 208.618C151.165 207.307 151.288 205.979 151.68 204.718C150.959 206.369 149.724 207.744 148.16 208.638C147.942 208.783 147.691 208.872 147.43 208.898C147.301 208.91 147.17 208.884 147.056 208.821C146.942 208.759 146.849 208.664 146.79 208.548" fill="#FFC9B0"/>
<path d="M152.41 210.859H152.19C151.71 210.767 151.273 210.522 150.944 210.162C150.614 209.802 150.409 209.345 150.36 208.859C150.36 208.709 150.31 208.559 150.29 208.409C149.796 208.852 149.257 209.241 148.68 209.569C148.324 209.792 147.919 209.925 147.5 209.959C147.16 209.98 146.821 209.895 146.531 209.716C146.241 209.537 146.014 209.273 145.88 208.959C145.791 208.743 145.78 208.503 145.849 208.28C145.919 208.057 146.064 207.865 146.26 207.738C146.456 207.611 146.69 207.556 146.922 207.584C147.154 207.611 147.369 207.719 147.53 207.889L147.69 207.799C149.062 207.013 150.146 205.807 150.78 204.359C150.878 204.129 151.058 203.943 151.286 203.84C151.514 203.736 151.772 203.721 152.01 203.799C152.248 203.877 152.447 204.042 152.57 204.26C152.692 204.479 152.728 204.735 152.67 204.979C152.32 206.104 152.201 207.287 152.32 208.459C152.343 208.584 152.383 208.705 152.44 208.819C152.551 208.725 152.646 208.614 152.72 208.489C153.963 206.698 154.608 204.559 154.56 202.379C154.56 202.114 154.665 201.859 154.853 201.672C155.04 201.484 155.295 201.379 155.56 201.379C155.825 201.379 156.08 201.484 156.267 201.672C156.455 201.859 156.56 202.114 156.56 202.379C156.614 204.986 155.844 207.545 154.36 209.689C154.155 210.028 153.87 210.312 153.53 210.516C153.19 210.72 152.806 210.838 152.41 210.859Z" fill="#093F68"/>
<path d="M249.41 204.001L246.07 205.941C246.07 205.941 243.07 203.941 241.14 204.001C239.21 204.061 234.81 204.141 235.93 207.701C237.05 211.261 237.93 214.601 241 216.301C244.07 218.001 255 216.301 255 216.301C255 216.301 253.31 204.761 249.41 204.001Z" fill="#FFC9B0"/>
<path d="M246.11 218.05C244.205 218.171 242.296 217.87 240.52 217.17C237.29 215.4 236.29 212.17 235.22 208.76L235 208C234.797 207.494 234.718 206.946 234.77 206.403C234.822 205.86 235.004 205.338 235.3 204.88C236.52 203.16 239.3 203.06 240.99 203H241.12C242.89 202.92 245.12 204.14 246.12 204.77L248.93 203.13C249.142 203.009 249.391 202.97 249.63 203.02C254.01 203.88 255.7 214.12 255.99 216.16C256.027 216.419 255.961 216.683 255.806 216.895C255.651 217.106 255.419 217.248 255.16 217.29C252.165 217.754 249.141 218.008 246.11 218.05ZM241.25 205H241C239.87 205 237.52 205.13 236.88 206C236.8 206.12 236.56 206.46 236.88 207.36L237.12 208.14C238.12 211.29 238.95 214.01 241.47 215.4C243.35 216.4 249.65 216.01 253.82 215.4C253.09 211.22 251.44 205.91 249.52 205.02L246.52 206.74C246.361 206.839 246.177 206.892 245.99 206.892C245.803 206.892 245.619 206.839 245.46 206.74C244.209 205.844 242.769 205.248 241.25 205Z" fill="#093F68"/>
<path d="M249.41 203.999C251.981 207.736 253.864 211.901 254.97 216.299C260.726 214.404 265.975 211.224 270.32 206.999C272.077 205.415 273.493 203.489 274.48 201.339C276.55 196.339 273.21 182.439 266.21 187.669C263.21 189.879 261.71 194.549 259.12 197.289C256.397 200.19 253.087 202.478 249.41 203.999Z" fill="#68E1FD"/>
<path d="M255 217.291C254.833 217.292 254.667 217.251 254.52 217.171C254.4 217.105 254.294 217.015 254.209 216.907C254.125 216.799 254.064 216.674 254.03 216.541C252.96 212.247 251.124 208.182 248.61 204.541C248.525 204.417 248.469 204.275 248.447 204.126C248.424 203.977 248.436 203.825 248.48 203.681C248.523 203.538 248.597 203.406 248.697 203.295C248.798 203.184 248.922 203.098 249.06 203.041C252.605 201.571 255.799 199.366 258.43 196.571C259.517 195.304 260.469 193.926 261.27 192.461C262.51 190.371 263.8 188.211 265.64 186.831C268.64 184.571 270.97 185.651 272.06 186.511C275.69 189.331 277.06 197.721 275.43 201.701C274.384 203.973 272.895 206.013 271.05 207.701C266.592 212.03 261.21 215.291 255.31 217.241C255.21 217.273 255.105 217.29 255 217.291ZM250.93 204.431C253.028 207.697 254.622 211.26 255.66 215.001C260.895 213.126 265.668 210.153 269.66 206.281C271.325 204.793 272.666 202.979 273.6 200.951C274.92 197.751 273.67 190.311 270.84 188.101C269.68 187.201 268.37 187.321 266.84 188.461C265.31 189.601 264.13 191.581 262.98 193.461C262.111 195.055 261.072 196.551 259.88 197.921C257.326 200.64 254.278 202.849 250.9 204.431H250.93Z" fill="#093F68"/>
<path d="M240.22 206C240.167 208.388 240.867 210.732 242.22 212.7C242.51 213.13 242.94 213.58 243.46 213.52C243.98 213.46 244.32 212.84 244.46 212.29C244.61 210.979 244.487 209.651 244.1 208.39C244.818 210.043 246.053 211.419 247.62 212.31C247.838 212.455 248.089 212.544 248.35 212.57C248.479 212.582 248.61 212.556 248.724 212.493C248.838 212.431 248.931 212.336 248.99 212.22" fill="#FFC9B0"/>
<path d="M243.38 214.55C242.968 214.527 242.569 214.4 242.22 214.182C241.87 213.963 241.581 213.66 241.38 213.3C239.897 211.159 239.131 208.604 239.19 206C239.19 205.735 239.295 205.48 239.483 205.293C239.67 205.105 239.925 205 240.19 205C240.455 205 240.71 205.105 240.897 205.293C241.085 205.48 241.19 205.735 241.19 206C241.147 208.181 241.795 210.319 243.04 212.11C243.117 212.233 243.211 212.344 243.32 212.44C243.377 212.326 243.417 212.205 243.44 212.08C243.559 210.908 243.44 209.725 243.09 208.6C243.01 208.347 243.035 208.072 243.158 207.837C243.28 207.601 243.492 207.425 243.745 207.345C243.998 207.265 244.273 207.29 244.508 207.413C244.743 207.535 244.92 207.747 245 208C245.634 209.448 246.718 210.655 248.09 211.44L248.25 211.52C248.389 211.376 248.568 211.277 248.765 211.236C248.961 211.195 249.165 211.214 249.35 211.29C249.595 211.39 249.79 211.583 249.893 211.826C249.997 212.07 249.999 212.345 249.9 212.59C249.766 212.904 249.539 213.168 249.249 213.347C248.959 213.526 248.62 213.611 248.28 213.59C247.861 213.557 247.456 213.423 247.1 213.2C246.523 212.872 245.984 212.483 245.49 212.04C245.49 212.19 245.49 212.34 245.42 212.49C245.368 212.975 245.162 213.43 244.833 213.79C244.504 214.15 244.068 214.395 243.59 214.49L243.38 214.55Z" fill="#093F68"/>
<path d="M134.4 220.502L133.86 210.822L91.82 200.762L91.03 220.502H134.4Z" fill="#093F68"/>
<path d="M134.4 221.498H91C90.7348 221.498 90.4804 221.393 90.2929 221.205C90.1054 221.018 90 220.764 90 220.498L90.79 200.758C90.796 200.61 90.8351 200.465 90.9043 200.333C90.9734 200.202 91.0711 200.087 91.19 199.998C91.3075 199.911 91.4427 199.85 91.5861 199.821C91.7295 199.792 91.8776 199.794 92.02 199.828L134.07 209.888C134.277 209.939 134.463 210.055 134.599 210.219C134.736 210.382 134.817 210.585 134.83 210.798L135.37 220.478C135.38 220.754 135.283 221.022 135.1 221.228C134.911 221.406 134.66 221.503 134.4 221.498ZM92.07 219.498H133.34L132.91 211.618L92.77 201.998L92.07 219.498Z" fill="#093F68"/>
<path d="M221.87 220.5L221.73 209.9L217.74 209.71V209.52H213.67L198.36 208.78L198.44 209.52H197.77L177.54 202.23L175.81 220.5H221.87Z" fill="#093F68"/>
<path d="M221.87 221.5H175.81C175.67 221.499 175.533 221.47 175.405 221.413C175.278 221.356 175.164 221.273 175.07 221.17C174.977 221.068 174.905 220.948 174.86 220.817C174.816 220.686 174.798 220.547 174.81 220.41L176.54 202.14C176.554 201.988 176.603 201.841 176.683 201.711C176.763 201.581 176.871 201.471 177 201.39C177.129 201.306 177.276 201.254 177.428 201.237C177.581 201.22 177.736 201.238 177.88 201.29L197.46 208.34C197.502 208.25 197.559 208.169 197.63 208.1C197.73 207.995 197.851 207.912 197.986 207.859C198.121 207.805 198.265 207.782 198.41 207.79L213.72 208.52H217.72C217.952 208.516 218.179 208.594 218.36 208.74L221.77 208.91C222.026 208.922 222.268 209.033 222.445 209.22C222.622 209.406 222.72 209.653 222.72 209.91L222.86 220.51C222.86 220.775 222.755 221.029 222.567 221.217C222.38 221.404 222.125 221.51 221.86 221.51L221.87 221.5ZM176.87 219.5H220.87L220.75 210.86L217.7 210.71C217.502 210.702 217.31 210.636 217.15 210.52H213.68L199.4 209.83C199.35 209.96 199.279 210.082 199.19 210.19C199.097 210.293 198.982 210.376 198.855 210.433C198.727 210.49 198.59 210.519 198.45 210.52H197.78C197.664 210.519 197.549 210.499 197.44 210.46L178.44 203.61L176.87 219.5Z" fill="#093F68"/>
<path d="M188.16 138.59H214.39C217.573 138.59 220.625 139.854 222.875 142.105C225.126 144.355 226.39 147.407 226.39 150.59V202.27H176.2V150.55C176.21 147.381 177.474 144.345 179.715 142.104C181.955 139.864 184.991 138.6 188.16 138.59Z" fill="#49AD37"/>
<path d="M226.35 203.231H176.2C175.935 203.231 175.68 203.125 175.493 202.938C175.305 202.75 175.2 202.496 175.2 202.231V150.551C175.2 147.103 176.57 143.796 179.008 141.358C181.446 138.92 184.752 137.551 188.2 137.551H214.43C217.878 137.551 221.184 138.92 223.622 141.358C226.06 143.796 227.43 147.103 227.43 150.551V202.231C227.43 202.369 227.402 202.506 227.347 202.633C227.292 202.76 227.211 202.874 227.109 202.968C227.008 203.062 226.888 203.134 226.757 203.179C226.627 203.224 226.488 203.242 226.35 203.231ZM177.2 201.231H225.35V150.551C225.35 147.633 224.191 144.835 222.128 142.773C220.065 140.71 217.267 139.551 214.35 139.551H188.16C185.243 139.551 182.445 140.71 180.382 142.773C178.319 144.835 177.16 147.633 177.16 150.551L177.2 201.231Z" fill="#093F68"/>
<path d="M197.87 81.6187C198.769 82.4958 199.418 83.597 199.75 84.8087C203.85 81.2987 210.08 80.9387 215.03 83.1187C219.98 85.2987 223.72 89.6487 226.13 94.4887C228.29 98.8187 228.79 103.809 228.84 108.579C228.89 113.349 227.68 117.799 227.79 122.579C227.79 124.259 227.63 124.579 225.97 124.829C224.402 124.939 222.828 124.939 221.26 124.829H184.18C183.68 124.829 176.18 125.149 176.11 124.829C175.82 123.829 176.27 122.629 176.31 121.629C176.46 118.159 175.31 114.289 175.11 110.759C174.84 105.299 173.76 100.519 176 95.3787C178.24 90.2548 181.743 85.7822 186.18 82.3787C187.996 80.7987 190.256 79.8175 192.65 79.5687C193.613 79.5444 194.571 79.7133 195.467 80.0654C196.364 80.4175 197.181 80.9456 197.87 81.6187Z" fill="#725858"/>
<path d="M178.1 126.001C175.37 126.001 175.31 125.761 175.1 125.101C174.909 124.268 174.909 123.404 175.1 122.571C175.165 122.241 175.209 121.907 175.23 121.571C175.23 119.557 175.032 117.547 174.64 115.571C174.347 113.994 174.146 112.401 174.04 110.801C173.98 109.691 173.89 108.611 173.8 107.551C173.45 103.301 173.12 99.281 175 94.971C177.307 89.6775 180.919 85.0565 185.5 81.541C187.13 80.301 189.64 78.631 192.5 78.541C193.603 78.5171 194.699 78.7175 195.721 79.13C196.744 79.5426 197.673 80.1587 198.45 80.941C199.131 81.6005 199.69 82.3759 200.1 83.231C202.352 81.8124 204.922 80.9779 207.578 80.8033C210.234 80.6287 212.892 81.1194 215.31 82.231C220.01 84.291 224.13 88.501 226.9 94.071C229.31 98.901 229.67 104.371 229.72 108.591C229.701 110.934 229.52 113.273 229.18 115.591C228.848 117.91 228.677 120.249 228.67 122.591C228.67 124.591 228.34 125.511 225.99 125.851C224.878 125.976 223.756 125.996 222.64 125.911C222.13 125.911 221.64 125.911 221.14 125.911H184.18H183.31C180.93 125.901 179.27 126.001 178.1 126.001ZM177.05 123.981C178.043 123.981 180.123 123.948 183.29 123.881H184.22H221.3H222.89C223.888 123.973 224.892 123.973 225.89 123.881C226.61 123.781 226.77 123.691 226.8 123.661C226.847 123.329 226.847 122.993 226.8 122.661C226.797 120.225 226.974 117.791 227.33 115.381C227.655 113.165 227.828 110.93 227.85 108.691C227.8 104.691 227.47 99.491 225.24 95.031C222.68 89.881 218.91 86.031 214.64 84.131C209.72 81.961 204.01 82.581 200.41 85.661C200.281 85.7717 200.126 85.8477 199.959 85.8819C199.793 85.916 199.62 85.9072 199.458 85.8561C199.296 85.8051 199.15 85.7135 199.033 85.5901C198.916 85.4668 198.832 85.3156 198.79 85.151C198.508 84.1131 197.952 83.1702 197.18 82.421C196.59 81.8366 195.891 81.3742 195.122 81.0602C194.353 80.7462 193.53 80.5867 192.7 80.591C190.37 80.681 188.22 82.121 186.8 83.201C182.493 86.5104 179.096 90.8598 176.93 95.841C175.24 99.691 175.54 103.291 175.93 107.451C176.01 108.531 176.11 109.641 176.16 110.771C176.273 112.297 176.466 113.816 176.74 115.321C177.162 117.431 177.37 119.579 177.36 121.731C177.332 122.141 177.279 122.548 177.2 122.951C177.115 123.274 177.048 123.601 177 123.931L177.05 123.981Z" fill="#093F68"/>
<path d="M197.63 141.672H204.92V145.872C204.92 146.694 204.593 147.483 204.012 148.064C203.431 148.645 202.642 148.972 201.82 148.972H200.72C199.898 148.972 199.109 148.645 198.528 148.064C197.947 147.483 197.62 146.694 197.62 145.872V141.672H197.63Z" fill="#FFC9B0"/>
<path d="M201.83 150.001H200.73C199.643 149.998 198.602 149.565 197.834 148.797C197.065 148.029 196.633 146.988 196.63 145.901V141.711C196.63 141.446 196.735 141.191 196.923 141.004C197.11 140.816 197.365 140.711 197.63 140.711H204.92C205.185 140.711 205.44 140.816 205.627 141.004C205.815 141.191 205.92 141.446 205.92 141.711V145.901C205.92 146.987 205.489 148.028 204.723 148.797C203.956 149.565 202.916 149.998 201.83 150.001ZM198.63 142.711V145.901C198.63 146.458 198.851 146.992 199.245 147.386C199.639 147.78 200.173 148.001 200.73 148.001H201.83C202.385 147.998 202.917 147.776 203.308 147.382C203.7 146.989 203.92 146.456 203.92 145.901V142.711H198.63Z" fill="#093F68"/>
<path d="M181.65 128.829C185.334 128.829 188.32 126.098 188.32 122.729C188.32 119.36 185.334 116.629 181.65 116.629C177.966 116.629 174.98 119.36 174.98 122.729C174.98 126.098 177.966 128.829 181.65 128.829Z" fill="#FFC9B0"/>
<path d="M181.65 129.829C177.42 129.829 173.98 126.649 173.98 122.729C174.12 120.791 174.989 118.977 176.412 117.654C177.835 116.33 179.706 115.594 181.65 115.594C183.594 115.594 185.465 116.33 186.888 117.654C188.311 118.977 189.18 120.791 189.32 122.729C189.32 126.649 185.88 129.829 181.65 129.829ZM181.65 117.619C180.664 117.724 179.73 118.112 178.96 118.736C178.19 119.36 177.617 120.194 177.311 121.136C177.005 122.079 176.978 123.09 177.235 124.048C177.491 125.005 178.019 125.868 178.756 126.532C179.492 127.195 180.405 127.631 181.384 127.787C182.363 127.943 183.366 127.812 184.272 127.41C185.178 127.007 185.948 126.351 186.489 125.521C187.03 124.69 187.318 123.721 187.32 122.729C187.242 121.301 186.602 119.962 185.54 119.004C184.477 118.046 183.079 117.549 181.65 117.619Z" fill="#093F68"/>
<path d="M220.53 128.829C224.214 128.829 227.2 126.098 227.2 122.729C227.2 119.36 224.214 116.629 220.53 116.629C216.846 116.629 213.86 119.36 213.86 122.729C213.86 126.098 216.846 128.829 220.53 128.829Z" fill="#FFC9B0"/>
<path d="M220.53 129.829C216.3 129.829 212.86 126.649 212.86 122.729C213 120.791 213.869 118.977 215.292 117.654C216.715 116.33 218.586 115.594 220.53 115.594C222.474 115.594 224.345 116.33 225.768 117.654C227.191 118.977 228.06 120.791 228.2 122.729C228.2 126.649 224.76 129.829 220.53 129.829ZM220.53 117.619C219.544 117.724 218.61 118.112 217.84 118.736C217.07 119.36 216.497 120.194 216.191 121.136C215.885 122.079 215.858 123.09 216.115 124.048C216.371 125.005 216.899 125.868 217.636 126.532C218.372 127.195 219.285 127.631 220.264 127.787C221.243 127.943 222.246 127.812 223.152 127.41C224.058 127.007 224.828 126.351 225.369 125.521C225.91 124.69 226.198 123.721 226.2 122.729C226.122 121.301 225.482 119.962 224.42 119.004C223.357 118.046 221.959 117.549 220.53 117.619Z" fill="#093F68"/>
<path d="M201.28 142.621C197.949 142.609 194.667 141.825 191.691 140.329C188.715 138.833 186.127 136.667 184.13 134.001C179.63 128.001 179.42 120.741 180.86 113.621C181.86 108.771 184.53 108.621 189.17 108.901C189.393 106.32 189.986 103.784 190.93 101.371C191.942 103.713 192.576 106.201 192.81 108.741C196.09 108.741 199.38 108.741 202.66 108.881L203.84 102.711C204.976 104.486 205.593 106.544 205.62 108.651L217.02 109.831L218.14 103.831C219.055 105.422 219.408 107.275 219.14 109.091C223.73 106.911 222.67 111.741 222.67 114.861V121.291C222.666 124.096 222.11 126.873 221.033 129.463C219.956 132.053 218.379 134.405 216.393 136.386C214.406 138.367 212.049 139.937 209.456 141.007C206.863 142.076 204.085 142.625 201.28 142.621Z" fill="#FFC9B0"/>
<path d="M201.28 143.619C197.796 143.611 194.361 142.794 191.246 141.232C188.131 139.67 185.421 137.407 183.33 134.619C179.25 129.129 178.11 122.209 179.88 113.439C180.88 108.229 184 107.689 188.27 107.869C188.556 105.516 189.137 103.208 190 100.999C190.072 100.813 190.198 100.652 190.362 100.538C190.526 100.424 190.72 100.362 190.92 100.359C191.118 100.358 191.312 100.415 191.478 100.523C191.643 100.632 191.773 100.787 191.85 100.969C192.784 103.12 193.407 105.393 193.7 107.719C196.41 107.719 199.13 107.719 201.84 107.829L202.84 102.509C202.879 102.314 202.975 102.135 203.116 101.995C203.257 101.854 203.437 101.759 203.632 101.722C203.828 101.684 204.03 101.706 204.213 101.784C204.396 101.862 204.552 101.992 204.66 102.159C205.737 103.837 206.389 105.753 206.56 107.739L216.18 108.739L217.18 103.599C217.218 103.398 217.317 103.213 217.464 103.07C217.611 102.927 217.798 102.833 218 102.799C218.196 102.773 218.396 102.805 218.574 102.892C218.753 102.98 218.901 103.118 219 103.289C219.757 104.603 220.173 106.084 220.21 107.599C220.583 107.495 220.972 107.468 221.356 107.52C221.739 107.572 222.108 107.701 222.44 107.899C223.91 108.899 223.8 111.139 223.69 113.319C223.69 113.839 223.64 114.319 223.64 114.819V121.249C223.637 127.18 221.281 132.867 217.089 137.061C212.896 141.255 207.21 143.614 201.28 143.619ZM186.85 109.819C183.78 109.819 182.49 110.569 181.85 113.819C180.2 121.999 181.22 128.409 184.95 133.409C187.504 136.845 191.076 139.388 195.158 140.678C199.24 141.967 203.625 141.937 207.689 140.591C211.753 139.246 215.289 136.654 217.796 133.183C220.302 129.713 221.651 125.54 221.65 121.259V114.829C221.65 114.329 221.65 113.829 221.7 113.229C221.76 111.999 221.86 109.929 221.34 109.579C221.27 109.579 220.87 109.339 219.55 109.959C219.389 110.032 219.212 110.062 219.036 110.044C218.861 110.027 218.693 109.963 218.55 109.859C218.358 109.718 218.223 109.512 218.17 109.279L218 109.999C217.954 110.245 217.817 110.464 217.617 110.614C217.417 110.764 217.169 110.834 216.92 110.809L205.52 109.639C205.272 109.615 205.043 109.498 204.877 109.313C204.71 109.128 204.619 108.888 204.62 108.639C204.609 107.733 204.478 106.831 204.23 105.959L203.64 109.039C203.595 109.271 203.47 109.478 203.288 109.627C203.105 109.775 202.875 109.854 202.64 109.849C199.39 109.709 196.1 109.659 192.86 109.709C192.61 109.71 192.368 109.618 192.183 109.449C191.998 109.281 191.882 109.049 191.86 108.799C191.731 107.305 191.45 105.827 191.02 104.389C190.62 105.883 190.349 107.409 190.21 108.949C190.189 109.211 190.067 109.454 189.868 109.627C189.67 109.799 189.412 109.886 189.15 109.869C188.26 109.849 187.52 109.819 186.85 109.819Z" fill="#093F68"/>
<path d="M199.28 129.381C198.61 129.376 197.941 129.32 197.28 129.211C197.015 129.164 196.779 129.014 196.624 128.794C196.469 128.574 196.409 128.301 196.455 128.036C196.501 127.77 196.651 127.535 196.872 127.38C197.092 127.225 197.365 127.164 197.63 127.211C198.449 127.347 199.283 127.377 200.11 127.301C199.769 125.838 199.224 124.431 198.49 123.121C198.429 123.004 198.392 122.876 198.381 122.745C198.37 122.614 198.385 122.482 198.425 122.356C198.465 122.231 198.529 122.115 198.614 122.014C198.699 121.914 198.803 121.831 198.92 121.771C199.154 121.651 199.425 121.627 199.676 121.706C199.927 121.785 200.137 121.959 200.26 122.191C201.16 123.901 202.56 126.981 201.95 128.341C201.859 128.546 201.722 128.728 201.548 128.87C201.374 129.013 201.169 129.112 200.95 129.161C200.404 129.3 199.843 129.374 199.28 129.381Z" fill="#093F68"/>
<path d="M207.39 124.371C208.583 124.371 209.55 123.404 209.55 122.211C209.55 121.018 208.583 120.051 207.39 120.051C206.197 120.051 205.23 121.018 205.23 122.211C205.23 123.404 206.197 124.371 207.39 124.371Z" fill="#093F68"/>
<path d="M188.32 122.73C189.513 122.73 190.48 121.763 190.48 120.57C190.48 119.377 189.513 118.41 188.32 118.41C187.127 118.41 186.16 119.377 186.16 120.57C186.16 121.763 187.127 122.73 188.32 122.73Z" fill="#093F68"/>
<path d="M206.42 118.368C205.889 118.368 205.381 118.158 205.006 117.783C204.631 117.408 204.42 116.899 204.42 116.368C204.42 115.838 204.631 115.329 205.006 114.954C205.381 114.579 205.889 114.368 206.42 114.368L216.7 114.148H216.75C217.28 114.148 217.789 114.359 218.164 114.734C218.539 115.109 218.75 115.618 218.75 116.148C218.75 116.679 218.539 117.188 218.164 117.563C217.789 117.938 217.28 118.148 216.75 118.148L206.46 118.368H206.42Z" fill="#093F68"/>
<path d="M196 117.78H195.88L185.61 117.21C185.08 117.181 184.582 116.942 184.228 116.546C183.874 116.151 183.691 115.63 183.72 115.1C183.749 114.57 183.988 114.073 184.384 113.718C184.779 113.364 185.3 113.181 185.83 113.21L196.1 113.77C196.63 113.783 197.134 114.007 197.5 114.391C197.865 114.776 198.063 115.29 198.05 115.82C198.037 116.35 197.813 116.854 197.429 117.22C197.044 117.585 196.53 117.783 196 117.77V117.78Z" fill="#093F68"/>
<path d="M199.14 135.441C197.083 135.423 195.075 134.808 193.36 133.671C193.254 133.593 193.165 133.494 193.097 133.382C193.029 133.269 192.985 133.144 192.965 133.014C192.946 132.884 192.952 132.752 192.984 132.624C193.015 132.497 193.072 132.377 193.15 132.271C193.228 132.165 193.326 132.076 193.439 132.008C193.552 131.94 193.677 131.895 193.807 131.876C193.937 131.856 194.069 131.863 194.197 131.894C194.324 131.926 194.444 131.983 194.55 132.061C196.061 133.079 197.872 133.554 199.688 133.411C201.504 133.268 203.218 132.513 204.55 131.271C204.753 131.1 205.015 131.016 205.28 131.039C205.544 131.061 205.789 131.188 205.96 131.391C206.131 131.594 206.215 131.856 206.192 132.121C206.17 132.385 206.043 132.63 205.84 132.801C203.999 134.461 201.619 135.398 199.14 135.441Z" fill="#093F68"/>
<path d="M306.97 220.501L305.52 201.781L258.69 212.551L258.43 220.501H306.97Z" fill="#093F68"/>
<path d="M307 221.497H258.43C258.295 221.497 258.162 221.469 258.038 221.416C257.915 221.363 257.803 221.285 257.71 221.187C257.618 221.092 257.546 220.979 257.498 220.856C257.45 220.732 257.427 220.6 257.43 220.467L257.69 212.517C257.697 212.298 257.777 212.087 257.916 211.917C258.055 211.747 258.246 211.628 258.46 211.577L305.3 200.797C305.439 200.766 305.584 200.765 305.723 200.795C305.863 200.824 305.995 200.883 306.11 200.967C306.227 201.052 306.324 201.161 306.395 201.288C306.466 201.414 306.508 201.553 306.52 201.697L308 220.417C308.012 220.555 307.994 220.694 307.95 220.825C307.905 220.956 307.834 221.076 307.74 221.177C307.646 221.279 307.531 221.36 307.404 221.415C307.276 221.47 307.139 221.498 307 221.497ZM259.49 219.497H305.92L304.61 202.997L259.66 213.337L259.49 219.497Z" fill="#093F68"/>
<path d="M150.43 101.609C151.299 99.4213 151.682 97.0712 151.552 94.7212C151.423 92.3712 150.784 90.0774 149.68 87.9987C147.68 83.9987 143.68 80.0587 139.47 81.2987C139.764 83.5601 140.355 85.7727 141.23 87.8787C137.51 84.8787 132.34 84.3587 127.59 84.8787C125.7 85.0887 123.59 85.5787 122.59 87.1687C121.59 88.7587 122.71 91.5487 124.59 91.1687C120.549 89.3354 115.968 89.0821 111.75 90.4587C110.4 90.9087 108.93 91.7487 108.75 93.1587C108.5 95.0787 110.75 96.2787 112.56 96.9087C108.93 95.0887 103.88 97.9787 103.56 102.029L106.34 102.669C100.52 108.669 104.01 118.069 106.81 124.759C107.63 126.699 111.6 135.979 114.28 136.269C114.35 136.269 128.34 137.749 135.57 129.099C139.52 124.379 142.34 118.669 144.95 113.099C146.89 109.109 149.12 105.389 150.43 101.609Z" fill="#725858"/>
<path d="M116.82 137.442C115.945 137.45 115.07 137.41 114.2 137.322C111.97 137.092 109.2 133.012 105.91 125.202C103.66 119.842 99.59 110.132 104.54 103.342L103.36 103.062C103.134 103.011 102.933 102.884 102.791 102.701C102.649 102.519 102.574 102.293 102.58 102.062C102.696 100.9 103.098 99.7845 103.748 98.8146C104.399 97.8448 105.279 97.0504 106.31 96.5019C106.989 96.1147 107.72 95.8252 108.48 95.6419C108.189 95.298 107.973 94.8971 107.845 94.4649C107.718 94.0327 107.682 93.5787 107.74 93.1319C107.94 91.5819 109.24 90.3319 111.41 89.6219C114.573 88.5801 117.956 88.404 121.21 89.1119C121.105 88.2747 121.292 87.4269 121.74 86.7119C123.06 84.7119 125.65 84.1719 127.48 83.9719C130.88 83.6019 135.42 83.6519 139.33 85.5719C138.94 84.243 138.656 82.8855 138.48 81.5119C138.449 81.2754 138.503 81.0356 138.634 80.8357C138.764 80.6358 138.961 80.489 139.19 80.4219C143.84 79.0619 148.26 83.0619 150.57 87.6219C152.88 92.1819 153.19 96.7319 151.37 101.982C150.383 104.612 149.217 107.171 147.88 109.642C147.21 110.942 146.52 112.292 145.88 113.642C143.25 119.212 140.36 125.052 136.36 129.822C130.72 136.552 121.36 137.442 116.82 137.442ZM104.72 101.332L106.59 101.762C106.762 101.802 106.92 101.887 107.048 102.009C107.176 102.13 107.27 102.283 107.32 102.452C107.374 102.625 107.381 102.809 107.338 102.985C107.296 103.161 107.207 103.323 107.08 103.452C102.08 108.592 104.45 116.582 107.75 124.452C110.69 131.452 113.33 135.242 114.41 135.352C114.54 135.352 128.01 136.692 134.83 128.542C138.67 123.942 141.39 118.472 144.07 112.792C144.73 111.392 145.42 110.022 146.07 108.712C147.361 106.32 148.491 103.845 149.45 101.302C150.271 99.2478 150.634 97.0396 150.515 94.8308C150.396 92.6221 149.797 90.4658 148.76 88.5119C146.97 84.9919 143.82 81.8319 140.57 82.1619C140.88 84.0161 141.403 85.8281 142.13 87.5619C142.214 87.7673 142.227 87.9947 142.167 88.2084C142.107 88.422 141.978 88.6097 141.8 88.7419C141.625 88.8765 141.411 88.9495 141.19 88.9495C140.969 88.9495 140.755 88.8765 140.58 88.7419C136.78 85.6819 131.46 85.5419 127.67 85.9619C126.24 86.1119 124.25 86.4819 123.39 87.8019C123.233 88.105 123.156 88.4434 123.166 88.7847C123.177 89.1261 123.274 89.459 123.45 89.7519C123.96 89.9319 124.45 90.1319 124.95 90.3619C125.138 90.448 125.295 90.5905 125.399 90.7696C125.503 90.9487 125.549 91.1557 125.53 91.3619C125.506 91.5731 125.416 91.7713 125.272 91.9277C125.128 92.0842 124.938 92.1907 124.73 92.2319C124.285 92.3172 123.826 92.2895 123.394 92.1515C122.963 92.0135 122.573 91.7695 122.26 91.4419C118.927 90.3722 115.343 90.3722 112.01 91.4419C111.36 91.6619 109.82 92.2819 109.69 93.3119C109.56 94.3419 110.86 95.1719 111.94 95.6519C112.286 95.7524 112.62 95.8863 112.94 96.0519C113.166 96.1662 113.34 96.3618 113.427 96.5994C113.514 96.8369 113.508 97.0987 113.41 97.3319C113.312 97.5645 113.13 97.7514 112.9 97.8553C112.67 97.9592 112.409 97.9722 112.17 97.8919C111.837 97.7786 111.527 97.6586 111.24 97.5319C109.874 97.2533 108.453 97.4824 107.243 98.1764C106.034 98.8704 105.119 99.9817 104.67 101.302L104.72 101.332Z" fill="#093F68"/>
<path d="M132.75 145.878C127.32 146.248 122.19 143.618 118.2 140.098C116.14 138.268 112.81 136.098 113.64 132.958C114.07 131.615 114.83 130.402 115.85 129.428C116.47 128.758 117.04 128.088 117.56 127.428C116.454 126.279 115.735 124.814 115.502 123.236C115.269 121.659 115.534 120.048 116.26 118.628C116.858 117.482 117.869 116.605 119.088 116.175C120.307 115.744 121.645 115.792 122.83 116.308C125.47 117.248 126.39 120.628 126.95 123.058C126.991 123.346 127.112 123.616 127.3 123.838C127.515 124.017 127.781 124.126 128.06 124.148C128.842 124.303 129.648 124.303 130.43 124.148C130.67 124.117 130.893 124.004 131.06 123.828C131.129 123.716 131.175 123.591 131.196 123.46C131.217 123.33 131.211 123.196 131.18 123.068C130.87 118.808 130.05 114.488 130.97 110.318C132.4 103.758 137.29 105.318 142.47 104.078C143.16 103.908 150.21 102.218 150.19 101.078L151.66 122.818C152.47 134.738 145 145.048 132.75 145.878Z" fill="#FFC9B0"/>
<path d="M131.75 146.91C127.01 146.91 122 144.79 117.54 140.85L116.62 140.07C114.62 138.37 111.8 136.07 112.68 132.71C113.146 131.196 113.981 129.821 115.11 128.71C115.53 128.263 115.91 127.833 116.25 127.42C115.241 126.109 114.623 124.539 114.467 122.892C114.312 121.245 114.625 119.587 115.37 118.11C116.077 116.745 117.274 115.698 118.72 115.179C120.167 114.659 121.756 114.706 123.17 115.31C126.48 116.49 127.45 120.74 127.93 122.78C127.93 122.95 128 123.03 128.01 123.07C128.073 123.061 128.137 123.061 128.2 123.07C128.861 123.196 129.539 123.196 130.2 123.07C130.13 122.07 130.03 121.07 129.93 120.16C129.6 116.82 129.26 113.37 130 109.99C131.23 104.35 135 103.94 138.65 103.55C139.861 103.443 141.064 103.256 142.25 102.99C146.13 102.07 148.68 101.12 149.25 100.65C149.279 100.385 149.412 100.142 149.621 99.9751C149.829 99.8081 150.095 99.7308 150.36 99.7599C150.625 99.7891 150.868 99.9225 151.035 100.131C151.202 100.339 151.279 100.605 151.25 100.87L152.72 122.6C153.61 135.8 145.27 145.98 132.88 146.83C132.46 146.9 132.11 146.91 131.75 146.91ZM120.75 116.91C120.013 116.894 119.286 117.089 118.656 117.472C118.025 117.854 117.517 118.409 117.19 119.07C116.554 120.294 116.318 121.687 116.515 123.052C116.712 124.417 117.333 125.686 118.29 126.68C118.469 126.849 118.579 127.078 118.599 127.324C118.62 127.569 118.549 127.814 118.4 128.01C117.89 128.67 117.31 129.36 116.62 130.11C115.713 130.967 115.027 132.031 114.62 133.21C114.1 135.21 115.62 136.65 117.92 138.54C118.25 138.82 118.58 139.09 118.92 139.36C123.3 143.22 128.2 145.19 132.73 144.88C143.97 144.12 151.53 134.88 150.73 122.79L149.39 102.93C147.233 103.836 144.992 104.529 142.7 105C141.431 105.283 140.145 105.48 138.85 105.59C135.25 105.98 132.85 106.24 131.94 110.48C131.27 113.55 131.58 116.69 131.94 120.02C132.04 121.02 132.14 121.97 132.21 122.95C132.26 123.191 132.26 123.441 132.209 123.682C132.158 123.923 132.057 124.151 131.913 124.351C131.769 124.551 131.585 124.72 131.373 124.845C131.161 124.97 130.925 125.05 130.68 125.08C129.765 125.26 128.825 125.26 127.91 125.08C127.436 125.031 126.991 124.831 126.64 124.51C126.313 124.155 126.095 123.715 126.01 123.24C125.38 120.53 124.53 117.92 122.53 117.24C121.947 117.025 121.331 116.914 120.71 116.91H120.75Z" fill="#093F68"/>
<path d="M146 114.199H137C136.47 114.199 135.961 113.989 135.586 113.613C135.211 113.238 135 112.73 135 112.199C135 111.669 135.211 111.16 135.586 110.785C135.961 110.41 136.47 110.199 137 110.199H146C146.53 110.199 147.039 110.41 147.414 110.785C147.789 111.16 148 111.669 148 112.199C148 112.73 147.789 113.238 147.414 113.613C147.039 113.989 146.53 114.199 146 114.199Z" fill="#093F68"/>
<path d="M144.1 118.86C145.216 118.86 146.12 117.956 146.12 116.84C146.12 115.725 145.216 114.82 144.1 114.82C142.984 114.82 142.08 115.725 142.08 116.84C142.08 117.956 142.984 118.86 144.1 118.86Z" fill="#093F68"/>
<path d="M149.48 117.371C149.48 117.371 155.25 126.061 153.89 126.501C152.308 126.801 150.7 126.938 149.09 126.911" fill="#FFC9B0"/>
<path d="M149.28 127.909H149.08C148.815 127.909 148.56 127.804 148.373 127.616C148.185 127.429 148.08 127.174 148.08 126.909C148.08 126.644 148.185 126.389 148.373 126.202C148.56 126.014 148.815 125.909 149.08 125.909H149.27C150.517 125.916 151.764 125.836 153 125.669C151.795 122.954 150.335 120.359 148.64 117.919C148.499 117.698 148.451 117.43 148.506 117.173C148.561 116.917 148.715 116.692 148.934 116.548C149.153 116.403 149.42 116.351 149.678 116.402C149.935 116.452 150.162 116.602 150.31 116.819C153.84 122.139 155.42 125.449 155 126.639C154.937 126.828 154.831 126.999 154.691 127.14C154.55 127.28 154.379 127.386 154.19 127.449C152.576 127.788 150.929 127.942 149.28 127.909Z" fill="#093F68"/>
<path d="M145.87 135C145.61 135 139.41 134.72 136.52 129.57C136.454 129.456 136.412 129.33 136.395 129.199C136.378 129.068 136.387 128.935 136.421 128.808C136.456 128.681 136.515 128.562 136.595 128.457C136.676 128.353 136.776 128.266 136.89 128.2C137.004 128.134 137.13 128.092 137.261 128.075C137.392 128.058 137.524 128.067 137.652 128.101C137.779 128.135 137.898 128.195 138.002 128.275C138.107 128.355 138.194 128.456 138.26 128.57C140.59 132.73 145.89 132.98 145.94 132.98C146.205 132.98 146.46 133.085 146.647 133.273C146.835 133.46 146.94 133.715 146.94 133.98C146.943 134.119 146.917 134.257 146.864 134.386C146.811 134.514 146.731 134.63 146.63 134.726C146.53 134.822 146.41 134.896 146.279 134.943C146.148 134.99 146.009 135.01 145.87 135Z" fill="#093F68"/>
<path d="M134.46 210.31L91.8199 200.76L102.33 155.38C102.947 152.902 104.047 150.571 105.566 148.519C107.085 146.467 108.993 144.734 111.182 143.42C113.371 142.106 115.798 141.236 118.323 140.86C120.849 140.484 123.423 140.61 125.9 141.23L130.41 142.35C135.41 143.601 139.709 146.787 142.363 151.206C145.016 155.626 145.806 160.918 144.56 165.92L134.46 210.31Z" fill="#49AD37"/>
<path d="M134.46 211.311C134.387 211.321 134.313 211.321 134.24 211.311L91.6 201.731C91.4712 201.703 91.3492 201.65 91.2411 201.574C91.133 201.499 91.0408 201.402 90.97 201.291C90.9008 201.179 90.8546 201.054 90.834 200.923C90.8134 200.793 90.8189 200.66 90.85 200.531L101.35 155.151C102.671 149.893 106.021 145.373 110.667 142.581C115.314 139.788 120.877 138.95 126.14 140.251L130.65 141.381C135.91 142.697 140.432 146.047 143.222 150.696C146.013 155.344 146.843 160.911 145.53 166.171L135.44 210.541C135.388 210.761 135.263 210.958 135.085 211.098C134.907 211.237 134.686 211.313 134.46 211.311ZM93 200.001L133.69 209.121L143.56 165.701C144.744 160.955 143.996 155.934 141.482 151.738C138.968 147.543 134.893 144.516 130.15 143.321L125.63 142.201C120.887 141.021 115.869 141.772 111.679 144.288C107.489 146.804 104.468 150.88 103.28 155.621L93 200.001Z" fill="#093F68"/>
<path d="M185.18 195.641C188.79 196.991 192.271 198.665 195.58 200.641C200.58 203.731 205.06 212.471 202.18 212.351C199.3 212.231 192.65 210.351 190.09 210.181C188.6 210.051 180.33 208.031 180.33 208.031L185.18 195.641Z" fill="#FFC9B0"/>
<path d="M202.24 213.338H202.14C199.781 213.093 197.442 212.685 195.14 212.118C193.08 211.678 191.14 211.268 190.06 211.178C188.53 211.038 180.99 209.178 180.14 209.008C180.002 208.975 179.872 208.912 179.76 208.824C179.648 208.736 179.556 208.625 179.49 208.498C179.423 208.372 179.383 208.232 179.375 208.089C179.366 207.946 179.388 207.802 179.44 207.668L184.3 195.278C184.396 195.037 184.582 194.843 184.819 194.736C185.057 194.63 185.326 194.62 185.57 194.708C189.247 196.07 192.788 197.771 196.15 199.788C200.36 202.368 204.86 209.368 204.03 212.078C203.923 212.463 203.686 212.798 203.36 213.027C203.033 213.257 202.638 213.367 202.24 213.338ZM181.67 207.338C184.94 208.118 189.25 209.108 190.18 209.188C191.969 209.432 193.745 209.765 195.5 210.188C197.678 210.709 199.885 211.1 202.11 211.358C202.26 209.878 199.11 203.998 195.06 201.518C192.087 199.743 188.973 198.214 185.75 196.948L181.67 207.338Z" fill="#093F68"/>
<path d="M264.105 156.164L262.925 156.189C262.354 156.201 261.786 156.101 261.254 155.894C260.722 155.687 260.235 155.377 259.823 154.981C259.41 154.586 259.08 154.114 258.85 153.591C258.62 153.068 258.495 152.505 258.483 151.934L258.35 145.725L268.237 145.513L268.37 151.671C268.389 152.247 268.293 152.821 268.088 153.36C267.883 153.899 267.574 154.392 267.177 154.809C266.78 155.227 266.304 155.562 265.777 155.795C265.25 156.027 264.681 156.153 264.105 156.164Z" fill="#FFC9B0"/>
<path d="M262.84 157.18C261.441 157.177 260.098 156.628 259.098 155.649C258.098 154.67 257.521 153.338 257.49 151.94L257.35 145.73C257.35 145.464 257.455 145.21 257.643 145.022C257.83 144.835 258.085 144.73 258.35 144.73L268.24 144.52C268.505 144.52 268.76 144.625 268.947 144.812C269.135 145 269.24 145.254 269.24 145.52L269.37 151.73C269.397 153.148 268.86 154.519 267.878 155.542C266.896 156.566 265.548 157.158 264.13 157.19H262.95L262.84 157.18ZM259.37 146.69L259.49 151.9C259.508 152.776 259.869 153.61 260.496 154.223C261.122 154.836 261.963 155.18 262.84 155.18H262.91H264.09C264.53 155.17 264.964 155.075 265.367 154.898C265.77 154.721 266.134 154.467 266.439 154.149C266.743 153.831 266.982 153.457 267.142 153.047C267.302 152.637 267.379 152.199 267.37 151.76L267.26 146.55L259.37 146.69Z" fill="#093F68"/>
<path d="M262.58 147.428C268.53 148.898 274.75 146.978 279.85 143.868C282.5 142.248 286.62 140.498 286.31 136.868C286.093 135.3 285.492 133.809 284.56 132.528C282.62 129.528 280.42 126.078 279.56 122.528C278.51 118.118 280.39 113.608 278.67 109.158C275.73 101.598 265.22 100.468 258.29 99.5683C256.597 99.2585 254.863 99.2585 253.17 99.5683C248.88 100.568 249.17 105.678 248.28 109.228L246.11 117.998C242.86 131.218 249.18 144.118 262.58 147.428Z" fill="#FFC9B0"/>
<path d="M266.77 148.922C265.278 148.928 263.79 148.754 262.34 148.402C259.151 147.663 256.155 146.257 253.549 144.276C250.943 142.296 248.786 139.786 247.22 136.912C244.183 131.02 243.442 124.21 245.14 117.802L247.33 108.962C247.5 108.252 247.63 107.462 247.76 106.632C248.28 103.472 248.93 99.5319 252.95 98.5719C254.765 98.2364 256.625 98.2364 258.44 98.5719L259.1 98.6519C266.05 99.5519 276.56 100.912 279.62 108.792C280.62 111.452 280.5 114.072 280.35 116.612C280.137 118.505 280.208 120.42 280.56 122.292C281.33 125.532 283.37 128.822 285.39 131.922C286.417 133.342 287.077 134.995 287.31 136.732C287.63 140.532 284.09 142.552 281.51 144.032L280.37 144.702C276.308 147.326 271.604 148.786 266.77 148.922ZM255.25 100.322C254.635 100.314 254.021 100.378 253.42 100.512C250.88 101.122 250.31 103.462 249.74 106.962C249.6 107.792 249.46 108.652 249.27 109.432L247.08 118.282C245.495 124.222 246.18 130.539 249 136.002C250.434 138.631 252.408 140.926 254.794 142.736C257.18 144.546 259.922 145.83 262.84 146.502C267.84 147.732 273.69 146.502 279.34 143.052C279.72 142.832 280.12 142.592 280.54 142.362C283.47 140.672 285.54 139.302 285.34 136.962C285.124 135.556 284.575 134.223 283.74 133.072C281.62 129.832 279.48 126.362 278.63 122.812C278.231 120.75 278.143 118.64 278.37 116.552C278.51 114.122 278.65 111.832 277.77 109.552C275.15 102.772 265.77 101.552 258.86 100.672L258.2 100.582C257.223 100.435 256.238 100.348 255.25 100.322Z" fill="#093F68"/>
<path d="M249.4 116.449C249.4 116.449 241.3 124.969 242.72 125.719C244.417 126.363 246.177 126.829 247.97 127.109" fill="#FFC9B0"/>
<path d="M248 128.108H247.84C245.939 127.821 244.077 127.318 242.29 126.608C242.109 126.516 241.953 126.382 241.834 126.216C241.716 126.051 241.639 125.86 241.61 125.658C241.33 123.948 245.31 119.338 248.7 115.768C248.793 115.675 248.904 115.6 249.025 115.55C249.147 115.499 249.278 115.473 249.41 115.473C249.542 115.473 249.673 115.499 249.795 115.55C249.916 115.6 250.027 115.675 250.12 115.768C250.306 115.956 250.411 116.209 250.411 116.473C250.411 116.738 250.306 116.991 250.12 117.178C247.35 120.088 244.34 123.708 243.68 125.088C245.137 125.561 246.628 125.922 248.14 126.168C248.405 126.191 248.651 126.318 248.822 126.521C248.994 126.725 249.078 126.988 249.055 127.253C249.032 127.519 248.906 127.764 248.702 127.936C248.499 128.107 248.235 128.191 247.97 128.168L248 128.108Z" fill="#093F68"/>
<path d="M277.52 117.001C277.52 117.001 284.35 114.401 286.21 120.371C288.07 126.341 282.85 134.451 273.85 129.491" fill="#FFC9B0"/>
<path d="M279.16 131.999C277.119 131.946 275.124 131.378 273.36 130.349C273.128 130.216 272.958 129.997 272.888 129.739C272.817 129.481 272.852 129.206 272.985 128.974C273.118 128.741 273.337 128.572 273.595 128.501C273.853 128.431 274.128 128.466 274.36 128.599C277.73 130.449 280.8 130.479 283.01 128.679C284.111 127.7 284.91 126.427 285.312 125.01C285.715 123.592 285.703 122.09 285.28 120.679C285.137 120.091 284.87 119.541 284.498 119.066C284.125 118.59 283.656 118.199 283.12 117.919C280.9 116.839 277.94 117.919 277.91 117.919C277.787 117.965 277.656 117.987 277.525 117.983C277.394 117.979 277.265 117.95 277.145 117.896C277.025 117.842 276.917 117.765 276.827 117.669C276.737 117.574 276.667 117.461 276.62 117.339C276.573 117.216 276.551 117.085 276.555 116.954C276.559 116.822 276.589 116.693 276.643 116.573C276.697 116.454 276.774 116.346 276.869 116.256C276.965 116.165 277.077 116.095 277.2 116.049C277.35 116.049 280.99 114.639 283.98 116.049C284.769 116.448 285.464 117.011 286.018 117.701C286.572 118.391 286.971 119.191 287.19 120.049C287.747 121.844 287.767 123.763 287.248 125.569C286.729 127.376 285.694 128.992 284.27 130.219C282.832 131.4 281.021 132.031 279.16 131.999Z" fill="#093F68"/>
<path d="M253 111.059C252.47 111.066 251.958 110.862 251.578 110.491C251.199 110.121 250.982 109.615 250.975 109.084C250.968 108.554 251.173 108.043 251.543 107.663C251.913 107.283 252.42 107.066 252.95 107.059L263.1 106.809C263.63 106.795 264.145 106.991 264.53 107.356C264.916 107.721 265.14 108.224 265.155 108.754C265.17 109.285 264.973 109.799 264.608 110.185C264.243 110.57 263.74 110.795 263.21 110.809L253.05 111.069L253 111.059Z" fill="#093F68"/>
<path d="M255.42 117.71C256.74 117.71 257.81 116.64 257.81 115.32C257.81 114 256.74 112.93 255.42 112.93C254.1 112.93 253.03 114 253.03 115.32C253.03 116.64 254.1 117.71 255.42 117.71Z" fill="#093F68"/>
<path d="M252.8 135.491C252.126 135.501 251.454 135.424 250.8 135.261C250.558 135.177 250.357 135.004 250.239 134.777C250.12 134.55 250.094 134.286 250.164 134.04C250.235 133.794 250.397 133.584 250.618 133.454C250.838 133.324 251.1 133.283 251.35 133.341C251.58 133.411 256.97 134.831 259.27 128.171C259.309 128.042 259.374 127.923 259.46 127.819C259.546 127.716 259.652 127.632 259.772 127.571C259.891 127.509 260.022 127.473 260.156 127.463C260.29 127.454 260.425 127.472 260.552 127.515C260.679 127.559 260.796 127.628 260.896 127.718C260.996 127.808 261.077 127.917 261.133 128.039C261.19 128.161 261.222 128.293 261.226 128.427C261.231 128.561 261.208 128.695 261.16 128.821C259.19 134.551 255.21 135.491 252.8 135.491Z" fill="#093F68"/>
<path d="M258.69 212.549L305.52 201.779L292.18 159.079C291.041 153.869 287.879 149.324 283.39 146.444C278.9 143.563 273.451 142.584 268.24 143.719L263.53 144.719C258.32 145.859 253.775 149.021 250.894 153.51C248.014 157.999 247.034 163.448 248.17 168.659L258.69 212.549Z" fill="#49AD37"/>
<path d="M258.69 213.55C258.462 213.557 258.238 213.485 258.056 213.346C257.874 213.208 257.745 213.012 257.69 212.79L247.2 168.93C246.007 163.456 247.034 157.733 250.056 153.016C253.079 148.299 257.849 144.974 263.32 143.77L268.02 142.77C270.729 142.177 273.529 142.123 276.259 142.612C278.989 143.101 281.595 144.124 283.93 145.621C286.265 147.118 288.282 149.06 289.865 151.337C291.449 153.614 292.569 156.18 293.16 158.89L306.48 201.5C306.521 201.632 306.533 201.771 306.517 201.908C306.502 202.045 306.458 202.178 306.388 202.297C306.319 202.416 306.225 202.52 306.114 202.601C306.002 202.683 305.875 202.74 305.74 202.77L258.91 213.55H258.69ZM272.57 144.25C271.184 144.251 269.803 144.402 268.45 144.7L263.75 145.7C258.798 146.787 254.48 149.793 251.743 154.06C249.006 158.327 248.073 163.506 249.15 168.46L259.43 211.34L304.24 201L291.24 159.34C290.324 155.067 287.974 151.235 284.579 148.483C281.185 145.73 276.95 144.222 272.58 144.21L272.57 144.25Z" fill="#093F68"/>
<path d="M255.66 155.578C255.66 155.578 229 185.478 210.18 197.998L215.28 210.818C215.28 210.818 253 194.778 262.6 174.408" fill="#49AD37"/>
<path d="M215.28 211.851C215.146 211.848 215.014 211.821 214.89 211.771C214.768 211.72 214.658 211.645 214.565 211.55C214.472 211.456 214.399 211.344 214.35 211.221L209.25 198.401C209.166 198.188 209.158 197.952 209.228 197.734C209.297 197.515 209.439 197.327 209.63 197.201C228.13 184.861 254.63 155.201 254.91 154.921C254.995 154.815 255.101 154.728 255.22 154.664C255.34 154.6 255.472 154.562 255.607 154.55C255.742 154.539 255.879 154.555 256.007 154.599C256.136 154.642 256.255 154.71 256.356 154.801C256.457 154.891 256.539 155.001 256.596 155.124C256.654 155.247 256.685 155.381 256.69 155.516C256.694 155.652 256.67 155.787 256.62 155.913C256.571 156.04 256.496 156.155 256.4 156.251C256.14 156.541 230.09 185.671 211.4 198.411L215.81 209.511C221.67 206.871 253.15 192.001 261.68 173.981C261.737 173.862 261.817 173.755 261.915 173.667C262.013 173.578 262.128 173.511 262.252 173.467C262.377 173.423 262.509 173.405 262.641 173.412C262.772 173.42 262.901 173.453 263.02 173.511C263.258 173.626 263.441 173.83 263.53 174.079C263.618 174.328 263.603 174.602 263.49 174.841C259.41 183.461 250.1 192.311 235.84 201.121C229.359 205.118 222.617 208.676 215.66 211.771C215.54 211.822 215.411 211.849 215.28 211.851Z" fill="#093F68"/>
<path d="M271.73 88.4412C275.61 88.9512 279.62 88.1112 283.33 89.8112C295.14 95.2112 299.47 112.811 301.33 124.391C302.09 129.091 302.46 133.961 301.24 138.561C300.297 141.864 298.63 144.916 296.361 147.495C294.092 150.074 291.277 152.116 288.12 153.471C281.726 156.137 274.56 156.287 268.06 153.891C266.103 153.282 264.316 152.224 262.84 150.801C259.66 147.461 259.76 142.091 261.42 137.801C263.08 133.511 266.04 129.801 268.17 125.801C270.348 121.499 271.283 116.675 270.87 111.871C270.29 106.581 266.87 105.471 262.17 104.951C260.92 104.811 254.71 100.271 255.6 98.9512C254.49 100.581 252.38 101.111 250.45 101.531C250.27 101.531 250.01 101.531 249.96 101.381C249.95 101.328 249.95 101.274 249.96 101.221C251.76 92.1412 263.52 87.3712 271.73 88.4412Z" fill="#725858"/>
<path d="M277.72 156.582C274.311 156.579 270.928 155.987 267.72 154.832C265.619 154.161 263.7 153.019 262.11 151.492C258.4 147.592 258.92 141.492 260.49 137.432C261.611 134.788 262.981 132.256 264.58 129.872C265.51 128.382 266.47 126.872 267.29 125.292C269.369 121.162 270.265 116.538 269.88 111.932C269.39 107.512 266.88 106.432 262.06 105.932C260.77 105.792 256.66 102.932 255.14 100.832C253.775 101.685 252.251 102.253 250.66 102.502C250.495 102.557 250.321 102.58 250.148 102.567C249.974 102.554 249.805 102.507 249.65 102.427C249.496 102.348 249.358 102.239 249.247 102.105C249.135 101.972 249.051 101.818 249 101.652C248.95 101.444 248.95 101.229 249 101.022C251 91.0215 263.66 86.4215 271.87 87.4915C273.178 87.6347 274.494 87.7015 275.81 87.6915C278.43 87.6915 281.14 87.6915 283.76 88.9415C293 93.1715 299.25 105.052 302.33 124.272C302.99 128.372 303.57 133.732 302.22 138.852C301.248 142.307 299.514 145.5 297.145 148.197C294.776 150.893 291.832 153.024 288.53 154.432C285.113 155.884 281.433 156.616 277.72 156.582ZM256.54 99.2715C256.94 100.392 261.19 103.682 262.3 103.912C266.55 104.382 271.17 105.412 271.86 111.712C272.313 116.712 271.342 121.739 269.06 126.212C268.21 127.842 267.23 129.412 266.28 130.932C264.743 133.208 263.427 135.625 262.35 138.152C261 141.652 260.5 146.892 263.56 150.152C264.927 151.468 266.585 152.445 268.4 153.002C274.658 155.317 281.561 155.177 287.72 152.612C290.732 151.304 293.418 149.348 295.588 146.883C297.757 144.418 299.356 141.505 300.27 138.352C301.53 133.592 300.97 128.502 300.35 124.602C297.35 106.082 291.51 94.7015 282.92 90.7715C280.69 89.7715 278.3 89.7715 275.78 89.7015C274.384 89.712 272.988 89.6385 271.6 89.4815C264.6 88.5715 253.66 92.3715 251.22 100.342C252.601 100.142 253.864 99.4533 254.78 98.4015C254.918 98.1996 255.126 98.0553 255.363 97.9961C255.601 97.9369 255.852 97.9668 256.068 98.0802C256.285 98.1935 256.453 98.3825 256.54 98.6113C256.627 98.84 256.627 99.0927 256.54 99.3215V99.2715Z" fill="#093F68"/>
<path d="M211 197.879C206.689 198.835 202.446 200.078 198.3 201.599C191.89 203.959 186.64 207.909 190.17 211.419C191.93 213.179 196.72 210.529 202.26 210.269C207.8 210.009 212.26 211.439 215.31 210.849L211 197.879Z" fill="#FFC9B0"/>
<path d="M191.94 212.999C191.483 213.029 191.025 212.966 190.593 212.813C190.162 212.66 189.766 212.421 189.43 212.109C188.88 211.63 188.467 211.015 188.232 210.325C187.996 209.634 187.947 208.894 188.09 208.179C188.94 204.329 195.25 201.619 197.93 200.639C202.123 199.105 206.412 197.849 210.77 196.879C211.01 196.831 211.261 196.872 211.473 196.995C211.685 197.119 211.844 197.316 211.92 197.549L216.23 210.549C216.274 210.685 216.289 210.828 216.273 210.969C216.258 211.111 216.212 211.247 216.14 211.369C216.069 211.492 215.972 211.599 215.857 211.682C215.741 211.764 215.609 211.822 215.47 211.849C213.489 212.085 211.485 212.031 209.52 211.689C207.122 211.352 204.7 211.219 202.28 211.289C200.22 211.429 198.177 211.764 196.18 212.289C194.796 212.677 193.375 212.915 191.94 212.999ZM210.31 198.999C206.347 199.926 202.443 201.092 198.62 202.489C193.84 204.239 190.47 206.639 190.05 208.579C189.984 208.965 190.022 209.361 190.161 209.727C190.3 210.093 190.534 210.415 190.84 210.659C191.49 211.309 193.54 210.819 195.72 210.299C197.835 209.739 199.998 209.377 202.18 209.219C204.71 209.145 207.242 209.282 209.75 209.629C211.138 209.828 212.538 209.932 213.94 209.939L210.31 198.999Z" fill="#093F68"/>
<path d="M142.54 151.512C142.54 151.512 162.84 181.102 185.18 195.642L180 208.372C180 208.372 146.24 197.632 130.1 168.952" fill="#49AD37"/>
<path d="M180 209.369C179.895 209.367 179.79 209.35 179.69 209.319C179.35 209.209 145.38 198.139 129.23 169.439C129.164 169.325 129.122 169.198 129.105 169.068C129.088 168.937 129.097 168.804 129.131 168.677C129.166 168.55 129.225 168.431 129.305 168.326C129.386 168.222 129.486 168.134 129.6 168.069C129.714 168.003 129.84 167.961 129.971 167.944C130.102 167.927 130.234 167.936 130.362 167.97C130.489 168.004 130.608 168.064 130.712 168.144C130.817 168.224 130.904 168.325 130.97 168.439C145.3 193.899 174.05 205.169 179.43 207.089L184 195.999C162 181.369 142 152.349 141.76 152.059C141.614 151.84 141.56 151.572 141.61 151.314C141.66 151.056 141.81 150.828 142.027 150.679C142.244 150.53 142.511 150.473 142.77 150.52C143.029 150.567 143.259 150.714 143.41 150.929C143.61 151.219 163.86 180.519 185.78 194.779C185.973 194.905 186.117 195.095 186.186 195.316C186.256 195.536 186.246 195.774 186.16 195.989L181 208.739C180.922 208.936 180.783 209.104 180.603 209.217C180.423 209.331 180.212 209.384 180 209.369Z" fill="#093F68"/>
<path d="M192 197.12C194.37 199.3 195.1 203.12 196.5 205.96C197.119 207.51 198.018 208.933 199.15 210.16C200.023 210.909 201.121 211.348 202.27 211.406C203.42 211.464 204.556 211.138 205.5 210.48C206.063 210.17 206.557 209.748 206.95 209.24C207.464 208.356 207.707 207.34 207.65 206.32C207.713 203.76 207.376 201.205 206.65 198.75C206.897 199.031 207.207 199.25 207.554 199.391C207.901 199.532 208.277 199.589 208.65 199.56C208.726 199.016 208.676 198.463 208.502 197.942C208.329 197.422 208.037 196.948 207.65 196.56C206.534 195.087 205.214 193.78 203.73 192.68C202.85 192.11 201.08 190.68 200.07 190.44C196.67 189.63 194.62 191.99 191.34 193.04C188.06 194.09 191.89 197 192 197.12Z" fill="#FFC9B0"/>
<path d="M202.4 212.41C200.953 212.424 199.556 211.879 198.5 210.89C197.358 209.694 196.446 208.297 195.81 206.77L195.63 206.4C195.17 205.46 194.78 204.4 194.4 203.4C193.62 201.32 192.81 199.17 191.4 197.84C189.64 196.347 188.877 195.013 189.11 193.84C189.222 193.387 189.462 192.976 189.8 192.656C190.139 192.335 190.562 192.118 191.02 192.03C191.997 191.686 192.944 191.261 193.85 190.76C195.72 189.76 197.66 188.76 200.28 189.41C201.427 189.822 202.493 190.431 203.43 191.21L204.25 191.78C205.832 192.941 207.236 194.325 208.42 195.89C209.15 196.83 210.08 198.26 209.6 199.81C209.542 200.005 209.425 200.177 209.266 200.304C209.107 200.431 208.913 200.506 208.71 200.52C208.534 200.535 208.356 200.535 208.18 200.52C208.58 202.423 208.761 204.366 208.72 206.31C208.779 207.529 208.473 208.737 207.84 209.78C207.369 210.406 206.773 210.927 206.09 211.31C204.983 212.006 203.707 212.387 202.4 212.41ZM198.64 191.25C197.248 191.368 195.905 191.825 194.73 192.58C193.724 193.138 192.67 193.603 191.58 193.97C191.17 194.1 191.04 194.24 191.03 194.27C191.02 194.3 191.28 195.18 192.63 196.27L192.7 196.34C194.51 197.99 195.41 200.34 196.28 202.67C196.615 203.622 196.999 204.557 197.43 205.47L197.61 205.84C198.139 207.147 198.901 208.347 199.86 209.38C200.575 209.979 201.47 210.323 202.402 210.358C203.335 210.392 204.253 210.115 205.01 209.57C205.464 209.327 205.857 208.985 206.16 208.57C206.557 207.85 206.738 207.03 206.68 206.21C206.724 203.753 206.386 201.304 205.68 198.95C205.613 198.731 205.623 198.496 205.709 198.283C205.794 198.071 205.95 197.894 206.151 197.783C206.351 197.672 206.583 197.633 206.809 197.672C207.034 197.712 207.24 197.827 207.39 198C207.212 197.645 206.998 197.31 206.75 197C205.705 195.613 204.47 194.381 203.08 193.34C202.84 193.18 202.52 192.96 202.18 192.71C201.428 192.118 200.605 191.621 199.73 191.23C199.367 191.199 199.002 191.205 198.64 191.25Z" fill="#093F68"/>
<path d="M218.51 190.549C218.245 190.549 217.99 190.444 217.803 190.256C217.615 190.068 217.51 189.814 217.51 189.549C217.85 177.989 218.19 159.099 217.65 157.099C217.521 156.889 217.473 156.639 217.517 156.396C217.561 156.154 217.693 155.936 217.888 155.785C218.082 155.633 218.326 155.559 218.572 155.577C218.818 155.594 219.049 155.702 219.22 155.879C219.59 156.259 220.47 157.139 219.51 189.609C219.495 189.864 219.383 190.103 219.197 190.278C219.011 190.452 218.765 190.549 218.51 190.549Z" fill="#093F68"/>
<path d="M179.34 142.199C179.34 142.199 166.63 159.639 166 173.049C165.37 186.459 192 197.119 192 197.119C192 197.119 191.83 195.499 195.85 192.489C199.87 189.479 201.24 190.589 201.24 190.589C201.24 190.589 183.55 183.159 182.49 173.049C181.62 164.699 188.95 151.509 188.95 151.509" fill="#49AD37"/>
<path d="M192.09 198.141C191.939 198.141 191.789 198.111 191.65 198.051C190.54 197.611 164.4 186.971 165.03 173.051C165.64 159.491 178.03 142.371 178.53 141.651C178.607 141.545 178.705 141.454 178.817 141.386C178.929 141.317 179.054 141.271 179.184 141.25C179.314 141.23 179.447 141.235 179.575 141.266C179.703 141.297 179.824 141.353 179.93 141.431C180.037 141.509 180.127 141.606 180.196 141.718C180.264 141.831 180.31 141.955 180.331 142.086C180.351 142.216 180.346 142.348 180.315 142.476C180.284 142.604 180.228 142.725 180.15 142.831C180 143.001 167.61 160.141 167 173.101C166.49 184.221 186.6 193.691 191.36 195.771C192.332 194.135 193.662 192.74 195.25 191.691C196.052 191.071 196.912 190.532 197.82 190.081C192.58 187.391 182.34 181.161 181.5 173.161C180.6 164.591 187.77 151.581 188.08 151.031C188.144 150.916 188.229 150.815 188.332 150.733C188.435 150.651 188.553 150.591 188.679 150.554C188.805 150.518 188.938 150.507 189.068 150.522C189.199 150.537 189.325 150.577 189.44 150.641C189.67 150.771 189.84 150.988 189.911 151.243C189.982 151.498 189.95 151.77 189.82 152.001C189.75 152.131 182.65 165.001 183.49 172.951C184.38 181.501 198.55 188.281 201.2 189.481C201.444 189.543 201.672 189.655 201.87 189.811C202.057 189.963 202.183 190.176 202.226 190.413C202.268 190.65 202.223 190.895 202.1 191.101C201.976 191.309 201.782 191.465 201.552 191.541C201.322 191.616 201.073 191.606 200.85 191.511L200.59 191.401C200.12 191.321 198.79 191.531 196.45 193.291C193.15 195.761 192.99 197.101 192.99 197.121C193.008 197.285 192.981 197.45 192.913 197.6C192.844 197.75 192.736 197.878 192.6 197.971C192.452 198.079 192.273 198.138 192.09 198.141Z" fill="#093F68"/>
</svg>
