<svg width="61" height="49" viewBox="0 0 61 49" fill="none" xmlns="http://www.w3.org/2000/svg">
<path d="M54.3768 6.69562H30.4928L24.5218 0.724609H6.60871C3.32465 0.724609 0.66755 3.41157 0.66755 6.69562L0.637695 42.5217C0.637695 45.8058 3.32465 48.4927 6.60871 48.4927H54.3768C57.6609 48.4927 60.3478 45.8058 60.3478 42.5217V12.6666C60.3478 9.38258 57.6609 6.69562 54.3768 6.69562ZM39.4493 15.6521C42.7334 15.6521 45.4203 18.3391 45.4203 21.6232C45.4203 24.9072 42.7334 27.5942 39.4493 27.5942C36.1652 27.5942 33.4783 24.9072 33.4783 21.6232C33.4783 18.3391 36.1652 15.6521 39.4493 15.6521ZM51.3913 39.5362H27.5073V36.5507C27.5073 32.58 35.4786 30.5797 39.4493 30.5797C43.42 30.5797 51.3913 32.58 51.3913 36.5507V39.5362Z" fill="#FFA043"/>
</svg>
