<svg width="28" height="28" viewBox="0 0 28 28" fill="none" xmlns="http://www.w3.org/2000/svg">
<circle cx="14" cy="14" r="14" fill="#005D1F"/>
<g clip-path="url(#clip0_4442_5053)">
<mask id="mask0_4442_5053" style="mask-type:luminance" maskUnits="userSpaceOnUse" x="6" y="6" width="16" height="16">
<path d="M6.46167 6.46094H21.5386V21.5379H6.46167V6.46094Z" fill="white"/>
</mask>
<g mask="url(#mask0_4442_5053)">
<path d="M14.5388 21V15.3462C14.5388 14.9891 14.6806 14.6467 14.9331 14.3943C15.1855 14.1418 15.528 14 15.885 14C16.242 14 16.5844 14.1418 16.8368 14.3943C17.0893 14.6467 17.2311 14.9891 17.2311 15.3462V18.3077H18.8465C19.4177 18.3077 19.9655 18.5346 20.3695 18.9386C20.7734 19.3425 21.0004 19.8903 21.0004 20.4615V21" stroke="white" stroke-linecap="round" stroke-linejoin="round"/>
<path d="M7.53871 8.07692C7.83609 8.07692 8.07717 7.83584 8.07717 7.53846C8.07717 7.24108 7.83609 7 7.53871 7C7.24132 7 7.00024 7.24108 7.00024 7.53846C7.00024 7.83584 7.24132 8.07692 7.53871 8.07692Z" stroke="white" stroke-linecap="round" stroke-linejoin="round"/>
<path d="M11.8463 8.07692C12.1437 8.07692 12.3848 7.83584 12.3848 7.53846C12.3848 7.24108 12.1437 7 11.8463 7C11.5489 7 11.3079 7.24108 11.3079 7.53846C11.3079 7.83584 11.5489 8.07692 11.8463 8.07692Z" stroke="white" stroke-linecap="round" stroke-linejoin="round"/>
<path d="M16.1542 8.07692C16.4516 8.07692 16.6926 7.83584 16.6926 7.53846C16.6926 7.24108 16.4516 7 16.1542 7C15.8568 7 15.6157 7.24108 15.6157 7.53846C15.6157 7.83584 15.8568 8.07692 16.1542 8.07692Z" stroke="white" stroke-linecap="round" stroke-linejoin="round"/>
<path d="M7.53871 11.8465C7.83609 11.8465 8.07717 11.6054 8.07717 11.308C8.07717 11.0106 7.83609 10.7695 7.53871 10.7695C7.24132 10.7695 7.00024 11.0106 7.00024 11.308C7.00024 11.6054 7.24132 11.8465 7.53871 11.8465Z" stroke="white" stroke-linecap="round" stroke-linejoin="round"/>
<path d="M11.8463 11.8465C12.1437 11.8465 12.3848 11.6054 12.3848 11.308C12.3848 11.0106 12.1437 10.7695 11.8463 10.7695C11.5489 10.7695 11.3079 11.0106 11.3079 11.308C11.3079 11.6054 11.5489 11.8465 11.8463 11.8465Z" stroke="white" stroke-linecap="round" stroke-linejoin="round"/>
<path d="M11.8463 15.616C12.1437 15.616 12.3848 15.3749 12.3848 15.0775C12.3848 14.7801 12.1437 14.5391 11.8463 14.5391C11.5489 14.5391 11.3079 14.7801 11.3079 15.0775C11.3079 15.3749 11.5489 15.616 11.8463 15.616Z" stroke="white" stroke-linecap="round" stroke-linejoin="round"/>
<path d="M16.1542 11.8465C16.4516 11.8465 16.6926 11.6054 16.6926 11.308C16.6926 11.0106 16.4516 10.7695 16.1542 10.7695C15.8568 10.7695 15.6157 11.0106 15.6157 11.308C15.6157 11.6054 15.8568 11.8465 16.1542 11.8465Z" stroke="white" stroke-linecap="round" stroke-linejoin="round"/>
<path d="M7.53871 15.616C7.83609 15.616 8.07717 15.3749 8.07717 15.0775C8.07717 14.7801 7.83609 14.5391 7.53871 14.5391C7.24132 14.5391 7.00024 14.7801 7.00024 15.0775C7.00024 15.3749 7.24132 15.616 7.53871 15.616Z" stroke="white" stroke-linecap="round" stroke-linejoin="round"/>
</g>
</g>
<defs>
<clipPath id="clip0_4442_5053">
<rect width="15.0769" height="15.0769" fill="white" transform="translate(6.46167 6.46094)"/>
</clipPath>
</defs>
</svg>
