<svg width="28" height="28" viewBox="0 0 28 28" fill="none" xmlns="http://www.w3.org/2000/svg">
<circle cx="14" cy="14" r="14" fill="#8E8E93"/>
<g clip-path="url(#clip0_4431_4668)">
<mask id="mask0_4431_4668" style="mask-type:luminance" maskUnits="userSpaceOnUse" x="6" y="6" width="16" height="16">
<path d="M6.46155 6.46094H21.5385V21.5379H6.46155V6.46094Z" fill="white"/>
</mask>
<g mask="url(#mask0_4431_4668)">
<path d="M14.5385 21V15.3462C14.5385 14.9891 14.6803 14.6467 14.9327 14.3943C15.1852 14.1418 15.5276 14 15.8846 14C16.2416 14 16.584 14.1418 16.8365 14.3943C17.0889 14.6467 17.2308 14.9891 17.2308 15.3462V18.3077H18.8461C19.4173 18.3077 19.9652 18.5346 20.3691 18.9386C20.7731 19.3425 21 19.8903 21 20.4615V21" stroke="white" stroke-linecap="round" stroke-linejoin="round"/>
<path d="M7.53846 8.07692C7.83584 8.07692 8.07692 7.83584 8.07692 7.53846C8.07692 7.24108 7.83584 7 7.53846 7C7.24108 7 7 7.24108 7 7.53846C7 7.83584 7.24108 8.07692 7.53846 8.07692Z" stroke="white" stroke-linecap="round" stroke-linejoin="round"/>
<path d="M11.8462 8.07692C12.1436 8.07692 12.3847 7.83584 12.3847 7.53846C12.3847 7.24108 12.1436 7 11.8462 7C11.5488 7 11.3077 7.24108 11.3077 7.53846C11.3077 7.83584 11.5488 8.07692 11.8462 8.07692Z" stroke="white" stroke-linecap="round" stroke-linejoin="round"/>
<path d="M16.1538 8.07692C16.4512 8.07692 16.6923 7.83584 16.6923 7.53846C16.6923 7.24108 16.4512 7 16.1538 7C15.8564 7 15.6154 7.24108 15.6154 7.53846C15.6154 7.83584 15.8564 8.07692 16.1538 8.07692Z" stroke="white" stroke-linecap="round" stroke-linejoin="round"/>
<path d="M7.53846 11.8465C7.83584 11.8465 8.07692 11.6054 8.07692 11.308C8.07692 11.0106 7.83584 10.7695 7.53846 10.7695C7.24108 10.7695 7 11.0106 7 11.308C7 11.6054 7.24108 11.8465 7.53846 11.8465Z" stroke="white" stroke-linecap="round" stroke-linejoin="round"/>
<path d="M11.8462 11.8465C12.1436 11.8465 12.3847 11.6054 12.3847 11.308C12.3847 11.0106 12.1436 10.7695 11.8462 10.7695C11.5488 10.7695 11.3077 11.0106 11.3077 11.308C11.3077 11.6054 11.5488 11.8465 11.8462 11.8465Z" stroke="white" stroke-linecap="round" stroke-linejoin="round"/>
<path d="M11.8462 15.616C12.1436 15.616 12.3847 15.3749 12.3847 15.0775C12.3847 14.7801 12.1436 14.5391 11.8462 14.5391C11.5488 14.5391 11.3077 14.7801 11.3077 15.0775C11.3077 15.3749 11.5488 15.616 11.8462 15.616Z" stroke="white" stroke-linecap="round" stroke-linejoin="round"/>
<path d="M16.1538 11.8465C16.4512 11.8465 16.6923 11.6054 16.6923 11.308C16.6923 11.0106 16.4512 10.7695 16.1538 10.7695C15.8564 10.7695 15.6154 11.0106 15.6154 11.308C15.6154 11.6054 15.8564 11.8465 16.1538 11.8465Z" stroke="white" stroke-linecap="round" stroke-linejoin="round"/>
<path d="M7.53846 15.616C7.83584 15.616 8.07692 15.3749 8.07692 15.0775C8.07692 14.7801 7.83584 14.5391 7.53846 14.5391C7.24108 14.5391 7 14.7801 7 15.0775C7 15.3749 7.24108 15.616 7.53846 15.616Z" stroke="white" stroke-linecap="round" stroke-linejoin="round"/>
</g>
</g>
<defs>
<clipPath id="clip0_4431_4668">
<rect width="15.0769" height="15.0769" fill="white" transform="translate(6.46155 6.46094)"/>
</clipPath>
</defs>
</svg>
