<svg width="57" height="18" viewBox="0 0 57 18" fill="none" xmlns="http://www.w3.org/2000/svg">
<g clip-path="url(#clip0_3276_5257)">
<path d="M37.1262 0.0214844C33.0789 0.0214844 29.4622 2.06105 29.4622 5.8293C29.4622 10.1507 35.8767 10.4492 35.8767 12.6202C35.8767 13.5343 34.7992 14.3526 32.959 14.3526C30.3473 14.3526 28.3953 13.2092 28.3953 13.2092L27.5601 17.0118C27.5601 17.0118 29.8087 17.9776 32.7942 17.9776C37.2191 17.9776 40.7009 15.8378 40.7009 12.0052C40.7009 7.43883 34.2597 7.1492 34.2597 5.13421C34.2597 4.41804 35.1442 3.63346 36.9792 3.63346C39.0496 3.63346 40.7388 4.46502 40.7388 4.46502L41.5562 0.792409C41.5562 0.792409 39.7182 0.0214844 37.1262 0.0214844ZM0.098024 0.298689L0 0.853042C0 0.853042 1.7027 1.15599 3.23622 1.76038C5.21074 2.45336 5.35144 2.85683 5.68397 4.10988L9.30766 17.6917H14.1654L21.649 0.298689H16.8024L11.9938 12.1243L10.0316 2.10032C9.85164 0.953118 8.9401 0.298689 7.82435 0.298689H0.098024ZM23.5978 0.298689L19.7959 17.6917H24.4175L28.206 0.298633H23.5978V0.298689ZM49.3739 0.298689C48.2594 0.298689 47.669 0.878783 47.2357 1.89246L40.4648 17.6917H45.3113L46.249 15.0584H52.1535L52.7237 17.6917H57L53.2693 0.298689H49.3739ZM50.0042 4.99774L51.4408 11.5244H47.592L50.0042 4.99774Z" fill="#1434CB"/>
</g>
<defs>
<clipPath id="clip0_3276_5257">
<rect width="57" height="18" fill="white"/>
</clipPath>
</defs>
</svg>
